/* XPM */
static char *result[] = {
/* columns rows colors chars-per-pixel */
"60 60 198 2 ",
"   c #010102",
".  c #04070B",
"X  c #090B0E",
"o  c #060C14",
"O  c #0F1419",
"+  c #121A23",
"@  c #1B2832",
"#  c #232A28",
"$  c #333B26",
"%  c #34392B",
"&  c #282E34",
"*  c #2E3236",
"=  c #383A3E",
"-  c #0E6B1A",
";  c #1D701D",
":  c #394725",
">  c #0B6927",
",  c #0D692C",
"<  c #136B2A",
"1  c #1C732B",
"2  c #0B6B36",
"3  c #116C36",
"4  c #137036",
"5  c #14763C",
"6  c #277822",
"7  c #257A2A",
"8  c #2B7F35",
"9  c #227E3C",
"0  c #464B3C",
"q  c #4B6427",
"w  c #263647",
"e  c #364A58",
"r  c #1A7941",
"t  c #36526B",
"y  c #3F657C",
"u  c #414140",
"i  c #595D50",
"p  c #5F6159",
"a  c #455C6B",
"s  c #48687B",
"d  c gray40",
"f  c #2F822E",
"g  c #328021",
"h  c #3D8B2D",
"j  c #2D8230",
"k  c #388833",
"l  c #358B3F",
"z  c #428C2F",
"x  c #45922E",
"c  c #5C9128",
"v  c #439234",
"b  c #499738",
"n  c #4C953D",
"m  c #549C34",
"M  c #569C3C",
"N  c #62862F",
"B  c #679B33",
"V  c #719B36",
"C  c #5BA33A",
"Z  c #59A43C",
"A  c #6AA02F",
"S  c #64AB3A",
"D  c #68A838",
"F  c #76A93A",
"G  c #6FB137",
"H  c #6DB13B",
"J  c #7BB436",
"K  c #7AB936",
"L  c #74B43A",
"P  c #7CB43D",
"I  c #7DBA3D",
"U  c #2D8441",
"Y  c #338A43",
"T  c #3C8F42",
"R  c #3C9246",
"E  c #479A46",
"W  c #4E9B48",
"Q  c #5BA343",
"!  c #58A447",
"~  c #51A050",
"^  c #63AA45",
"/  c #6BAD41",
"(  c #69AD49",
")  c #6BB143",
"_  c #65B14A",
"`  c #6FB448",
"'  c #72B544",
"]  c #7AB542",
"[  c #7DBC44",
"{  c #75B54C",
"}  c #79B94C",
"|  c #83B939",
" . c #83BC3D",
".. c #86C03D",
"X. c #8CC53E",
"o. c #8EC83E",
"O. c #91C63F",
"+. c #90C93C",
"@. c #F7F02B",
"#. c #F2EF3C",
"$. c #80B642",
"%. c #85BD42",
"&. c #89BD44",
"*. c #86B74E",
"=. c #88B35D",
"-. c #96BF64",
";. c #86C241",
":. c #8EC742",
">. c #8EC842",
",. c #85C44B",
"<. c #8CC54A",
"1. c #84C84E",
"2. c #8BC84B",
"3. c #92C642",
"4. c #91C944",
"5. c #91C64A",
"6. c #94CA4A",
"7. c #99CC49",
"8. c #83C653",
"9. c #89CB52",
"0. c #96CC52",
"q. c #9AC45B",
"w. c #97C858",
"e. c #9CD056",
"r. c #A5CE52",
"t. c #A7D355",
"y. c #B4D65C",
"u. c #9BC563",
"i. c #9DC572",
"p. c #A2CB66",
"a. c #A8D669",
"s. c #BADA61",
"d. c #A2CC71",
"f. c #AAC87B",
"g. c #AAD375",
"h. c #B3D87C",
"j. c #BCE263",
"k. c #F4F052",
"l. c #C1DD64",
"z. c #C4E56E",
"x. c #F8F574",
"c. c #466A81",
"v. c #4D6C82",
"b. c #56778D",
"n. c #487291",
"m. c #497D9F",
"M. c #547C96",
"N. c #587D95",
"B. c #577F9B",
"V. c #5A7E99",
"C. c #4D829F",
"Z. c #578097",
"A. c #52819E",
"S. c #6B8799",
"D. c #4D82A1",
"F. c #7C94A4",
"G. c #959693",
"H. c #94AAB7",
"J. c #A7A7A7",
"K. c #A9A8A7",
"L. c #ABABAC",
"P. c #BEBEBE",
"I. c #A8C481",
"U. c #B5D689",
"Y. c #B2D399",
"T. c #C6D887",
"R. c #C6DB95",
"E. c #C6DB98",
"W. c #C6E79A",
"Q. c #D7E792",
"!. c #F1F384",
"~. c #F7F58E",
"^. c #EEF291",
"/. c #CCE5A8",
"(. c #D8ECA9",
"). c #D7EEB4",
"_. c #E2F1AD",
"`. c #E7F0AF",
"'. c #F6F9B0",
"]. c #93B7CB",
"[. c #9EBDCD",
"{. c #A7BDC7",
"}. c #B4C5CB",
"|. c #C8D6DC",
" X c #D5D5D4",
".X c #DCDCDC",
"XX c #D9E6C5",
"oX c #ECEDC1",
"OX c #ECF1CC",
"+X c #ECFDCC",
"@X c #E6F3DB",
"#X c #F4FCDB",
"$X c #D3E0E8",
"%X c #E9EAEA",
"&X c #F5FBE6",
"*X c #E1ECF2",
"=X c #F4F4F4",
"-X c #FFFFFF",
/* pixels */
":.:.:. .5 ] I :.:.:.>.:.>.:.:.>.:.8 o.7 [ o.4.>.%.4.:.:.:.:.>.:.>.>.:.:.:.:.:.4.>.] 2.<.:.o.:.:.o.5.:.:.>.:.:.3.1. .m { ",
":.:.:.:.] 4.:.:.>.4.:.:.>.:.:.:.>.>.( < ;.o.>.>.>.>.4.:.:.:.:.>.,.>.>.o.z.4.:.:.:.>.o.:.:.o.:.:.:.O.o.>.:.4.>.>.3.r x 4.",
">.7.3.>.:.:.>.>.>.:.>.F >.:.:.:.:.%.[ ..:.y.>.:.>.:.>.:.>.Q :.n D >.:.:.:.:.>.:.:.:.:.:.>.P o.:.:.:.o.:.:.:.>.:.;.M o.;.",
">.>.>.:.:.:.:.:.:.>.:.o.>.:.>.>.o.>.>.>.>.6.>.:.>.>.a.4.>.<.2 R %.o.:.>.:.:.>.>.:.3.:.:.o.>.:.:.:.:.3.>.:.>.:.o.:.o.:.o.",
">.>.:.:.>.4.z.>.:.>.:.:.>.:.:.>.p.0.:.4.:.:.:.:.>.U.#./.>. .} :.>.:.:.:.:.:.:.c 4.:.4.:.>.:.>.:.:.:.:.:.4.4.>.>.>.>.>.>.",
":.o.:.:.8.6.:.:.:.>.:.>.>.>.>.4.'.#X>.:.>.>.>.:.o.X.W.:.>.>.>.4.>.4.>.4.>.:.4.o.:.:.:.:.o.:.>.:.:.>.:.>.:.:.:.>.:.:.:.:.",
":.H 1.9.] >.:.:.:.:.:.>.:.>.o.:.,.X.o.:.4.o.1 >.:.:.:.>.:.:.:.>.>.o.o.>.:.:.:.:.:.>.>.>.:.>.>.>.:.>.:.:.>.:.>.:.3.>.:.>.",
">..., 0.I <.4.4.:.:.>.:.:.:.:.>.o.:.:.:.n ] 8...>.:.:.J >.:.:.>.3.;.:.o.4.:.>.>.:.:.>.:.:.:.:.3.>.4.:.:.:.>.7.3.4.:.>.:.",
">.;.] O.:.:.:.>.>.:.L >.o.:.:.>.o.5.4.J E X.I :.>.>.>.>.>.>.:.o.>.:.:.:.:.<.:.4.:.:.:.:.>.>.:.:.o.>.:.:.>.:.o.:.:.:.:.3.",
">.>.>.>.>.:.:.4.>.:. .>.>.>.:.o.q.x.u.:. .>.:.<.0.>.>.>.:.o.>.:.:.>.:.:.T.R.>.o.:.o.:.:.:.o.>.:.:.:.:.o.4.O.0.4.4.;.:.:.",
"4.:.>.:.>.>.>.y.>.4.>.:.>.>.:.:.:.@XX.o.4.o.:.OXOXo.>.>.3.t.o.:.>.>.X.o.=.*.4.>.:.:.:.:.>.o.:.>.:.:.:.>.;.4.oXOXo.>.:.:.",
"4.>.:.4.:.>.:.:.>.4.>.:.>.>.D :.:.:.>.>.>.>.:.:.>.>.>.>.:.>.o.:.:.:.>.:.:.:.o.>.:.o.<.:.o.:.>.>.:.:.>.:.;.<.5.<.o.>.:.:.",
">.o.:.>.:.>.o.:.:.:.:.:.1 >.Y :.o.:.o.:.:.o.3.4.>.o.:.<.:.:.:.o.o.:.:.9.; :.:.o.:.:.:.:.:.>.>.o.4.:.:.:.>.:.:.:.>.>.>.:.",
">.:.:.:.:.:.o.>.>.:.>. .} H S :.:.o.:.:.:.>.>.:.:.W <.v o.:.:.:.>.I R , :.:.:.:.:.:.:.:.>.>.:.X.3.! X.:.:.:.:.4.>.>.:.:.",
":.:.:.:.>.>.<.>.>.:.:.o.%.X.:.:.:.:.:.o.>.>.:.4.;.Z ,.b  .>.:.:.:. .E  .%.>.:.o.t.:.>.:.>.>.:.v :.v ;.:.:.:.:.:.4.:.:.>.",
":.o.:.X.>.:.o.:.>.>.>.:.o.:.:.:.:.:.:.o.>.:.4.4.;.L :.:.:.:.>.:.:.;.:.o.<...W.<.:.>.>.:.:.:. .Q X.} :.:.4.:.s.:.:.:.o.:.",
"..:.o.:.:.o.:.:.:.:.o.o.o.:.:.:.>.3.>.:.:.:.:.4.:.4.:.:.:.:.o.7.4.:.o.o.4.:.^./.:.:.:.:.:.:.:. .o.:.>.:.:.>.:.:.>.>.o.:.",
"4.:.:.3.:.:.:.:.:.o.:.>.:.:.o.:.:.o.:.:.:.:.:.:.e A.A.B.A.A.A.A.A.m.V :.o.:. .>.:.:.:.<.>.:.:.>.:.:.:.>.:.:.:.:.>.>.:.:.",
"O.>.X.3.U.5.o.o.3.>.:.:.5.:.4.:.>.>.>.:.:.:.:.:.+ V.V.V.N.N.N.Z.M.b.&.:.:.:.:.:.} o.C z >.:.:.:.:.>.4.>.4.>.>.:.>.>.:.:.",
"o.>.o.w.@.p.4.:.o.>.:.:.>.:.:.o.>.:.:.:.:.:.:.:.:.}.P.P.P.P.P.P.P.d o.:.:.:.3.>.o.r 1 >.:.:.:.o.o.>.:.$.>.:.:.:.>.:.:.o.",
">.:.>.:.i.;.3.:.:.:.:.>.:.>.:.>.:.:.>.:.o.o.o.t.:.P.P.P.P.P.P.P.P.d o.:.4.:.>.>.;.^ ;...4.4.3.>.>.>.>.>.>.>.:.:.:.:.o.>.",
":.:.>.4.<.o.:.:.>.:.:.:.:.:.:.:.:.o.:.:.:.:.>.>.:.-X-X-X-X-X-X-X-X-X:.4.4.:.o.4.>.:.4.:.4.h.q.4.4.:.4.:.:.:.:.:.:.:.:.>.",
":.P 2.2.C o.:.:.:.:.o.:.:.>.:.o.:.:.:.:.:.>.:.:.0 -X-X-X-X-X-X-X-X-X:.:.4.4.>.:.:.:.>.>.3.R.U.o.4.:.:.4.o.>.:.:.:.X.:.:.",
"o.,., 9.:.:.o.:.>.>.:.:.:.:.:.>.o.>.:.o.:.O.:.>.-X%X-X-X-X-X-X-X-X-XP.:.>.o.:.>.:.:.:.:.o.:.:.O.a.Q.>.6.:.o.:.>.>.o.>.:.",
":.;.{ 4.:.o.:.>.:.:.>.>.:.:.:.>.o.>.:.:.:.o.o.P..X-X-X-X-X-X-X-X-X-X-X0 o.:.:.:.:.:.:.:.o.| ;.o.*.E.o.:.:.o.:.>.>.>.>.:.",
":.3.>.>.4.>.:.>.:.>.o.o.>.<.o.:.f.q.6.:.:.:.q -X-X-X-X-X-X-X-X-X-X-X-X%X:.:.:.:.2.:.q.2.>.>.3.:...<.>.:.>.4.o.:.>.>.~ >.",
">.4.o.:.o.>.:.>.o.:.r O.8 ..>.o.f.-.o.:.:.o. X-X-X-X-X-X-X-X-X-X-X-X-X-Xp :.:.:.X.e.k.@Xo.:.:.:.o.>.>.>.:.:.F :.:.| v 2.",
":.6.3.:.:.:.:.>.>.X.o.) n ;.>.>.,.:.3.:.:.:.-X-X-X-X-X-X-X-X-X-X-X-X-X-X=Xo.:.:.:.o.U...:.:.:.o.>.>.o.>.>.:.:.:.:.:.:.:.",
":.>.>.>.4.:.:.:.>.:.J :.:.o.h.<.o.:.o.:.>.# -X-X-X-X-X-X-X-X-X-X-X-X-X-X-XF >.>.:.>.+X:.:.o.:.:.:.o.:.:.:.:.>.#X5.:.:.:.",
":.:.:.>.:.o.o.>.:.>.4.o.o.3.(./.o.:.F o.:.J.-X-X-X-X-X-X-X-X-X-X-X-X-X-X-X: ) h o.6.!./.:.:.3.>.,.Q.U.o.:.4.e.!.W.:.:.:.",
":.:.I >.;.~ >.>.:.4.:.:.:.:...>.:.:.7.o.:. X-X-X-X-X-X-X-X-X-X-X-X-X-X-X-X= h ;...o.I :.:.:.:.:.O.Y.[ :. .>.4.$.:.:.:.:.",
":.:.' 6 5  .o.>.:.:.:.:.:.:.o.o.:.:.!._.:.%X-X-X-X-X-X-X-X-X-X-X-X-X-X-X-Xu X.:.>.:.o.:.>.:.:.O.;.C :.x { :.>.>.>.:.>.>.",
">.;.:.> I  .:.:.>.F >.:.:.>.:.:.:.o.).P o.H.].[.[.[.}.[.{.{.{.}.}.}.|.$X*Xw +.4.4.3.:.:.>.:.>.:.o.o.2 f <...>.:.:.o.o.:.",
":.:...o.:.>.4.4.:.:.>.:.:.:.:.o.>.o...o.4.Z.D.a . D.s m.. @ s D.o t D.D.D.= 3.+.>.:.:.:.:.:.:.:.o.%.Q X.:.>.:.>.1. .M ) ",
">.4.4.3.>.>.>.>.:.:.:.:.:.>.:.A >.>.x ' ~ S.D..   m.  B.  w c.D.o t   n.C.* >.o.:.:.:.>.>.:.>.4.>.>.>.>.:.:.:.>.,.r m ,.",
">.4.:.:.>.:.:.:.:.:.:.>.4.4.>.4.4.:.:.3 [ S.D.  . b.  w   e c.A.X   D.D.D.* :.<.>.o.:.:.:.4.:.>.>.>.l.:.:.>.:.>.:./ :.:.",
":.:.:.:.>.:.:.:.>.o.o.:.:.:.>.>.>.:.:.I :.F.D.  y   w +   e v.m.X @   A.D.& :.:.:.>.>.>.:.:.:.>.:.:.:.:.X.o.:.S O.o.:.:.",
":.:.:.:.:.:.:.:.>.>., :.:.:.:.:.X.>.:.:.:.F.D.  C.v.M.O   e     o s D.A.C.@ :.:.o.:.>.>.o.:.>.X.o.>.>.:.1.C G 9.o.:.:.:.",
">.>.4.>.:.>.>.S _ l o.o.4.>.:.:.>.>.>.:.>.H.C.m.D.C.D.C.A.D.D.C.D.D.D.C.D.# 4.g.>.>.>.>.{ 4.) b :.:.X.>.X.T K 8.%.:.:.:.",
">.:.:.>.>.:.>.%.4  .I o.:.>.:.:.>.:.s.3.:.L.-X-X-X-X-X-X-X-X-X-X-X-X-X-X-X% /.@.W.B o.o.o.l < o.>.X.>.X.<.] o.>.:.:.:.:.",
":.>.:.2.:.>.:.:.;.:.:.:.:.:.>.f >.:.:.:.>.L.-X-X-X-X-X-X-X-X-X-X-X-X-X-X-X% :.I.:.:.:.:.%._ :.:.:.:.r.:.:.>.>.>.:.:.:.:.",
":.:.4.:.:.4.:.:.:.4.>.>.[ ) S 2.:.:.:.:.4.K.-X-X-X-X-X-X-X-X-X-X-X-X-X-X-X% h 2.:.:.:.:.:.:.:.:.:.o.o.>.<.:.:.>.:.>.:.4.",
">.>.:.:.o.>.:.:.:.4.>.o.%.9 L %.;.3.:.4.o.J.-X-X-X-X-X-X-X-X-X-X-X-X-X-X-X$ ! ;.4.:.4.:.4.:.:.:.o.` :.Q m :.>.:.:.>.:...",
">.:.:.:.:.:.>.>.>.>.o.>.;.I o.:.:.:.:.7.4.J.-X-X-X-X-X-X-X-X-X-X-X-X-X-X-X: $.>.:.:.:.:.:.:.:.:.>.X.3 k ;.X.:.>.4.>.:.:.",
":.o.:.4.:.4.:.:.o.o.>.o.>.:.:.:.:.o.:.3.:.G.-X-X-X-X-X-X-X-X-X-X-X-X=X.X-XN :.:.:.:.:.:. .>.:.:.:.&.{ o.:.:.:.o.>.o.W.:.",
":.:.:.>.:.>.>.:.>.,.o.9.6 :.:.:.:.:.o.>.>.:.G..X=X-X-X-X-X-X-X-X-X-X=X.Xi >.:.4.4.:.4.o.o.:.3.:.o.X.:.o.:.:.:.>.o.o.~.#X",
":.o.:.4.o.+.o.:.>.I 9 9 X.X.:.:.3.:.:.:.:.:.:.4.:.:.:.:.F F | :.:.:.;.3.:.:.:.:.:.:.4.>.:.:.>.:.:.P :.o.:.o.:.:.:.:.5.:.",
":.o.D >.m ` :.:.o.%.T  .%.7.:.:.e.<.:.:.:.:.t.3.:.4.:.:.:.:.:.>.o.:.>.:.:.:.>.>.>.>.>.:.:.>.>.:.o.:.:.:.:.:.:.o.>.>.4.:.",
":.>.>.- 5 %.>.:.#XX.X.:.o.:.o.:.'.&X>.>.>.:.4.:.:.>.:.:.>.:.:.:.>.:.:.:.:.:.o.:.:.>.:.O.>.>.>.:.>.>.:.:.:.:.:.>.8.I o.o.",
":.o.:.g  .:.:.g.x.g.o.:.5.^.d.:.-. .:.:.>.:.>.>.:.o.:.:.:.o.:.:.>.:.:.:.:.:.:.:.:.>.:.:.>.:.:.>.:.:.:.:.3.>.k 2.<  .p.:.",
":.:.:.:.>.:.:.:.$.6.&X:.;.XX$.5...O.:.:.o.:.>.>.>.>.:.:.:.o.o.:.:.o.:.:.3.:.:.>.:.:.o.>.o.:.:.:.:.:.6.h.>. .L 9.$.<.~.#X",
":.>.:.:.:.:.>.g.:.i.~.0.4.n 5.k ) 4.o.(.,.:.>.:.:.>.:.4.:.t.:.:.4.:.:.:.>.o.:.:.:.>.:.:.:.o.:.4.4.>.f.T.4.>.;.>.4.;.u.%.",
":.:.>.:.:.>.:.~.&XX.I :.:.:.Y > X.o.).@.W.o.o.:.>.>.:.>.:.:.:.:.:.>.>.:.:.>.>.:.:.:.:.:.>.>.>.>.:.:.>.;.4.O.>.>.o.:.:.:.",
":.o.:.4.6.:.6.w.:.o.:.o.<. ./ ;.:.o.:.i.X.o.3.:.4.:.:.:.:.:.:.>.:.W 4.f G >.4.:.:.:.:.o.>.>.>.H O.^ S :.4.>.o.>.:.:.:.4.",
"o.:.>.>.:.>.o.o.:.4.B o.:.`.w.:.o.B O.>.>.:.:.:.:.>.;.4.4.:.>.>.:.o.U 1 <.:.:.4.:.>.>.>.:.:.>.>.3 Z ;.:.:.>.:.>.:.:.:.:.",
":.:.>.>.2.>.>.m >.>.o.>.5._.w.o.:.>.o.4.:.>.>.:.>.4.%.:.4.:.o.<.4. ./ X.;.>.>.>.:.o.:.>.:.:.>...C :.;.>.:.:.o.:.:.&.:.:.",
":.:.o.o.l [ 2 X.:.>.:.:.>.I :.<.L >.<.>.>.6.6.>.:.>.:.:.>.o.>.;.:.>.>.:.:.3.>.:.:.:.:.:.:.:.;.:.>.>.o.:.>.:.:.:.:.>.>.>.",
":.:.:.:.>.E ] ;.4.>.:.:.>.j >., >.>.>.:.>.>.o.3.:.>.:.>., :., >.:.:.:.:.:.:.:.:.o.4.>.3.:.:. .:.3.o.:.:.>.>.>.:.4.o.! :.",
"o.:.o.>.| ..:.:.>.:.>.>.>.:.Y 7 ;.:.:.>.>.>.:.:.:.4.o.:.;.M 7 | :.:.>.>.:.:.:.:.X.:. .:.:.:.X.:.j.:.:.:.:.;.X.:.:.<.v ,.",
":.>.>.o.:.:.>.:.:.4.>.o.>.I P X.:.:.:.:.>.:.:.:.:.>.>.:.$.I X.:.:.o.o.B o.:.:.4.:.o.o.:.:.X.:.:.:.:.:.:.:.X.>.:.3.o.L >."
};
