/* XPM */
static char *milk[] = {
/* columns rows colors chars-per-pixel */
"30 64 190 2",
"   c #000000",
".  c #05070A",
"X  c #06090D",
"o  c #090607",
"O  c #0A0709",
"+  c #0B0A0C",
"@  c #0A0D11",
"#  c #001119",
"$  c #0C1117",
"%  c #0D1319",
"&  c #0F181F",
"*  c #100D0E",
"=  c #120F11",
"-  c #141213",
";  c #10171F",
":  c #10181E",
">  c #191617",
",  c #1C1719",
"<  c #1C1B1B",
"1  c #131C24",
"2  c #15212A",
"3  c #18222C",
"4  c #192732",
"5  c #1B2A34",
"6  c #1D2C38",
"7  c #1F313E",
"8  c #201D1D",
"9  c #262425",
"0  c #292626",
"q  c #2A2729",
"w  c #2C2A2B",
"e  c #20323E",
"r  c #302C2D",
"t  c #353232",
"y  c #383433",
"u  c #393738",
"i  c #3B3A3B",
"p  c #1F3240",
"a  c #223644",
"s  c #223847",
"d  c #243A49",
"f  c #283F4F",
"g  c #313A42",
"h  c #353E49",
"j  c #3B3E45",
"k  c #28404F",
"l  c #2B4353",
"z  c #2F4759",
"x  c #2E495C",
"c  c #3D454B",
"v  c #344655",
"b  c #354856",
"n  c #314A5C",
"m  c #384756",
"M  c #3C465A",
"N  c #3A495A",
"B  c #304E62",
"V  c #325164",
"C  c #345469",
"Z  c #37596E",
"A  c #3F5567",
"S  c #385C72",
"D  c #3F6075",
"F  c #3D647C",
"G  c #413E3F",
"H  c #45413C",
"J  c #454343",
"K  c #40474D",
"L  c #464B4E",
"P  c #484446",
"I  c #4B474B",
"U  c #4B4A4B",
"Y  c #424752",
"T  c #464B50",
"R  c #404A5F",
"E  c #484C50",
"W  c #50474D",
"Q  c #514F4F",
"!  c #5B4D4B",
"~  c #545253",
"^  c #585657",
"/  c #585758",
"(  c #5B595A",
")  c #505D66",
"_  c #605655",
"`  c #625F60",
"'  c #656464",
"]  c #666A6E",
"[  c #686264",
"{  c #6B6A6B",
"}  c #6E706D",
"|  c #706E6F",
" . c #706E70",
".. c #747373",
"X. c #7C7B7C",
"o. c #3F6A82",
"O. c #416A84",
"+. c #486D84",
"@. c #45728D",
"#. c #48738E",
"$. c #477591",
"%. c #477A97",
"&. c #477A98",
"*. c #497690",
"=. c #487A96",
"-. c #4A7C9A",
";. c #527D97",
":. c #567F98",
">. c #4D819F",
",. c #55819B",
"<. c #5B8197",
"1. c #5B8299",
"2. c #4C82A1",
"3. c #5184A1",
"4. c #5C8BA6",
"5. c #648DA6",
"6. c #648FA8",
"7. c #6491AB",
"8. c #6993AD",
"9. c #6C97B0",
"0. c #6E99B1",
"q. c #7096AD",
"w. c #749CB2",
"e. c #789FB4",
"r. c #7AA1B6",
"t. c #7DA4B9",
"y. c #BF3C75",
"u. c #844F3B",
"i. c #8C5B42",
"p. c #8D5959",
"a. c #905346",
"s. c #936147",
"d. c #9B605A",
"f. c #857A77",
"g. c #807F7F",
"h. c #A3585B",
"j. c #AE4264",
"k. c #AD516D",
"l. c #AF615A",
"z. c #B06960",
"x. c #C45E66",
"c. c #CA6D7E",
"v. c #997B8F",
"b. c #DA5F93",
"n. c #AD8C7D",
"m. c #858282",
"M. c #8B8A8A",
"N. c #928F8F",
"B. c #998690",
"V. c #949393",
"C. c #969A9C",
"Z. c #9B9B9B",
"A. c #81A6BA",
"S. c #A49E9F",
"D. c #A4A3A4",
"F. c #A8A7A7",
"G. c #A0AEB6",
"H. c #ADAFB2",
"J. c #B4B3B3",
"K. c #B7BABD",
"L. c #BDBDBD",
"P. c #B3C9D4",
"I. c #B9CDD7",
"U. c #BACFD9",
"Y. c #BDD1DB",
"T. c #E5AD99",
"R. c #C5C4C4",
"E. c #C7C4C9",
"W. c #CCCBCB",
"Q. c #C4D5DE",
"!. c #C9D0D4",
"~. c #C8D6DD",
"^. c #C9D8DF",
"/. c #DBCBCB",
"(. c #D3D3D3",
"). c #DBDBDB",
"_. c #C5D7E0",
"`. c #DFE0E1",
"'. c #DFE8ED",
"]. c #E3E3E3",
"[. c #E2EBEE",
"{. c #ECECEC",
"}. c #E6EDF0",
"|. c #E8EFF1",
" X c #EDF2F4",
".X c #F4F4F5",
"XX c #F5F7F8",
"oX c #F6F9F9",
"OX c #FEFEFE",
"+X c None",
/* pixels */
"+X+X+X+X+X+X+X+X+X+X+X+X+X+X+X+X+X+X+X+X+X+X+X+X+X+X+X+X+X+X",
"+X+X+X+X+X+X+X+X+X+X+X+X+X+X+X+X+X+X+X+X+X+X+X+X+X+X+X+X+X+X",
"+X+X+X+X+X+X+X+X+X+X+X+X+X+X+X+X+X+X+X+X+X+X+X+X+X+X+X+X+X+X",
"+X+X+X+X+X+X+X+X+X+X+X+X+X+X+X+X+X+X+X+X+X+X+X+X+X+X+X+X+X+X",
"+X+X+X+X+X+X+X+X+X+X+X+X+X+X+X+X+X+X+X+X+X+X+X+X+X+X+X+X+X+X",
"+X+X+X+X+X+X+X+X+X+X+X+X+X+X+X+X+X+X+X+X+X+X+X+X+X+X+X+X+X+X",
"+X+X+X+X+X+X+X+X+X+X+X+X+X+X+X+X+X+X+X+X+X+X+X+X+X+X+X+X+X+X",
"+X+X+X+X+X+Xh.p.z.x.l.y.h.s.i.j.b.k.i.u.u.b.+X+X+X+X+X+X+X+X",
"+X+X+X+X+Xj m N N N R M m m m M M M N b N Y f.+X+X+X+X+X+X+X",
"+X+X+X+Xd.h #.&.=.=.=.=.=.=.=.=.=.=.&.&.=.A ^ +X+X+X+X+X+X+X",
"+X+X+X+Xn.g D 4.7.6.6.6.6.5.5.5.5.5.5.5.+.m ! +X+X+X+X+X+X+X",
"+X+X+X+X+Xw i C.L.K.K.K.K.K.K.K.K.K.K.H.L - OX+X+X+X+X+X+X+X",
"+X+X+X+X+X+XP V.R.L.L.L.L.L.L.L.L.L.L.J.U   +X+X+X+X+X+X+X+X",
"+X+X+X+X+X+XU D.L.L.L.L.L.L.L.L.L.L.L.J.~   +X+X+X+X+X+X+X+X",
"+X+X+X+X+X  ^ W.].].].).).).).).).).).(...+ +X+X+X+X+X+X+X+X",
"+X+X+X+X+X  | .XOXOXOXOXOXOXOXOXOXOXOXOXF.q +X+X+X+X+X+X+X+X",
"+X+X+X+X+Xr D.OXOXOXOXOXOXOXOXOXOXOXOXOX(.~ +X+X+X+X+X+X+X+X",
"+X+X+X+X, ( ).{.oXOXOXOXOXOXOXOXOXOXOXOX.Xm.0 +X+X+X+X+X+X+X",
"+X+X+X+Xy F.{.{.OXOXOXOXOXOXOXOXOXOXOXOXOXR.P > +X+X+X+X+X+X",
"+X+X+X0 ..].{.oXOXOXOXOXOXOXOXOXOXOXOXOXOXoXV.u +X+X+X+X+X+X",
"+X+X  ~ R.{.oXOXOXOXOXOXOXOXOXOXOXOXOXOXOXOX].{ < +X+X+X+X+X",
"+X+Xw V..X{.OXOXOXOXOXOXOXOXOXOXOXOXOXOXOXOXOXJ.G +X+X+X+X+X",
"+X0 ^ (.oXOXOXOXOXOXOXOXOXOXOXOXOXOXOXOXOXOXOX{.X.r +X+X+X+X",
"+Xt V.OXOXOXOXOXOXOXOXOXOXOXOXOXOXOXOXOXOXOXOXOXR.G +X+X+X+X",
"+XQ W.OXOXOXOXOXOXOXOXOXOXOXOXOXOXOXOXOXOXOXOXOX{.' o +X+X+X",
"- { {.OXOXOXOXOXOXOXOXOXOXOXOXOXOXOXOXOXOXOXOXOXoXN.q +X+X+X",
"w V.OXOXOXOXOXOXOXOXOXOXOXOXOXOXOXOXOXOXOXOXOXOXOXK.J +X+X+X",
"u J.OXOXOXOXOXOXOXOXOXOXOXOXOXOXOXOXOXOXOXOXOXOXOX).^ 9 +X+X",
"U W.OXOXOXOXOXOXOXOXOXOXOXOXOXOXOXOXOXOXOXOXOXOXOX{.'   +X+X",
"~ ).OXOXOXOXOXOXOXOXOXOXOXOXOXOXOXOXOXOXOXOXOXOXOXoX..  +X+X",
"/ ].OXOXOXOXOXOXOXOXOXOXOXOXOXOXOXOXOXOXOXOXOXOXOXoXf.  +X+X",
"/ ].OXOXOXOXOXOXOXOXOXOXOXOXOXOXOXOXOXOXOXOXOXOXOXoXn.  +X+X",
"/ !.'.'.[.}.}.}.|.|.|.|. X X.X.XXXXXXXXXXXXXXXOXOXoXX.  +X+X",
"c 1.4.4.4.5.4.7.7.7.9.9.0.w.8.w.w.w.w.w.r.r.r.t.t.A.)   +X+X",
"c ,.>.>.x 4 F 2.O.C $.F x S 3 S 2.2.C p @.-.O.&.>.>.N   +X+X",
"T :.>.>.4   k 3.a . C k @ n . C 2.2.s X o.B $ V 2.>.N   +X+X",
"T :.>.=.1   2 #.1   l l X n X B 2.2.p X 7 X 7 *.2.2.b   +X+X",
"T :.2.@.$ o X l @   7 l X n . B 2.2.d   . l &.2.>.>.m   +X+X",
"T 1.2.o.X 6 X @ . o 4 l X z . B 2.2.p . X x -.2.2.>.b   +X+X",
"T 1.2.Z . V 1   1 1 2 l X z . B 3.2.p . 3 + 6 o.2.>.b   +X+X",
"L 1.2.B X F l % n 5 : k X l . a F F p X O.C 1 n >.>.z   +X+X",
"L <.>.s @ @.-.$.-.e : n 1 n 1 $ % 4 a 1 @.2.=.-.>.>.l   +X+X",
"L <.>.F Z &.>.2.>.O.F =.@.=.*.@.$.$.=.*.>.3.3.3.3.,.v   +X+X",
"U G.P.P.P.P.P.I.I.U.U.Y.U.Q.U.Q.Y._._._.^.^.^.^.^.~.]   +X+X",
"U (.OXOXOXOXOXOXOXOXOXOXOXOXOXOXOXOXOXOXOXOXOXOXOXoX..  +X+X",
"I W.OXOXOXOXOXOXOXOXOXOXOXOXOXOXOXOXOXOXOXOXOXOXOXoX..  +X+X",
"I E.OXOXOXOXOXOXOXOXOXOXOXOXOXOXOXOXOXOXOXOXOXOXOXoX{   +X+X",
"I R.OXOXOXOXOXOXOXOXOXOXOXOXOXOXOXOXOXOXOXOXOXOXOXXX{   +X+X",
"I R.OXOXOXOXOXOXOXOXOXOXOXOXOXOXOXOXOXOXOXOXOXOX.X.X[   +X+X",
"P R.OXOXOXOXOXOXOXOXOXOXOXOXOXOXOXOXOXOXOXOXOXoX{.{.'   +X+X",
"G R.OXOXOXOXOXOXOXOXOXOXOXOXOXOXOXOXOXOXOXOXOXoX{.{.{ 8 +X+X",
"G R.OXOXOXOXOXOXOXOXOXOXOXOXOXOXOXOXOXOXOXOXoX{..X].' 9 +X+X",
"t Z.oXOXOXOXOXOXOXOXOXOXOXOXOXOXOXOXOXOX{.{.{..XOXL.I +X+X+X",
"  ~ D.(.{..XoXOXOXOXOXOXOXOXOXOXOXOXOXOX.X{.{.].L.' 0 +X+X+X",
"+Xr I ( ..M.Z.J.L.E.W.(.(.(.(.(.W.R.P.J.D.N.X.[ Q t +X+X+X+X",
"+X+X+Xo   - w G Q ( ` ' ' ` ' ' ` ~ ! G w <     +X+X+X+X+X+X",
"+X+X+X+X+X+X+X+X+X+X+X+X+X+X+X+X+X+X+X+X+X+X+X+X+X+X+X+X+X+X",
"+X+X+X+X+X+X+X+X+X+X+X+X+X+X+X+X+X+X+X+X+X+X+X+X+X+X+X+X+X+X",
"+X+X+X+X+X+X+X+X+X+X+X+X+X+X+X+X+X+X+X+X+X+X+X+X+X+X+X+X+X+X",
"+X+X+X+X+X+X+X+X+X+X+X+X+X+X+X+X+X+X+X+X+X+X+X+X+X+X+X+X+X+X",
"+X+X+X+X+X+X+X+X+X+X+X+X+X+X+X+X+X+X+X+X+X+X+X+X+X+X+X+X+X+X",
"+X+X+X+X+X+X+X+X+X+X+X+X+X+X+X+X+X+X+X+X+X+X+X+X+X+X+X+X+X+X",
"+X+X+X+X+X+X+X+X+X+X+X+X+X+X+X+X+X+X+X+X+X+X+X+X+X+X+X+X+X+X",
"+X+X+X+X+X+X+X+X+X+X+X+X+X+X+X+X+X+X+X+X+X+X+X+X+X+X+X+X+X+X"
};
