/* XPM */
static char *collectable[] = {
/* columns rows colors chars-per-pixel */
"60 60 256 2",
"   c #3B3799",
".  c #3648AA",
"X  c #3644A3",
"o  c #3B5CA4",
"O  c #3461B7",
"+  c #3563B9",
"@  c #3965BC",
"#  c #3D70C0",
"$  c #3A79CE",
"%  c #3973C8",
"&  c #532CB8",
"*  c #5B3FBF",
"=  c #5931C5",
"-  c #5F37CB",
";  c #5C38F1",
":  c #643BCD",
">  c #613BD5",
",  c #465C9B",
"<  c #4149B6",
"1  c #424EBA",
"2  c #4450BB",
"3  c #5445AC",
"4  c #4064A7",
"5  c #4764B5",
"6  c #5D73AF",
"7  c #5A73B7",
"8  c #5B74BB",
"9  c #6C61B9",
"0  c #6B75B5",
"q  c #7D6BAF",
"w  c #7C65B3",
"e  c #7E6AB4",
"r  c #7975BA",
"t  c #5C57C5",
"y  c #4574C3",
"u  c #407FC9",
"i  c #4974C5",
"p  c #4875C9",
"a  c #4B7BC6",
"s  c #674DD2",
"d  c #6943DA",
"f  c #6E5FC3",
"g  c #6756DB",
"h  c #7B5CC4",
"j  c #6645ED",
"k  c #6141F2",
"l  c #7449E6",
"z  c #7549E9",
"x  c #7357EB",
"c  c #775CF6",
"v  c #7A5EF7",
"b  c #6F66DF",
"n  c #6169D3",
"m  c #7D61C5",
"M  c #6E65E1",
"N  c #7A63EB",
"B  c #7C62FA",
"V  c #3D89DF",
"C  c #3C82D2",
"Z  c #3E8CE1",
"A  c #3F98ED",
"S  c #3E9DF5",
"D  c #3FA0F7",
"F  c #3FA1F8",
"G  c #7C91B6",
"H  c #788AB6",
"J  c #4081CD",
"K  c #4C91D9",
"L  c #4196EB",
"P  c #4399EE",
"I  c #409FF6",
"U  c #419FF8",
"Y  c #59A2DE",
"T  c #4FA2E7",
"R  c #4EA4EE",
"E  c #41A0F7",
"W  c #44A4FB",
"Q  c #47A8FE",
"!  c #48A7FE",
"~  c #4CABFD",
"^  c #4BA3F1",
"/  c #55A8EC",
"(  c #5AA6E5",
")  c #52ABF6",
"_  c #51AFFC",
"`  c #5BAFF2",
"'  c #54B1FD",
"]  c #58B6FD",
"[  c #5CB0F3",
"{  c #719EC4",
"}  c #7791EF",
"|  c #76AECC",
" . c #7DA5CA",
".. c #73B6DD",
"X. c #7CB9DA",
"o. c #69B6EA",
"O. c #79BCE2",
"+. c #806BB4",
"@. c #8E7FBC",
"#. c #9274BF",
"$. c #855ADB",
"%. c #845BEB",
"&. c #8264C8",
"*. c #877FCF",
"=. c #8A7CC0",
"-. c #8A69E7",
";. c #8069EB",
":. c #866DF5",
">. c #896EF7",
",. c #8163F5",
"<. c #8C74ED",
"1. c #8971F6",
"2. c #8C70F9",
"3. c #906FF4",
"4. c #9170F1",
"5. c #AE7FF3",
"6. c #8F81BC",
"7. c #8D88BE",
"8. c #8095BE",
"9. c #8D94C2",
"0. c #9880C3",
"q. c #9985CE",
"w. c #9D89D3",
"e. c #898DF8",
"r. c #8E92ED",
"t. c #8A94FA",
"y. c #8B9DFA",
"u. c #9B89E3",
"i. c #9C9AE4",
"p. c #9BABCA",
"a. c #93AAC9",
"s. c #8FACEB",
"d. c #8EA4F8",
"f. c #8EAAF9",
"g. c #8DBCF9",
"h. c #95ABED",
"j. c #99ADF6",
"k. c #97A3F5",
"l. c #96B1F4",
"z. c #90BDF6",
"x. c #AE85DF",
"c. c #A18BD9",
"v. c #A199C4",
"b. c #AD90D0",
"n. c #B087DF",
"m. c #B88FD7",
"M. c #B98BDF",
"N. c #B18ADD",
"B. c #B696D2",
"V. c #B499D2",
"C. c #B895D1",
"Z. c #A18EEE",
"A. c #AD85E0",
"S. c #A38CE0",
"D. c #A292E5",
"F. c #AE95E7",
"G. c #A699F1",
"H. c #B288E1",
"J. c #BC8CEE",
"K. c #B38AF2",
"L. c #B393E5",
"P. c #AFA6C7",
"I. c #A5A1D5",
"U. c #AEAFDD",
"Y. c #BFA4D6",
"T. c #B6ACD6",
"R. c #B4B9DE",
"E. c #A1B3F4",
"W. c #BDA9EC",
"Q. c #B5A7E7",
"!. c #BBA9F6",
"~. c #B6D4B8",
"^. c #8FC3CE",
"/. c #93C7D3",
"(. c #95C0F9",
"). c #9EC8FC",
"_. c #9CC4F9",
"`. c #A2CDC4",
"'. c #A7CFCB",
"]. c #A8CEC2",
"[. c #A5D0C4",
"{. c #A6D1CE",
"}. c #AAD1C3",
"|. c #BACBD9",
" X c #B3D6C2",
".X c #A3C4E0",
"XX c #A0C8F4",
"oX c #A3CBFB",
"OX c #ACCEF5",
"+X c #A5C8F9",
"@X c #ADD1F6",
"#X c #AED1F8",
"$X c #BCC6EF",
"%X c #BECDF8",
"&X c #B5D4F3",
"*X c #B6D6F8",
"=X c #BAD7F7",
"-X c #BBD7F9",
";X c #BDDBF5",
":X c #A6F3F6",
">X c #A6F2F8",
",X c #A8F3F7",
"<X c #B4EDF4",
"1X c #BFE0F5",
"2X c #B4F6F8",
"3X c #B4F2F6",
"4X c #C396F2",
"5X c #CC9BF5",
"6X c #D094F9",
"7X c #C3B4D4",
"8X c #C4A2EF",
"9X c #C1AFE0",
"0X c #C7A8F0",
"qX c #C4BAE8",
"wX c #D5A5F3",
"eX c #DEBEF0",
"rX c #C5C1EA",
"tX c #C1CCF6",
"yX c #C0DDE7",
"uX c #C4DFED",
"iX c #C4DCF4",
"pX c #C0DDF9",
"aX c #CBDFF4",
"sX c #D7CBE9",
"dX c #DEC2EE",
"fX c #D2CBE1",
"gX c #DBD1EA",
"hX c #DFD2F0",
"jX c #C4E1EE",
"kX c #C0E0F7",
"lX c #C6E1F9",
"zX c #C1E8F6",
"xX c #C6EBFB",
"cX c #CBE3F4",
"vX c #CBE4F9",
"bX c #CCEFF3",
"nX c #CCEBF8",
"mX c #C1F4F6",
"MX c #CCF2FB",
"NX c #C6FCFC",
"BX c #D5E3F5",
"VX c #D6E8F5",
"CX c #D4EFFB",
"ZX c #DBEBF5",
"AX c #DFEEF9",
"SX c #D7F2F6",
"DX c #D3F7F9",
"FX c #D4FDFC",
"GX c #D9FDFD",
"HX c #E1C1F5",
"JX c #E1C9F1",
"KX c #E6D0F1",
"LX c #EBDAF3",
"PX c #E1F3F7",
"IX c #E2F3F9",
"UX c #E2FDFD",
/* pixels */
"E E E E U U I I I S S S U S S S S S S S S S S S S S S S S S S S A S S S S S A S S S S V S S S V S S S S S S S S A S S S ",
"E E E U U U I I I U U S S U S S S S S S S S S S S S S S A S S A A S A S S A S A S S S S S S S S S S S S S V S S A A S S ",
"W E E E E E U I I I S I S S S I S S S S S S S S S S I S S S S S S S S S S A S S S S S S V S S S S S V S V S S S S S S A ",
"E E W E E E I I I I I S I I I S S S S S S S S S S S S S S S S S S S S A S S S S S S S S S S S S S S S S S S S S S S S A ",
"U U I I E U U U E E E I I I I S U S S S S S S S S S S S S S S A S S S S S S S S S S S S S S S S S S S S S S S S S S S S ",
"W U U W E W U U I I E U S S I I S U U S S I S S S S S S S S S S S S S S S S S S S S S V S S S S S S V S S S S S S S S S ",
"W W W W W U U U I I I I S E E S S U S S S S S S S S S S S S S S S A S S S S S S S S S S S S S S S S S S S S S S S S S S ",
"I W W U U U U U I I F I I S S E U S S S S S S S S S S S S S A S S S S A A S S S S S S S S S S V S S S S S S S S S S S S ",
"W W I W I W I I W I W I F S E I F S S S D S S S S S S S D S S S S D S S S A S S S S A D S S S S S S S S S S S S S S S S ",
"W I W I W I W I I I I I I F S S S S S S S S S S S S S S D S S S S S S S S S S A S S D A S S S S S S S S S S S S S S S S ",
"W I I I I W I W W I I U I F S F F S D S S D S S S S S S S S S S S S A S S S S S S S S S S S S S S S S S S S S S S S S S ",
"W W W W W I W I I W I W I F I F S F S D S S S S S S S S S S S S S S D S S S S S S S S S S S S S S S S S S S S S S S S S ",
"W W W W W W I W W I I I I I F F F S F S D D D S D D S S S S S S A S S S S S D S S S S S S S S S S S S S S S S S S S S S ",
"I W W U W W I W U I W I E E F F F S S F S D D S S S S S S S S S S S S S S S S S S S S S S S S S S S S S S S S S S S S S ",
"W W W W I I W I U W I I E E E F D F F F D S S S S D S S S S S S S S S S S S S D S S S S S S S S S S S S S S S S S S S S ",
"W W W W W W W W W W W I E E E E D F F S S S S D S S S D S S S S S S S S S S S S S S S S S S S S S S S S S S S S S S S S ",
"W Q W W W W W W E W E F E F E F D F F D S D S S D S S S E S S S S S S S S S S S S S S S S S S S S S S I S I I I S S S F ",
"W W W W W W W F W E W W W F W F D S D D E D D S D S E E S S A E S I I S S S S S S S S S S S S S S I S S I I S S U U U S ",
"Q W W W W W W W W F F F F E E E F D D D D S E E S D D S E S E S S S S S S S S S S S F S S S F S I S S F S I I S I I S E ",
"W W W W W W W W E W W E F W F W F F D D E S E E D S S E S E A E U S S I F S R ^.E F S S S F S S S F S F I S I S I I E S ",
"W W W W Q W W W W W F W W F E E F F F F F F E E F S D D E E S E S I S S I / X.}.../ F S F S S I I S I I U F I F U F F I ",
"W Q W W W W W W W W W E E W W F F F F F W F E E F F F F E S F S F F E U I X.}.'.[...S S F S I S I I I I S F I E U I E E ",
"Q W Q W W W W W W W W W W E F W F ^ F F W E E E I A + O + O O O + + O $ S I / ~.R F S F S S I F I I I I E U E E E E E E ",
"W W Q W Q W W W W W W W W E W E F F F F W E E A @ o  . . .a.p.p.p.p.p.8.o $ R [.^ S F S F S I I E I E I E E W E E E E E ",
"Q Q W W W W W Q W W Q W W W W F W U U U W U J , 9..X,XNXNXGXUXGXFXGXFXSX|.0 . K W I I I I I I I U I E E E E E W E W E E ",
"Q W Q W Q W W W W W W W W W W W W W U W U J G yX3XMXxXbXMXDXDXFXGXUXUXIXAXi.g . V I I I U I I W E E E E W E E E F W W F ",
"Q Q Q Q Q W W W W Q W W W W W W U W W U u G uXMX2X,XBXtX%XpXvXvXvXaXBXZX@Xj.t.M 1 K I I W I U U E E U E E W W E E E W E ",
"Q Q Q W W Q W Q W W Q W W W Q W W W W u G uXnXmX:X3XVXz.g.g.g.g.z._.OXZX@Xl.t.t.M . L E E I E E E E W E E E E W W E F F ",
"Q Q Q Q Q W W Q W W W W Q W Q Q W S $ H jXvXNX2X:XmXOX(.&X&XoX_.+XoX*XvXlXXXd.y.t.M 1 Z E E U W E F W E W E W E W E W W ",
"Q Q Q Q Q Q Q W W W W Q E Q E E Q K   9.aXCX3X,X3XSX_.oXOXaX&X=X-X=X;XvXVX@Xl.k.t.N & X I E W U W W E E W E E W W E E W ",
"Q Q Q Q Q Q Q W W Q Q W Q W E Q Q L 2 9 =.b.U.zXPXSX@XoX#X*X;XAXAXAXvXvXZX$Xr.s > - - @ S E F W F E F W W F W W W W W W ",
"Q Q Q Q Q Q Q Q Q Q W W Q W Q W W Q % r q.t 9 #.fXcX1X1XkXvXnXnXnXnXnXnXPXq.= : : $.3 V W E W E W W W W E W W W W W W W ",
"Q Q Q ~ Q Q Q Q Q ! ! Q W W Q W W ! L 8 V.f.} n R.6.w e w e +.e +.+.+.w P.c.> j %.&.i I W W I W W W W W W W W W W W W Q ",
"~ ~ ~ Q Q Q Q Q ! ! W ! Q W Q W W W Q L 8 I.j.f.s.T.C.M.H.H.H.H.x.x.x.7Xc.x j z h i W W W W W W W W W W W W W W Q W W W ",
"~ Q Q ~ Q Q Q Q Q Q ! ! Q W Q W Q W W Q S 7 V.!.k.h.hXK.2.1.2.>.,.v <.qXx ; l h i W U W W W U W W W W W W W W W Q W W Q ",
"~ ~ ~ Q ~ Q ~ Q Q Q ! ! ! Q Q Q W Q W W W P 7 V.5XG.rX8X3.Z.1.B v c D.F.j z h y U W W ! W W W W W W Q W W Q W Q W W W W ",
"~ ~ ~ ~ Q ~ Q Q ~ Q ! ! Q Q Q Q Q Q Q W W [ | 7 B.5XW.JXJ.F.1.,.B N qXv %.h y W W W W W W W W ! W W W W W W Q W W W W W ",
"~ ~ ~ ~ Q ~ ~ Q Q Q Q Q ! Q Q Q Q ! W Q ) O.~.( 7 B.wXdXeX4XW.>.v Q.u.-.&.y W W W Q W Q Q W W W Q W Q W W Q W W Q Q Q W ",
"~ ~ Q ~ ~ ~ ~ Q ~ Q ! ! ! ! Q Q Q Q Q Q /. X{.[.Y 6 B.eXKXwX4X3.<.T.S.@.5 W U ! ! W W W W W W Q W W W W Q W W ! Q W Q W ",
"~ ~ ~ ~ ~ ~ ~ ~ ~ ~ ~ Q ! ! Q Q Q Q Q Q Q O.}.~ ~ P 8 B.LXHX6X5.W.W.6.a W Q W W W W W Q W Q W W Q W Q Q W Q W Q W Q Q Q ",
"~ ~ ~ ~ ~ ~ ~ ~ ~ Q ~ ~ Q Q Q Q ~ Q Q Q Q o.[.Q Q Q P 8 7XLX0XL.sXv.i U Q Q Q W Q W E Q Q W Q W Q W ! ! Q Q Q Q Q Q Q Q ",
"~ ' ~ ~ ~ ~ ~ ' ~ ~ Q ~ Q ~ Q ~ Q Q Q Q W _ [ Q ! Q ~ P 7 7XLXgXv.a U Q W E Q Q Q Q Q Q Q W Q Q Q ! Q W W Q Q ! Q Q Q Q ",
"~ ~ ~ ~ ~ ~ _ F ~ ~ ~ ~ Q ~ ~ Q Q Q ~ Q Q Q Q Q Q ! Q Q P 8 ].v.a ^ Q W Q Q Q Q Q Q Q W Q Q Q Q ! ! ! ! ! ! ! ! Q Q Q Q ",
"~ ' ~ ~ ' ~ ~ ~ ~ ~ ~ ~ ~ ~ ~ ~ ~ ~ Q Q Q ~ Q Q ~ Q Q Q Q ^ + u ! Q Q Q Q Q ! ! Q Q Q Q Q Q Q Q ! ! ! ! ! ! ! ! Q Q Q Q ",
"' ' ~ ~ ~ ~ ~ ~ ~ _ ~ ~ ~ ~ ~ ~ ~ ~ Q Q ~ Q Q ~ ! Q ~ ! Q Q Q Q Q Q Q Q ! ! ! ! ! ! Q Q Q Q Q Q ! ! ! ! ! ! ! ~ ~ Q Q ~ ",
"~ ~ ~ ' _ ~ ~ _ _ ~ ~ ~ ~ ~ ~ ~ ~ ~ ~ ~ ~ ~ ~ Q ~ Q ! ~ Q ~ Q Q Q Q ~ Q ~ Q ! ! ! ~ Q Q Q Q ! ! ! ! ~ ! ~ ~ ~ ! Q ~ ~ ! ",
"~ ~ _ ~ ~ _ _ ~ ~ ~ ~ ~ ~ ~ ~ ~ ~ ~ ~ ~ Q ~ Q ~ Q ~ ~ Q ~ Q ~ ~ Q ~ Q Q Q Q Q ! Q Q ~ Q ~ Q ! Q ! ! ~ ! ! ~ ~ ! ! ~ ~ ~ ",
"' ' ' ' _ ~ _ _ ~ _ ~ _ ~ ~ ~ ~ ~ ~ ~ ~ ~ ~ ~ ~ ~ ~ ~ ~ ~ Q ~ ~ ~ Q ~ ~ ~ Q ~ ~ Q ~ Q Q ~ Q ~ Q _ ! ~ ~ ! ~ ~ ! _ ~ ! ~ ",
"' _ ' ' _ ~ ' ~ ' _ ~ ~ ~ ~ _ ~ ~ ~ ~ ~ ~ ~ ~ ~ ~ ~ ~ _ ~ ~ ~ ~ ~ ~ ~ ~ ~ Q ~ ~ ~ ~ ~ ~ ~ ~ ~ ~ ~ F ~ ~ ~ ~ ~ ~ ~ ~ ~ ~ ",
"' ' _ _ _ _ _ _ ~ ~ _ _ _ _ ~ _ ~ ~ ~ ~ ~ ~ ~ _ ~ ~ ~ ~ ~ ~ ~ ~ ~ ~ ~ ~ ~ ~ Q ~ ~ ~ ~ ~ ~ ~ ~ ~ ~ ~ ~ ~ ~ ~ ~ ~ ~ ~ ~ ~ ",
"' ' ' _ _ _ _ _ ~ ' ' ~ ~ ~ ~ ~ _ ~ _ ~ ~ _ ~ ~ ~ ~ ~ ~ ~ ~ ~ _ ~ ~ ~ ~ ~ ~ ~ ~ ~ ~ ~ ~ ~ ~ ~ ~ ~ ~ ~ ~ _ ~ ~ ~ ~ _ _ ~ ",
"' ' ' _ ' ' ] _ ' _ ' ' _ _ _ _ _ ~ ~ _ ] ~ ~ _ ~ ' ~ ~ ~ ~ ~ ~ ~ ~ ~ ~ ~ ~ ~ ~ ~ ~ ~ ~ ~ ~ ~ ~ _ ~ ~ ~ ~ ~ ~ ~ ~ ~ ~ ~ ",
"' ' ' ' ' ' ' ' ' ' ~ ~ _ _ _ ~ _ ~ ~ ~ ~ ~ ] ~ ~ ~ _ ~ ~ ~ ~ ~ ~ ~ _ ~ ~ ~ ~ ~ ~ ~ _ ~ ~ ~ ~ ~ ~ ~ ~ ~ ~ ~ _ ~ ~ _ ~ ~ ",
"] ] ' ' ' ' _ ' ' ' ] ' _ ' ' _ _ ] ~ ] ~ ~ ~ ~ ~ ~ ~ ' ' ~ ' ~ ~ _ ~ ~ _ ~ ~ ~ ~ ~ ~ ~ ~ _ ~ _ _ _ ~ _ _ ~ _ ~ ~ ~ _ ~ ",
"' ' ' ] ] ' _ ' ' ' ' ' _ ' _ ' _ _ ~ ~ ~ ] ] ~ _ _ ~ ' ~ ~ ~ ' _ _ _ ~ _ ~ ' ~ ~ _ ~ ~ ~ _ ~ ~ ~ _ _ ~ _ ~ ~ _ ~ _ _ ~ ",
"' ] ] ' ' ] ' ] ' ' ' ' ' ' ' ' _ _ ] _ _ ~ ] ~ ~ _ ] ~ ~ ] ~ ' ~ _ _ _ ~ _ ~ ' _ _ _ _ ~ _ _ _ ~ _ ~ _ ~ _ ~ _ _ _ ~ _ ",
"] ] ] ' ] ' ' ] ' ' ' ' ' ' ' ' ] ~ ] _ ~ ] ~ ~ ' ~ ] ~ ~ ] ~ ~ _ _ ~ ' _ _ ~ _ _ _ _ _ _ _ ~ _ _ _ ~ ' _ ~ _ _ _ _ _ ~ ",
"] ' ' ] ' ] ] ' ] ' ] ' ' ' ' ' _ ] ~ _ ' ' ] ' ' ' ~ ] ] ~ ] ~ _ _ ' _ _ _ ' ' _ _ ~ _ ' _ _ _ _ _ _ _ _ _ _ _ _ _ _ _ ",
"] ] ] ] ] ' ] ' ] ' ' ] ' ] ' ' ~ ] ] ] ' ' ~ ' ] ~ ] ~ ] ~ ~ ] _ ' _ ' _ _ ' ' _ _ ' _ _ _ _ _ ' _ ' _ ' _ _ ' ' _ ' _ ",
"] ] ] ] ] ] ] ] ] ] ] ' ] ' ] ' ] ] ] ~ ' ] ] ] ] ] ~ ] ~ ] ] ~ ' ' ' _ ' ' ' ' ' ' ' ' ' ' ' ' ' ' _ ' ' ' ' ' ' ' ' ' "
};
