/* XPM */
static char *collectable[] = {
/* columns rows colors chars-per-pixel */
"28 60 201 2",
"   c #000000",
".  c #050709",
"X  c #06090C",
"o  c #0A0A0B",
"O  c #0A0D11",
"+  c #0C1116",
"@  c #0D151B",
"#  c #0F181F",
"$  c #100D0F",
"%  c #141414",
"&  c #10181E",
"*  c #191516",
"=  c #1A1718",
"-  c #1E1B1C",
";  c #131C24",
":  c #16232D",
">  c #172530",
",  c #182732",
"<  c #1A2933",
"1  c #1C2E3A",
"2  c #201A17",
"3  c #211E1E",
"4  c #211F20",
"5  c #252222",
"6  c #282525",
"7  c #282728",
"8  c #2D2A2B",
"9  c #2F3338",
"0  c #312E2E",
"q  c #322F30",
"w  c #343132",
"e  c #383536",
"r  c #3D3A3B",
"t  c #223643",
"y  c #243846",
"u  c #263B4A",
"i  c #2F3941",
"p  c #283D4D",
"a  c #313A41",
"s  c #3B3E44",
"d  c #28404F",
"f  c #2A4454",
"g  c #2A475A",
"h  c #2C495C",
"j  c #324C5D",
"k  c #384A59",
"l  c #2E4D61",
"z  c #304E62",
"x  c #345266",
"c  c #33556A",
"v  c #37596E",
"b  c #3B576A",
"n  c #3F586C",
"m  c #365B72",
"M  c #395D73",
"N  c #3C637B",
"B  c #423F40",
"V  c #4E413F",
"C  c #444343",
"Z  c #4C4A4A",
"A  c #434C54",
"S  c #475058",
"D  c #485156",
"F  c #485158",
"G  c #534B4A",
"H  c #58474E",
"J  c #5C4945",
"K  c #514F50",
"L  c #5F534F",
"P  c #545254",
"I  c #52595F",
"U  c #585557",
"Y  c #585558",
"T  c #5B5A5A",
"R  c #42647B",
"E  c #5D6A72",
"W  c #5B6F7B",
"Q  c #634F4A",
"!  c #6C4D4E",
"~  c #6A4E57",
"^  c #67524D",
"/  c #6D5459",
"(  c #77445E",
")  c #724B5A",
"_  c #7C545C",
"`  c #615F60",
"'  c #7D4462",
"]  c #646364",
"[  c #6A6666",
"{  c #6F6866",
"}  c #6F6D6E",
"|  c #716F70",
" . c #747274",
".. c #7E7D7E",
"X. c #3E6780",
"o. c #3E6881",
"O. c #416C86",
"+. c #44738E",
"@. c #467591",
"#. c #477895",
"$. c #477A99",
"%. c #497895",
"&. c #4A7E9C",
"*. c #557D96",
"=. c #537E98",
"-. c #6B7780",
";. c #4C809E",
":. c #53819D",
">. c #588097",
",. c #5B829A",
"<. c #4D82A1",
"1. c #5786A1",
"2. c #5688A5",
"3. c #5C8AA5",
"4. c #65899F",
"5. c #7D8C95",
"6. c #618DA7",
"7. c #6591AA",
"8. c #6C93AA",
"9. c #7094A9",
"0. c #759CB2",
"q. c #789FB5",
"w. c #7AA2B7",
"e. c #7DA4B9",
"r. c #874E35",
"t. c #8F593D",
"y. c #955B43",
"u. c #9C5B59",
"i. c #894F71",
"p. c #9B6148",
"a. c #806560",
"s. c #8F6076",
"d. c #887C79",
"f. c #AC595B",
"g. c #AF5562",
"h. c #B94667",
"j. c #B15261",
"k. c #A6635C",
"l. c #AA625A",
"z. c #BF625D",
"x. c #A67B6F",
"c. c #C4456F",
"v. c #C76464",
"b. c #817F80",
"n. c #DD5D8F",
"m. c #E56098",
"M. c #EB619D",
"N. c #86827A",
"B. c #B08173",
"V. c #858384",
"C. c #868A8E",
"Z. c #888787",
"A. c #8C8B8C",
"S. c #8F8F90",
"D. c #908E90",
"F. c #949394",
"G. c #989697",
"H. c #9E9D9E",
"J. c #889FAB",
"K. c #8DA9B9",
"L. c #97A6AF",
"P. c #93AFBE",
"I. c #9EACB6",
"U. c #AE8F80",
"Y. c #A29C99",
"T. c #BBA79E",
"R. c #A5A4A4",
"E. c #AFAEAF",
"W. c #A0AFB8",
"Q. c #B3B3B3",
"!. c #BDBDBD",
"~. c #94B3C3",
"^. c #99B6C6",
"/. c #9CB8C7",
"(. c #9EBACA",
"). c #A3BDCB",
"_. c #BFBFC0",
"`. c #BEC8CE",
"'. c #DEB39C",
"]. c #C3C2C2",
"[. c #C6C7C8",
"{. c #C8C7C8",
"}. c #CCC8C7",
"|. c #CAC9CA",
" X c #D0CFCF",
".X c #D6D6D6",
"XX c #D9D4D3",
"oX c #DBDBDB",
"OX c #D3DFE6",
"+X c #D4E0E7",
"@X c #DBE5EA",
"#X c #E3E3E3",
"$X c #E3EAEE",
"%X c #ECEDED",
"&X c #E9EEF1",
"*X c #EEF3F4",
"=X c #F2F4F4",
"-X c #F3F6F8",
";X c #F6F8F8",
":X c #FDFDFD",
">X c None",
/* pixels */
">X>X>X>X>X>X>X>X>X>X>X>X>X>X>X>X>X>X>X>X>X>X>X>X>X>X>X>X",
">X>X>X>X>X>X>X>X>X>X>X>X>X>X>X>X>X>X>X>X>X>X>X>X>X>X>X>X",
">X>X>X>X>X>X>X>X>X>X>X>X>X>X>X>X>X>X>X>X>X>X>X>X>X>X>X>X",
">X>X>X>X>X>X>X>X>X>X>X>X>X>X>X>X>X>X>X>X>X>X>X>X>X>X>X>X",
">X>X>X>X>X>X>X>X>X>X>X>X>X>X>X>X>X>X>X>X>X>X>X>X>X>X>X>X",
">X>X>X>X>X>X>X>X>X>X>X>X>X>X>X>X>X>X>X>X>X>X>X>X>X>X>X>X",
">X>X>X>X>Xf.u.k.v.z.c.j.p.y.h.n.g.y.r.f.M.>X>X>X>X>X>X>X",
">X>X>X>Xa H ~ / _ _ ' ) ^ Q ( i.) Q J ) s.N.>X>X>X>X>X>X",
">X>X>Xl.! A R N N N N N N N N N N N N n I { >X>X>X>X>X>X",
">X>X>XB.{ k %.1.1.1.1.1.1.1.,.1.1.2.:.R A G >X>X>X>X>X>X",
">X>X>X'.U w E L.W.I.W.I.I.I.I.I.I.I.5.i | XX>X>X>X>X>X>X",
">X>X>X>X- e ] Q.].!.!.!.!.!.!.!.!.!.F.7 0 :X>X>X>X>X>X>X",
">X>X>X>X>XC | Q.!.!.!.!.!.!.!.!.!._.G.8   >X>X>X>X>X>X>X",
">X>X>X>X  5 A..X#XOX.XXX.X.X.X.X.X.XQ.C   >X>X>X>X>X>X>X",
">X>X>X>X  7 E.;X;X:X;X:X:X:X;X:X;X:X#X} 4 >X>X>X>X>X>X>X",
">X>X>X  5 T XX:X:X:X:X:X:X:X:X:X:X:X=XH.Z   >X>X>X>X>X>X",
">X>X>X* 0 F.#X=X:X:X:X:X:X:X:X:X:X:X:X|.T 5   >X>X>X>X>X",
">X>X$ 0 ] }.=X=X:X:X:X:X:X:X:X:X:X:X:X=XF.q * >X>X>X>X>X",
">X  % C R.%X=X:X:X:X:X:X:X:X:X:X:X:X:X:X.X} 8 . >X>X>X>X",
">X. - V.oX=X:X:X:X:X:X:X:X:X:X:X:X:X:X:X:XQ.C - >X>X>X>X",
"3 7 G ].;X;X:X:X:X:X:X:X:X:X:X:X:X:X:X:X:X#Xd.r 3 >X>X>X",
"6 e Z.%X:X:X:X:X:X:X:X:X:X:X:X:X:X:X:X:X:X:X].P 8 >X>X>X",
"r K _.:X:X:X:X:X:X:X:X:X:X:X:X:X:X:X:X:X:X:X%X..3   >X>X",
"3 | #X:X:X:X:X:X:X:X:X:X:X:X:X:X:X:X:X:X:X:X:XR.q $ >X>X",
"8 D.;X:X:X:X:X:X:X:X:X:X:X:X:X:X:X:X:X:X:X:X:X[.U 0 >X>X",
"V Q.:X:X:X:X:X:X:X:X:X:X:X:X:X:X:X:X:X:X:X:X:X#X .0 5 >X",
"D }.:X:X:X:X:X:X:X:X:X:X:X:X:X:X:X:X:X:X:X:X:X=XV.=   >X",
"` .X:X:X:X:X:X:X:X:X:X:X:X:X:X:X:X:X:X:X:X:X:X;XF.%   >X",
"[ #X:X:X:X:X:X:X:X:X:X:X:X:X:X:X:X:X:X:X:X:X:X:XY.*   >X",
"[ OX:X:X:X:X:X:X:X:X:X:X:X:X:X:X:X:X:X:X:X:X:X;XT.2   >X",
"` `.+X+X@X@X@X@X@X@X@X$X$X$X%X&X&X&X*X&X*X*X-X*XG.=   >X",
"A ,.6.3.,.,.3.7.6.7.8.8.8.4.8.0.0.8.8.0.0.w.w.e.W +   >X",
"A *.<.+.t t +.+.l N N f x < v ;.&.g f @.o.N <.<.M O   >X",
"D *.<.N @ + M v + t f # d @ x <.o.< > c , t o.<.M O   >X",
"D *.;.N O X d d . < f @ u @ l ;.o.1 + ; 1 N &.<.n O   >X",
"S =.;.x O O # ;   ; p @ u @ l <.@.<   ; N <.<.<.b O   >X",
"S >.$.h # 1 X X O ; p @ u + x ;.o.1 X ; f o.;.<.b o   >X",
"S >.$.p : h # ; 1 ; t @ y + f @.o.: ; d : u +.<.b O   >X",
"D *.@.1 < O.v v f ; t ; u # ; t u > 1 +.N c @.<.c O   >X",
"D *.@.h h &.;.;.N g m c N x h l c v N ;.;.;.;.;.b o   >X",
"F J.~.K.K.~.~.^.~.P.^.^.^.^.^.^.(.(.(.).).).).).-.%   >X",
"T [.*X*X*X*X*X=X*X*X*X-X-X*X-X-X-X;X-X-X-X-X-X-XF.%   >X",
"Y  X:X:X:X:X:X:X:X:X:X:X:X:X:X:X:X:X:X:X:X:X:X:XG.%   >X",
"Y |.:X:X:X:X:X:X:X:X:X:X:X:X:X:X:X:X:X:X:X:X:X:XS.%   >X",
"Y {.:X:X:X:X:X:X:X:X:X:X:X:X:X:X:X:X:X:X:X:X:X:XS.%   >X",
"Y [.:X:X:X:X:X:X:X:X:X:X:X:X:X:X:X:X:X:X:X:X;X;XA.%   >X",
"P {.:X:X:X:X:X:X:X:X:X:X:X:X:X:X:X:X:X:X:X:X%X%XZ.%   >X",
"Z {.:X:X:X:X:X:X:X:X:X:X:X:X:X:X:X:X:X:X:X;X=X%XA.8 * >X",
"Z ].:X:X:X:X:X:X:X:X:X:X:X:X:X:X:X:X:X;X;X=X=X#X..w - >X",
"8 A.#X;X:X:X:X:X:X:X:X:X:X:X:X:X:X:X;X=X%X=X=X!.U w >X>X",
"o Z V.E.{.XX@X#X%X&X%X=X=X=X=X%X%X$X#X.X}._.Y.] w 3 >X>X",
"8 0 r w V T | V.A.G.H.R.H.Y.H.G.S.C. .] Z e r r 0 >X>X>X",
">X>X      % 8 B G T T T T T T U Z V q - o     >X>X>X>X>X",
">X>X>X>X>X>X>X>X>X>X>X>X>X>X>X>X>X>X>X>X>X>X>X>X>X>X>X>X",
">X>X>X>X>X>X>X>X>X>X>X>X>X>X>X>X>X>X>X>X>X>X>X>X>X>X>X>X",
">X>X>X>X>X>X>X>X>X>X>X>X>X>X>X>X>X>X>X>X>X>X>X>X>X>X>X>X",
">X>X>X>X>X>X>X>X>X>X>X>X>X>X>X>X>X>X>X>X>X>X>X>X>X>X>X>X",
">X>X>X>X>X>X>X>X>X>X>X>X>X>X>X>X>X>X>X>X>X>X>X>X>X>X>X>X",
">X>X>X>X>X>X>X>X>X>X>X>X>X>X>X>X>X>X>X>X>X>X>X>X>X>X>X>X",
">X>X>X>X>X>X>X>X>X>X>X>X>X>X>X>X>X>X>X>X>X>X>X>X>X>X>X>X"
};
