/* XPM */
static char *exit[] = {
/* columns rows colors chars-per-pixel */
"60 60 257 2",
"   c black",
".  c #3B255F",
"X  c #3C2660",
"o  c #3E2961",
"O  c #3D2968",
"+  c #3D3960",
"@  c #3F485F",
"#  c #3D465E",
"$  c #2C5D61",
"%  c #3D4F66",
"&  c #374561",
"*  c #3A5A63",
"=  c #366E5F",
"-  c #3F715F",
";  c #2D6062",
":  c #257662",
">  c #452D5F",
",  c #4D385F",
"<  c #563C5F",
"1  c #422D61",
"2  c #493465",
"3  c #453174",
"4  c #49367D",
"5  c #483470",
"6  c #553D66",
"7  c #41495F",
"8  c #49555F",
"9  c #5E445F",
"0  c #51555F",
"q  c #525A5F",
"w  c #585A5F",
"e  c #404960",
"r  c #434F68",
"t  c #484366",
"y  c #485667",
"u  c #534668",
"i  c #5F4E72",
"p  c #595764",
"a  c #48685E",
"s  c #44715E",
"d  c #457B5E",
"f  c #5A6B5E",
"g  c #496866",
"h  c #467763",
"j  c #5D676B",
"k  c #5C7B6D",
"l  c #586572",
"z  c #67475E",
"x  c #6B565E",
"c  c #675C5E",
"v  c #624E63",
"b  c #604F72",
"n  c #6A5977",
"m  c #6C5B78",
"M  c #7C675D",
"N  c #686979",
"B  c #6B797B",
"V  c #746061",
"C  c #776E7F",
"Z  c #796F7F",
"A  c #746479",
"S  c #656C64",
"D  c #4D3B8A",
"F  c #4A3882",
"G  c #503E8C",
"H  c #513F92",
"J  c #52419A",
"K  c #5949A6",
"L  c #5B4BAB",
"P  c #5D4EB1",
"I  c #5F50B6",
"U  c #6152BA",
"Y  c #6253B7",
"T  c #776980",
"R  c #1E8B62",
"E  c #1F9064",
"W  c #208D63",
"Q  c #248663",
"!  c #219264",
"~  c #2C9A63",
"^  c #328860",
"/  c #379969",
"(  c #3E9E71",
")  c #37AF5F",
"_  c #3CB45F",
"`  c #3DB85E",
"'  c #2EA361",
"]  c #35AC60",
"[  c #46835E",
"{  c #469C5B",
"}  c #49A65C",
"|  c #40BD5E",
" . c #4AB95C",
".. c #50BB5D",
"X. c #49A476",
"o. c #55AA7B",
"O. c #56B674",
"+. c #41B066",
"@. c #6D8276",
"#. c #49C25B",
"$. c #4CCD5B",
"%. c #45C35D",
"&. c #4DD15B",
"*. c #50CF5D",
"=. c #56C75E",
"-. c #54D15D",
";. c #5BD45E",
":. c #5AD264",
">. c #55D161",
",. c #63D55F",
"<. c #66CF60",
"1. c #6CC27C",
"2. c #6BD66E",
"3. c #67D866",
"4. c #6FD771",
"5. c #73DE62",
"6. c #7EDB79",
"7. c #77DA75",
"8. c #7DE464",
"9. c #72E062",
"0. c #798083",
"q. c #6CB686",
"w. c #64B282",
"e. c #77BB8A",
"r. c #79C783",
"t. c #83585A",
"y. c #8B765C",
"u. c #95655B",
"i. c #927D5C",
"p. c #8C6A5C",
"a. c #867276",
"s. c #987772",
"d. c #8B7765",
"f. c #A87258",
"g. c #B57C58",
"h. c #A0796B",
"j. c #867986",
"k. c #9B8761",
"l. c #AA965A",
"z. c #BF8F59",
"x. c #B39E59",
"c. c #B39758",
"v. c #A08C5A",
"b. c #AD8261",
"n. c #B58661",
"m. c #BBA75B",
"M. c #82DD7C",
"N. c #88DE7F",
"B. c #96EE68",
"V. c #95ED67",
"C. c #B5FB6D",
"Z. c #AAF76B",
"A. c #C78858",
"S. c #D28F58",
"D. c #D99657",
"F. c #C89859",
"G. c #C2AE58",
"H. c #C7B259",
"J. c #CBB657",
"K. c #D5BB58",
"L. c #DEA757",
"P. c #D1BD72",
"I. c #CBB66B",
"U. c #E19957",
"Y. c #E6A557",
"T. c #FEAF55",
"R. c #F6A956",
"E. c #FEB255",
"W. c #FEBE55",
"Q. c #D9C356",
"!. c #D2C16B",
"~. c #E0CA57",
"^. c #EAD756",
"/. c #FFC355",
"(. c #FFCC55",
"). c #F4DD56",
"_. c #FED455",
"`. c #FEDD55",
"'. c #ECDA60",
"]. c #F6E356",
"[. c #FDE455",
"{. c #FEEB55",
"}. c #FEEC5D",
"|. c #FFF156",
" X c #FEED64",
".X c #FEEF6C",
"XX c #F8EA73",
"oX c #FFF169",
"OX c #FEF17C",
"+X c #FEF074",
"@X c #94888E",
"#X c #968A87",
"$X c #9A8D92",
"%X c #9E9394",
"&X c #949691",
"*X c #A3988D",
"=X c #A09594",
"-X c #A89F99",
";X c #A69C96",
":X c #A5A398",
">X c #AAA29B",
",X c #B2AA9F",
"<X c #B1A79E",
"1X c #AFA6A0",
"2X c #B3ACA0",
"3X c #BBB4A3",
"4X c #8CD589",
"5X c #92D290",
"6X c #99E38A",
"7X c #A7D99C",
"8X c #A0E58E",
"9X c #AEE896",
"0X c #A7E792",
"qX c #B7EB9C",
"wX c #C4BEA8",
"eX c #C2BBA7",
"rX c #CDC6AC",
"tX c #CCC5AC",
"yX c #D1CAAF",
"uX c #D4CFB0",
"iX c #D6D1B2",
"pX c #DBD8B5",
"aX c #D3D1A6",
"sX c #C2EEA2",
"dX c #C6E7AB",
"fX c #CBF0A8",
"gX c #D7EFB3",
"hX c #D2F3AC",
"jX c #DBF5B2",
"kX c #D7F4B0",
"lX c #CAE4B0",
"zX c #E0DEB7",
"xX c #E1DEB9",
"cX c #FEF58A",
"vX c #FEF89B",
"bX c #E1E0AC",
"nX c #E6E4BA",
"mX c #EBEABD",
"MX c #E9E5BE",
"NX c #E2F7B6",
"BX c #EBF9BC",
"VX c #E6F7B9",
"CX c #FEF9A9",
"ZX c #FEF8A1",
"AX c #F7FCBD",
"SX c #EEEDC0",
"DX c #F6F5C3",
"FX c #F4FBC1",
"GX c #FDFEC6",
"HX c #FEFECC",
"JX c #F8F7C5",
"KX c #FEFFD4",
"LX c #FFFFDB",
"PX c #FFFFEC",
"IX c gray100",
"UX c #FFFFF7",
"YX c None",
/* pixels */
"YXYXYXYXYXYXYXYXYXYXYXYXYXYXYXYXYXYXYXYXYXYXYXYXYXYXYXYXYXYXYXYXYXYXYXYXYXYXYXYXYXYXYXYXYXYXYXYXYXYXYXYXYXYXYXYXYXYXYXYX",
"YXYXYXYXYXYXYXYXYXYXYXYXYXYXYXYXYXYXYXYXYXYXYXYXYXYXYXYXYXYXYXYXYXYXYXYXYXYXYXYXHXKXKXHXHXGXHXKXYXYXYXYXYXYXYXYXYXYXYXYX",
"YXYXYXYXYXYXYXYXYXYXYXYXYXYXYXYXYXYXYXYXYXYXYXYXYXYXYXYXYXYXYXYXYXYXYXYXYXYXYXKXGXyXtXtXtXtXyXDXKXHXYXYXYXYXYXYXYXYXYXYX",
"YXYXYXYXYXYXYXYXYXYXYXYXYXYXYXYXYXYXYXYXYXYXYXYXYXYXYXYXYXYXYXYXYXYXYXYXYXYXHXrX3XN 8 g g y l 3XtXJXPXYXYXYXHXHXHXHXYXYX",
"YXYXYXYXYXYXYXYXYXYXYXYXYXYXYXYXYXYXYXYXYXYXYXYXYXYXYXYXYXYXYXYXGXHXHXHXHXKXtXB * /  .#.$.%.~ a B eXGXHXHXHXtX3X3XpXKXYX",
"YXYXYXYXYXYXYXYXYXYXYXYXYXYXYXYXYXYXYXYXYXYXYXYXYXYXYXYXYXYXYXYXGXnX2X<XwXtXB ^ %.&.*.9.9.-.$.$. .@.1X,X<X<XB a y &XnXHX",
"YXYXYXYXYXYXYXYXYXYXYXYXYXYXYXYXYXYXYXYXYXYXYXYXYXYXYXYXYXYXYXYXHXwX1 . m B : _ $.$.-.Z.C.;.&.$.$.} s s s s } $.~ r uXHX",
"YXYXYXYXYXYXYXYXYXYXYXYXYXYXYXYXYXYXYXYXYXYXYXYXYXYXYXYXYXYXYXYXKXwX1 . 1 $ ! ' %.$.$.8.8.$.;.5.$.$.$.&.$.&.$.$.~ r uXHX",
"YXYXYXYXYXYXYXYXYXYXYXYXYXYXYXYXYXYXYXYXYXYXYXYXYXYXYXYXYXYXYXYXHXiXj.. . & : ! ` $.$.$.$.$.-.9.&.$.&.$.$.$.$.$.~ r iXKX",
"YXYXYXYXYXYXYXYXYXYXYXYXYXYXYXYXYXYXYXYXYXYXYXYXYXYXYXYXLXKXIXGXGXGX3X1 X 1 ; W ~ %.$.$.$.$.$.$.$.$.$.$.$.$.$.$.~ r uXHX",
"YXYXYXYXYXYXYXYXYXYXYXYXYXYXYXYXYXYXYXYXYXYXYXYXYXYXKXKXJXDXJXiXj.j.A 1 . > & % @ ^ | $.$.$.$.$.&.$.$.$.$.$.&._ ! r uXKX",
"YXYXYXYXYXYXYXYXYXYXYXYXYXYXYXYXYXYXYXYXYXYXYXYXYXYXJXDXgX@Xa.a.z.m.H.H.J.H.H.F.A.c 8 a  .$.$.&.$.$.$.$.$.$.$.' W r uXHX",
"YXYXYXYXYXYXYXYXYXYXYXYXYXYXYXYXYXYXYXYXYXYXYXYXYXKXnX#Xa.m.J.K.`.}.{.{.{.{.{.[.].L.S.A.c a  .&.$.$.$.$.$.$.) ! Q y uXKX",
"YXYXYXYXYXYXYXYXYXYXYXYXYXYXYXYXYXYXYXYXYXYXYXYXHXgX#Xm.K. X}.{..XcX{.{.{.{.{.{.{.[.`.W.D.A.f ..$.$.$.$.%.) ! R * ,XmXKX",
"YXYXYXYXYXYXYXYXYXYXYXYXYXYXYXYXYXYXYXYXYXYXYXKXxX#Xm.{.}.CXCX}.{. X{.{.{.{.{.{.{.[.{.[.W.T.A.j  .#.%._ ~ ! E Q y uXKXYX",
"YXYXYXYXYXYXYXYXYXYXYXYXYXYXYXYXYXYXYXYXYXYXHXxX#Xm.{.{.}.CXCX}.{.{.{.{.{.{.{.{.{.(.`.{.[.E.E.A.f Q ~ ! E E Q g 3XDXKXYX",
"YXYXYXYXYXYXYXYXYXYXYXYXYXYXYXYXYXYXYXYXYXYXHX$Xl.{.oX.X}.}.}.{.{.{.{.{.{.{.{.{.{.[.`.[.[.W.T.T.g.$ E E R : g 2XDXPXYXYX",
"YXYXYXYXYXYXYXYXYXYXYXYXYXYXYXYXYXYXYXYXYXHXpX#XG.oXCXAXoX{.{.{.{.{.{.{.{.{.{.{.{.{.W.E.[.[.E.T.S.p : : g A 2XJXUXYXYXYX",
"YXYXYXYXYXYXYXYXYXYXYXYXYXYXYXYXYXYXYXYXYXGX=Xv.{.vXGXCX X{.{.{.{.{.{.{.{.{.{.{.{.{.(./.[.[./.E.E.g.u T 1XDXDXIXYXYXYXYX",
"YXYXYXYXYXYXYXYXYXYXYXYXYXYXYXYXYXGXGXHXHXHX%Xl.{.cXvXoX{.{.{.{.|.{.{.].{.{.{.|.{.{.{.{.{.{.[.E.E.S.s.iXHXHXGXYXYXYXYXYX",
"YXYXYXYXYXYXYXYXYXYXYXYXYXYXYXYXYXGXnX,X<X,XC M m.l.m.l.m.m.l.m.m.x.x.m.x.x.l.m.m.l.m.x.x.x.l.g.g.g.t.A <XpXGXYXYXYXYXYX",
"YXYXYXYXYXYXYXYXYXYXYXYXYXYXYXYXYXKXeXi @Xm . 1 X X X F F F D F D D 3 X X n @Xb X o . X o F D D D D D F 3 -XHXYXYXYXYXYX",
"YXYXYXYXYXYXYXYXYXYXYXYXYXYXYXYXYXHXeXj.GX>XX . X . F P U U I U I P F X X %XHXj.X X X O G I U U U U U L 3 -XHXYXYXYXYXYX",
"YXYXYXYXYXYXYXYXYXYXYXYXYXYXYXYXYXHXeXi @Xm j p o F P U U U U U L 4 X X X n @Xb S p o G I I U U U I L 3 X >XGXYXYXYXYXYX",
"YXYXYXYXYXYXYXYXYXYXYXYXYXYXYXYXYXKXwX1 X . p p F P U U U I U P 4 o o . o . X o j t G P U U U U U L 3 o . >XHXYXYXYXYXYX",
"YXYXYXYXYXYXYXYXYXYXYXYXYXYXYXYXYXHXwX1 X X . F P U U U U U P F o o o 1 1 o o o 1 D I U U U U Y L 3 o o . >XGXYXYXYXYXYX",
"YXYXYXYXYXYXYXYXYXYXYXYXYXYXYXYXYXHXwX2 X X F L U U U I U L 4 X o o o V i.. . o D I U U U U U L 3 o o o 1 >XHXYXYXYXYXYX",
"YXYXYXYXYXYXYXYXYXYXYXYXYXYXYXYXYXHXnX=XX F P U I U U U L F o . 1 . x ~.^.y.X D I U I U U U L 3 . . o . j.pXHXYXYXYXYXYX",
"YXYXYXYXYXYXYXYXYXYXYXYXYXYXYXYXYXYXKX3X2 F U U U U U P F o o o o o y.{.{.l.1 H U U U U I L 3 o . . X . =XHXYXYXYXYXYXYX",
"YXYXYXYXYXYXYXYXYXYXYXYXYXYXYXYXYXYXKXmX=X1 H I U U L 4 o o o . . M ^.{.{.).i.2 H U U U L 3 . . 1 X > 2 %XHXYXYXYXYXYXYX",
"YXYXYXYXYXYXYXYXYXYXYXYXYXYXYXYXYXYXYXHX2X2 2 H L L F X . 1 o o V ^.{.{.{.{.).i.3 H L L 3 o 1 . X > u.u.%XGXYXYXYXYXYXYX",
"YXYXYXYXYXYXYXYXYXYXYXYXYXYXYXYXYXYXYXHX1Xy.l.v 2 O X . . 1 p M ^.{.{.{.{.{.{.).y.v 2 O X X X > < u.R.f.%XHXYXYXYXYXYXYX",
"YXYXYXYXYXYXYXYXYXYXYXYXYXYXYXYXYXYXKXxX*Xl.].).v.x x x x M ~.].{.{.{.{.{.{.{.{.].^.y.x x x x p.Y.R.E.f.%XGXYXYXYXYXYXYX",
"YXYXYXYXYXYXYXYXYXYXYXYXYXYXYXYXYXYXHX3Xd.{.{.{.{.].].].].).{.{.{.{.{.{.{.{.{.{.{.{.].].].].].`.E.T.U.h.>XHXYXYXYXYXYXYX",
"YXYXYXYXYXYXYXYXYXYXYXYXYXYXYXYXKXHXpX*Xx.{.{.[.`.[.{.K.XXOXOXOXOXOX+XOXOXOXOXOX+X!.).{.`.{.{.`.E.T.g.@XGXYXYXYXYXYXYXYX",
"YXYXYXYXYXYXYXYXYXYXYXYXYXYXHXHXxX>X*Xx.{.{.{.{._._.).V =XDXGXGXGXGXGXGXGXGXGXHXtXb J.`.(.[.{.(.T.E.g.@XGXYXYXYXYXYXYXYX",
"YXYXYXYXYXYXYXYXYXYXYXYXYXKXnX>X*Xi.x.{..X+X{.{.`.(.).x 1 $X>X>X>X-X>X>X>X;X-X;Xb . K._.(.{.`.E.T.U.h.,XGXYXYXYXYXYXYXYX",
"YXYXYXYXYXYXYXYXYXYXYXYXKXmX;Xk.x.].{.{..X+X{.{.`.`.{.l.2 X . . X X . . . 3 G D J d.^.{._.{.`.E.T.g.j.GXYXYXYXYXYXYXYXYX",
"YXYXYXYXYXYXYXYXYXYXYXKXmX*Xb.).{. XvXOX{.[.{.{.{.{.{.).x . . 1 . 1 . 3 H K U U Y !.{.{.{.[./.E.D.h.3XGXYXYXYXYXYXYXYXYX",
"GXGXLXLXLXKXLXKXKXLXLXKXmXA K.{.{..XGXZX{.{.{.{.{.{.{.[.m.2 . . . . 3 K U U U Y =X).{.{.{.[.E.E.A.j.GXIXLXLXKXLXLXLXGXGX",
"GXGXJXDXDXDXDXDXJXDXFXmX@Xn.).{.{.}.OX.X{.[.{.{.{.{.{.{.{.J.l.2 1 5 K Y Y U $XP.^.{.{.{.[./.E.D.s.tXDXDXDXDXJXFXDXDXGXGX",
"HXzXj.Z Z C C C Z Z C C 6 D.{.{.{.{.{.{.{.{.[.{.{.{.{.{.{.|.].J.H.J.P.P.P.P.'.{.{.{.{.{.[.E.E.A.6 C C C C C Z Z C j.xXHX",
"HXyXy { } } } } } } { # 2 D.[.{.{.{.{.{.{.{.{.{.{.{.{.{.{.{.{.|.[./././._.{.{.{.{.{.{.[.W.T.D.v 7 { } } } } } } { y uXHX",
"HXyXg ,.8.5.Z.8.$.#.s o > D.W.`.{.{.{.{.{.{.{.{.{.{.{.{.{.{.{.{.{.`.`.[.[.{.{.{.{.{.[./.T.D.z 1 + s #.&.8.Z.5.8.,.y yXHX",
"HXiXj ..;.5.C.8.#.s 1 X > A.T.W.[.{.{.{.{.{.{.{.{.{.{.{.{.{.{.{.{.{.{.{.{.{.{.{.{.{.W.E.D.z . X > . s #.V.C.5.;...j iXHX",
"LXmXeXk  .-.;.=.s . X . > < A.U.L.~.~.~.~.~.~.~.~.~.~.~.~.~.~.~.~.~.~.~.~.~.~.~.~.Y.U.S.z 1 X X . . o s #.;.$. .k 3XDXKX",
"YXIXGX3Xa &.&.[ t @ 7 7 7 7 0 0 0 q q q q q q q q q q q q q q p q q q q q q q q q q 0 0 7 7 t # 7 7 @ + [ $.$.g 3XGXIXYX",
"YXLXMX:Xd $.&.d d #.=.<.=.#.#.#.#.#.#.#.#.#.#.#.%. .%.%.#.#.%.%.#.#.%.#.#.#.#.#.%.%.#.#.#.#. .=.<.;.#.[ - &.$.d :XMXLXYX",
"KXnX:Xh _ | | s [ &.B.C.5.4.6.M.7.&.$.:.M.M.3.$.2.M.M.6.-.-.7.7.$.:.6.6.2.$.$.2.M.6.;.&.7.7.-.3.C.B.&.[ s | | ` h -XnXKX",
"HXuXr W W ! ! $ [ &.8.B.3.kXFXhXjX6.:.9XjXjXsX2.9XGXhXNX6X3.VXkX3.0XNXkXfX2.2.fXkXNX6X2.NXNX:.;.B.8.-.[ ; ! ! ! W r uXKX",
"HXuXr R E E ! $ [ ,.:.$.:.jXBX6.AXhXM.GXqX6XGX6XqXGXN.hXFX6.VXjX6.GXsX7.qX6.9XGX4XsXFX6.NXVX:.&.&.;.,.[ $ E ! E R r uXHX",
"KXuXt $ ; ; ; + [ 9.3.$.>.jXFXqXVX6XM.GXkXfXHX6XqXGXN.hXFX7.VXjXM.GXsX$.$.$.9XGXsXNXFX6.NXNX:.&.$.,.9.[ # $ ; ; $ t uXKX",
"HXMX;X=X&X%X%Xm [ &.&.$.:.jXFXsXNX6X6.JXkXhXGX6XqXHX4XhXAXM.BXjX6.FXsX4.0X6.9XGXsXNXFX6.NXNX:.#.$.$.$.[ n =X%X%X=X;XMXHX",
"GXGXHXGXHXGXHX%X= ] ] ] _ gXVX1.BXlXr.GX7X4XGX5X7XJXsXNX5XO.VXgXO.7XNXhXlXO.7XGXr.dXFX1.jXFXqX6X) ] ] = &XHXHXHXGXHXGXGX",
"YXYXYXYXYXYXHX=X$ E W W ! q.q./ q.w.( e.o.X.e.X.w.q.e.e.~ ! q.w.! / q.e.o.R o.e.( w.q.( q.e.e.w.! E E $ =XHXYXYXYXYXYXYX",
"YXYXYXYXYXYXHX=X; W W W W R R W R R R R R R R R R R R R W W R R W R R R R R R R W R R R R R R R W W W ; =XGXYXYXYXYXYXYX",
"YXYXYXYXYXYXGXuX0.% % % % % % % % % % % % % % % % % % % % % % % % % % % % % % % % % % % % % % % % % % 0.uXGXYXYXYXYXYXYX",
"YXYXYXYXYXYXYXHXuXrXrXrXrXrXrXrXrXrXrXrXrXrXrXrXrXrXrXrXrXrXrXrXrXrXrXrXrXrXrXrXrXrXrXrXrXrXrXrXrXrXrXiXHXYXYXYXYXYXYXYX",
"YXYXYXYXYXYXYXYXKXHXKXHXKXHXHXHXKXHXKXHXKXHXHXHXKXHXHXKXKXHXHXHXKXHXKXKXKXHXHXHXKXHXHXKXKXHXHXHXKXHXKXHXYXYXYXYXYXYXYXYX",
"YXYXYXYXYXYXYXYXYXYXYXYXYXYXYXYXYXYXYXYXYXYXYXYXYXYXYXYXYXYXYXYXYXYXYXYXYXYXYXYXYXYXYXYXYXYXYXYXYXYXYXYXYXYXYXYXYXYXYXYX"
};
