/* XPM */
static char *result[] = {
/* columns rows colors chars-per-pixel */
"60 60 235 2 ",
"   c #3C2709",
".  c #3E260D",
"X  c #3E2611",
"o  c #3E2B13",
"O  c #342D1A",
"+  c #3F3115",
"@  c #7D151C",
"#  c #4A2A04",
"$  c #41260D",
"%  c #52380E",
"&  c #5A390A",
"*  c #422813",
"=  c #412C13",
"-  c #453619",
";  c #443C1A",
":  c #613C09",
">  c #7D1522",
",  c #761C25",
"<  c #473A22",
"1  c #4A3C23",
"2  c #513E29",
"3  c #762424",
"4  c #70302A",
"5  c #1C7329",
"6  c #126D30",
"7  c #2F722C",
"8  c #247B36",
"9  c #49451D",
"0  c #544C19",
"q  c #684509",
"w  c #634413",
"e  c #4E4526",
"r  c #54432A",
"t  c #53442C",
"y  c #4D5021",
"u  c #584932",
"i  c #5E513A",
"p  c #7D482B",
"a  c #70522F",
"s  c #64533B",
"d  c #6A5A3E",
"f  c #636A23",
"g  c #6E7235",
"h  c #697A35",
"j  c #695A44",
"k  c #6C5C45",
"l  c #745B46",
"z  c #5B604A",
"x  c #72654B",
"c  c #67744A",
"v  c #756952",
"b  c #7C6C53",
"n  c #697855",
"m  c #870C16",
"M  c #850E1B",
"N  c #8B0D1A",
"B  c #85111B",
"V  c #B60F17",
"C  c #B60E1A",
"Z  c #BB0C1C",
"A  c #AF101D",
"S  c #BC131E",
"D  c #821B23",
"F  c #BA0F21",
"G  c #BD1421",
"H  c #BB1B27",
"J  c #8F3829",
"K  c #A12B26",
"L  c #BA2B26",
"P  c #BB2D29",
"I  c #AA392E",
"U  c #BA362C",
"Y  c #C0121F",
"T  c #C5271F",
"R  c #C11522",
"E  c #C31A24",
"W  c #C61C26",
"Q  c #C62524",
"!  c #C92525",
"~  c #C52924",
"^  c #C52927",
"/  c #C52328",
"(  c #CA2329",
")  c #C23930",
"_  c #94761C",
"`  c #8A5233",
"'  c #AC4E32",
"]  c #91752D",
"[  c #8B6A34",
"{  c #956A34",
"}  c #977839",
"|  c #A46D3D",
" . c #9A5349",
".. c #927F45",
"X. c #857459",
"o. c #8D7D64",
"O. c #907D68",
"+. c #318538",
"@. c #459638",
"#. c #569D39",
"$. c #718632",
"%. c #779A37",
"&. c #57A23C",
"*. c #6AA837",
"=. c #77A93B",
"-. c #7BB73D",
";. c #7DC03C",
":. c #3F9041",
">. c #469947",
",. c #559643",
"<. c #6B834E",
"1. c #718A4C",
"2. c #79964A",
"3. c #5AA749",
"4. c #68AE47",
"5. c #71AC4A",
"6. c #78B647",
"7. c #7BBA43",
"8. c #918539",
"9. c #879A3B",
"0. c #A9862A",
"q. c #88AA3E",
"w. c #84B53E",
"e. c #84BC3E",
"r. c #92B13F",
"t. c #86C13E",
"y. c #8CC53E",
"u. c #8EC93E",
"i. c #90C93E",
"p. c #F9CE3B",
"a. c #FCDC37",
"s. c #F7D738",
"d. c #FAD33C",
"f. c #FDDD3D",
"g. c #FCE03C",
"h. c #95914C",
"j. c #BA9D47",
"k. c #87A848",
"l. c #9AAC4C",
"z. c #86B547",
"x. c #85BC42",
"c. c #8BBD43",
"v. c #95BB48",
"b. c #9DB353",
"n. c #9CB951",
"m. c #A5B746",
"M. c #A4B359",
"N. c #938A72",
"B. c #9B8D74",
"V. c #A3957A",
"C. c #B39870",
"Z. c #9FB06A",
"A. c #B8A467",
"S. c #A7B263",
"D. c #ABB070",
"F. c #C19A5E",
"G. c #CFB04B",
"H. c #C69E66",
"J. c #CA9E66",
"K. c #C69E6A",
"L. c #C99F69",
"P. c #C49F72",
"I. c #C89E71",
"U. c #C7A166",
"Y. c #C9A065",
"T. c #C6A06A",
"R. c #C9A06A",
"E. c #C4A273",
"W. c #C7A67A",
"Q. c #85C343",
"!. c #8EC742",
"~. c #8EC842",
"^. c #8DC649",
"/. c #8BC94B",
"(. c #91C543",
"). c #91C944",
"_. c #97C749",
"`. c #8FC752",
"'. c #98C957",
"]. c #A7C849",
"[. c #B3CC52",
"{. c #AAD459",
"}. c #99C36B",
"|. c #AECE70",
" X c #B1CB7D",
".X c #BDE267",
"XX c #D3CD4A",
"oX c #D1CF55",
"OX c #E7C948",
"+X c #F8CC47",
"@X c #E7D449",
"#X c #F5D444",
"$X c #F7D847",
"%X c #FCDC42",
"&X c #E6C858",
"*X c #F5D956",
"=X c #FBE34B",
"-X c #FCE656",
";X c #F4F35B",
":X c #D2CD65",
">X c #EBD76D",
",X c #A89B84",
"<X c #ADA38A",
"1X c #B6A68B",
"2X c #B5BA88",
"3X c #B4A993",
"4X c #BBAC94",
"5X c #BDB697",
"6X c #C7AC83",
"7X c #C7B997",
"8X c #CFBA90",
"9X c #C8BBA5",
"0X c #9CCD97",
"qX c #B5D490",
"wX c #A0CEB0",
"eX c #D2C693",
"rX c #ECD78C",
"tX c #CAE299",
"yX c #ECF291",
"uX c #CBC8AB",
"iX c #D6C6A9",
"pX c #D7CBB6",
"aX c #DCD4BD",
"sX c #E1CDA9",
"dX c #E2D6BB",
"fX c #D5E6AE",
"gX c #A3D0D7",
"hX c #9ED7F4",
"jX c #A4D4EA",
"kX c #A2D6F4",
"lX c #DDD5C0",
"zX c #DED9C3",
"xX c #E2D9C5",
"cX c #E2DAC4",
"vX c #E6F0D6",
/* pixels */
"!.!.~.x.>.;.7.Q.~.!.~.!.!.!.!.!.~.-.Q.Q.@.~.~.~.u.-.~.~.~.!.!.~.!.!.!.!.!.~.!.!.).!.x.6.!.c.!.u.!.!.{.!.!.!.~.).!.u.#.~.",
"!.!.!.!.7.y.!.!.!.~.!.!.u.y.!.!.u.~.5 -.Q.x.~.~.~.~.~.~.!.!.!.!.!.Q.!.y.(..X!.~.!.~.~.^.~.y.!.!.!.!.!.u.y.!.!.~.~.~.7.4.",
"~.~.).!.!.~.~.!.~.!.~.).Q.).!.).u.Q.+.).t._.).~.~.~.~.u.~.!.4.~.&.#.~.~.~.!.!.~.^.~.~.~.(.u.-.).!.u.!.!.~.!.!.~.!.t.7.7.",
"~.!.!.!.!.~.~.!.!.~.~.y.u.~.!.!.~.~.~.).~.~.~.~.~.~.~.~.!././.>.6 Q.!.!.~.!.~.~.).~.~.!.!.!.!.!.!.!.~.!.~.!.!.!.!.~.!.~.",
"~.~.~.~.~.!.{.).!.).~.).!.~.!.u.~.qX).~.!.).).~.!.).qXyX!.^.e.5.Q.y.!.!.!.!.!.!.*.).~.~.!.~.i.!.y.!.~.~.!.!.).~.!.~.~.!.",
"~.~.~.~.^.).!.).!.u.~.y.!.!.u.(.vX;X'.u.~.~.~._.~.~.x.tX^.!.~.u.~.).!.~.~.~.~.!.!.).!.!.!.u.i.).~.~.~.~.~.!.!.~.!.!.!.~.",
"~.t././.,.~.).!.!.~.!.~.!.~.u.~.t.qXoX~.!.).[.5.!.~.!.).[.~._.v _.).).~.~.~.!.!.~.).!.~.~.!.!.i.uX2Xu.u.~.!.~.!.!.).!.~.",
"~.u.5 `.#.w.!.!.!.!.~.!.!.~.u.y.u.u.*X!.6 ^.$X_.~.!.!.$X!.~.i dXi e.Q.~.y.!.!.~.~.~.y.!.~.!.y.qXj ,X5X!.!.~.!.~.!.!.~.~.",
"u.Q.&.~.!.!.!.!.~.!.!.!.y._.).u.~.).d.oX!.+.a.#X_.~.XXf.).d xXaX< ,X!.).~.).!.!.).y.~.~.).!.'.t V.zXv 2X^.).~.~.{.!.!.!.",
"~.~.~.~.~.!.^.).~.!.!.!.)._.XXu.~.|.s.%X+Xm.f.f.p.).$X*Xk aX1 t cX<XD.).y.qX`.~.~.).y.!.!.^.k zX9Xb 1X,XD.).~.~.(.!.!.!.",
"~.!.~.~.~.~.~.{.u.y.y.~.!.!.a.+X+X>Xa.%Xd.p.s.f.%X:X$Xl lXlX= < cX- k '.y.tXtX~.!.~.!.!.!.,XiXO.5XN.,XxXb '.u.qXyX'.~.~.",
"{.~.~.~.~.~.~.!.!.!.[.~.u.!.$Xa.#Xs.%X%X%Xf.f.a.f.f.f.*XB.- xXxXX xXxXo :XQ.!.~.!.!.~.-.5Xk lXV.x zX9Xu  X=.u.Q.vXQ.~.!.",
"!.!.~.!.~.~.!.u.!.!.@X[.#.[.m.d.$X=X%Xf.f.f.f.=Xf.f.f.a.%XeXv r aXe i xXd +.!.!.!.~.u. Xv pXt 1XpXb t '.~.~.~.)._.).~.y.",
"u.!.u.!.!.~.!.!.~.~.].%Xa.p.p.=X=Xf.f.f.f.f.f.f.%Xf.f.f.f.a.rXt dXt 1 aXd ,Xy.y.~.~.'.- s 4X<Xv 9Xb ~.~.!.~.~.~.).).!.).",
"!.!.!.!.~.!.~.!.~.!.~.OXa.p.-X%Xf.f.f.f.f.f.f.f.f.f.f.f.f.g.f.>Xj pXlX- dXC.5Xw : k.s cX<Xr xXX.<X~.>.-.~.~.~./.).~.!.!.",
"!.~.!.!.~.!.!.[.!.!.).[.p.-X%Xf.%Xf.f.f.f.f.f.f.f.f.f.f.f.f.%Xa.-XB.s xXe o.x C.& V.pX= 1XaX-  X~.@.8 e.!.~.~._.i.i.~.!.",
"Q.u.~.~.!.!.i.].#X#X+Xd.$X=Xf.f.f.f.f.f.f.f.f.f.f.f.f.f.f.f.f.f.%X%XeXN.v e 4X1XW.r 1X1Xi t '.i.-.-.!.~.~.!.~._.!.!.u.u.",
"~.~.~.(.!.!.!.Q.XXa.g.d.-Xf.f.f.f.f.f.f.f.f.f.f.f.f.f.f.f.f.f.f.a.$Xq V.u <X4XC.L.X.u pXb a c.(.u.~.!.!.!.!.~.!.!.~.~.~.",
"~.!.!.^.y.!.u.u.!.].%X-X=Xa.f.f.%Xg.f.f.f.f.f.a.f.=Xa.f.%Xf.f.%X0.& # w 6X9XI.# r p 6X7X: # : f ).u.u.~.~.~.!.~.~.~.~.~.",
"u.~.).^.tX{.~.!._.+Xd.=Xf.f.f.f.f.f.f.f.f.f.f.=Xf.f.f.f.f.f.s.OX& & ` L.K.8XJ.p $ C.L.8XJ.| : # $.!.~.u.e.u.!.~.!.!.~.~.",
"u.y.~.u.tXc.#X@X%X%X%X%Xf.f.f.f.f.f.f.f.f.f.f.f.f.f.g.=Xf.f.$Xq % { R.K.B.1 C.a J.  4X< 9XJ.A.& : u.u.u.!.~.~.!.!.!.y.~.",
"!.!.!.~.e.y.^.#Xf.d.=Xf.f.f.f.f.f.f.f.a.f.f.f.f.f.f.a.f.f.%X_ # : L.6Xt aX5X2 eXL.7X< dXl 7XK.[ # w ~.~.~.).!.!.~.!.!.~.",
"!.!.~.u.4.y.!.!._.#X=Xa.g.f.a.=X%Xa.%XG.g.f.f.f.f.f.f.f.f.+X& : H.8Xi xXk 1XuX1XI.t aXX iX5Xo.W.: # %.).!.!.!.~.!.!.!.y.",
"~.Q.4.^.#.!.!.!.+X$Xf.%Xa.%X%X%X=Xf.] % %Xf.f.f.f.f.f.f.$X: # [ dXv X.9X,Xi s W.K.9X1 dX2 s aX2 6X& & y.~.).~.~.!.!.u.).",
"~.-.6 ~.y.).).XXf.s.f.f.0.. % %Xf.]   _ f.f.=Xf.f.f.%Xa._ # : V.O.9X3Xb uX2 %.%.u.%.Z.<Xv 1 cXs u 6X# w ^.~.~.~.~.~.~.~.",
"~.y.-.).).].%X%Xf.s.f.%X% ..% G.] .   &X%Xa.a.f.f.f.s.f.=Xh.s ,XzXo.B.xXr }.. o u.$ = 3X9XcXo pXzXo 1X!.).~.!.~.~.!.~.Q.",
"!.!.~.~.).~.~.!.).#Xf.%Xj.} G.  X . X G.a.=Xf.f.f.f.=X%XrXX xX4X1X4XB.4XiX!.< O ~.; 0 eXX.t zX; - zXuXO.).~.!.u.y.~.u.-.",
"~.).).!.!.!.~.!.&Xp.f.f.$XOX$X      $ %Xf.a.f.f.=Xa.f.rXv 9X,X1XV.3XuX4XK.!.g g !.h h eX6X1 cXu < lX2 xXs '.~.=.!.!.!.Q.",
"~.!.~.~.!.!.!.~.p.%Xf.%Xg.f.a.#XF.j.s.s.a.f.f.f.%Xa.a.rXx lX1Xo.cX4Xo.T.K.!.. X !.. - D.L.8X< xXaX  aXzXj ).!.~.u.u.u.~.",
"!.~.~./.~._.oX$X%Xa.d.f.f.g._ OXp.&XOXG.g.%Xf.f.f.f.f.=XrXv 3X9X,X< W.K.K.!.k.z.Q.z.z.7XL.J.sXN.< zXe u ~.~.~.~._.|.u.~.",
"!.!.~.~.~.y.Q.].].].d.%Xf.g.#X=X$X-X%X=Xf.a.f.%Xf.f.f.%X%XrXj zX1 8XY.T.T.T.K.P.K.P.T.E.R.L.T.1XpXaXj yX!.~.~.).}. X!.!.",
"!.~.*.!.7.:.u.u.i._.p.g.f.f.f.oX~.i.[.$Xg.f.%Xf.f.f.f.f.%X$XsX< sXK.R.R.T.F.K.H.K.L.L.H.R.R.K.E.x i D.}.u.-.~.~.).Q.!.).",
"!.!.7.5 >.y.y.!.~.].%Xs.f.$X).Q.n 2.uX;X@X=Xa.f.f.f.f.f.f.*XY.eXJ.R.R.L.R.Q.5.y.!.!.~.M.R.L.L.L.W.W.A.5.~.&.~.~.~.~.!.~.",
"!.!.y.5 Q.e.!.!.).#Xa.@X].).<.c.k.8.Q.N.~._.=Xf.f.%Xf.f.%XG.L.J.L.R.L.L.L.~.X o !.. ; S.R.L.R.L.R.L.L.8 /.&.e.~.~.~.u.u.",
"!.!.y.!.^.~.!.).].].!.~.v.k.).I ! ^ ) i.~.n 6.[.a.=Xf.f.f.G.L.R.R.L.L.L.K.(.$ $ !.X ; M.L.K.R.R.R.R.J.=.u.~./.~.y.u.8 y.",
").!.).!.~.!.).~.!.).!.c !.h.( ( ( ( W ! | +.1.-.).oXf.f.f.Y.L.L.L.L.L.L.L.!.c.c.!.c.c.S.L.L.R.L.R.J.J.i.~.~.u.~.~.y.7.4.",
"!.!.!.!.~.!.~.~.!.2.x.(.P / / W Q E T W W L } (.c u._.-X=XT.R.R.R.R.R.R.L.(.* * y.* + S.L.R.R.R.R.R.Y.|.~.!.!.~.!.!.7.x.",
"!.!.!.!.!.!.!.x.n y.' ~ / ' } { { { { { { ~ ~ P m.x.1.u.*XU.Y.L.L.L.R.L.J.!.; ; ~.; y M.L.L.L.L.K.L.L.A.!.!.!.!.!.t.~.~.",
"!.!.!.!.).!.c.^.8.E Y S Y k.}.0X0X!.wX0X!.H R R H I ~.z _.R.T.L.L.R.L.L.R.b.M.M.M.M.M.A.J.T.R.R.L.R.L.P.!.!.8 !.6 !.!.!.",
"~.~.!.~.!.!.c ~.~ ! ! ! T v.gXkXjX^.hXhX!.~ T T ~ ~ ' Q.k.A.E.L.L.L.L.L.L.L.K.K.R.K.R.H.L.L.R.J.L.L.L.L.~.!.7.4.8 w.~.~.",
"!.!.!.!.u.z.y.K S V Z Z Z r.wXkXgX).kXkXu.V Z Z Z C F !.1.).L.L.L.R.L.R.R.b.M.7X:X8Xh.A.R.R.R.T.K.L.J.J.(.!.7.!.!.!.~.~.",
"!.!.!.!.e.2.l.~ ! ! ~ ~ ~ r.~.c.t.u.~.!.).P ~ ~ ~ ^ ^ P ).2.S.R.L.J.R.L.L.~.+ + fX+ e M.T.T.L.R.R.L.R.T.v.~.~.~.!.!.~.u.",
"!.!.(.!.2.~.A V V V V C Z 7 gXhXjX`.hXhX~.C V C Z C C V 9.k.!.E.K.H.J.J.T.(.* X Q.X ; S.K.K.H.K.H.H.K.J.S._.).~.!.!.~.~.",
"~.~.!.).z.8.~ T T T ~ T ! %.gXkXjX`.kXhX!.^ ~ T T T T ! L (.n M.L.L.R.R.Y.+.c.3.Q.Q.!.S.L.Y.L.L.L.L.L.R.T.+.~.~.~.!.~.u.",
"!.!.!.n i.R R E E R H E E =.`.'.`.u.'.`.~.E R R R R E E W } c._.T.R.R.R.L.3.* X !.X 9 S.L.R.L.R.R.R.R.R.T.&.w.~.~.~.!.~.",
"~.!.!.!.| ! ( ! ~ ( ! ^ ^ ^ P P P P P P P ( ~ ! ~ ~ ! ! ~ ( !.C.L.R.L.R.R.Q.* X ~.$ - S.L.R.R.R.R.R.R.R.Y.t.~.!.~.y.~.!.",
"!.!.!.).( ( ( ( Q Q ^ / / / / / / Q / / / / Q / / Q ! ( ! ^ U T.R.R.R.R.L.(.(.(.~.).(.S.R.R.R.L.L.R.R.H.J._.!.!.~.).u.fX",
"!.!.!.!.( ( W ( / -.4.`.*.c.!.!.(.{.!.!.!.).!.!.!.^ ( ( ( ( ) U.R.R.R.R.L.Y.J.L.L.L.J.L.Y.R.R.R.R.R.R.R.H.M.u.~.u.(.*.Q.",
"!.y.i.i.T ! ( ! ^ x.5 4 > > D , !.Q.g > , D > !.~.P ! ! ( T ) R.R.K.T.L.R.J.J.L.H.T.U.L.L.J.T.R.L.L.R.K.L.A.!.!.!.~.u.u.",
"!.~.-.+.R E W W E ~.%.c.N N N q.qXyX'.M N m a ].).H E W W E U R.R.J.I.I.I.I.K.I.E.K.E.K.P.I.K.L.R.K.L.K.Y.T.!.!.~.t.@.u.",
"(.!.u.6 Q Q ! ~ ( cXp /.[ m D ~., fXq.q.N N ).3 u.P ~ Q Q ! U R.R.R.!.(.!.!.!.!.!.!.~.Q.!.Q.b.L.R.R.R.R.Y.R.!.7 t.+././.",
"~.!.!.w.S Y Y Z G z.` D !.M fX[ , w.@ !.D q.z.B ~.F S Z F S L T.L.R.~.=.!.9 . . .   o f !.$.b.L.T.K.R.L.R.Y.i./.6 @.u.}.",
"!.!.(.c.Q Q ~ Q T {.` N q.=.c.N , r.N ..c.~.B B !.~ T ~ ~ T ) J.H.H.c.X ; !.=.* $ ; (.q.X 0 b.L.K.K.L.R.R.J.n.Q.=.~.~.z.",
"!.!.i.(.C Z Z C S r.` N @ /.4 N 3 x.N N fX8.B B !.A C Z Z C P J.R.J.!.. $ . h ).!.y.- . * y b.L.R.R.R.R.R.Y.A.u.!.!.~.~.",
"(.y.(.i.! ! Q Q ! (.p N 8.7.5 N , Q.N 4 z.~.B N ~.P ~ ! ( ~ ' J.R.U.^.. . X h i.w.Q.- . . e M.L.R.R.R.R.Y.R.A.~.y.!.!.~.",
"y.u.(.y.G G R R Y c.p > !.> 6.J , c.N !.p Q.8.m ~.S S Y G S U R.R.R.@.. O !.w.$   ; !.w.X 0 b.L.T.R.R.R.L.R.L.~.y.!.~.~.",
"~.y.!.y.~ ~ ! ! ! (.p !.9.m  .i.3 !.8.e.m @ (.M !.P W ! Q ~ U R.R.R.t.,.-.= $   .     h ~.h b.L.U.L.K.L.U.R.L.~.~.~.~.!.",
"!.~.y.(.W ( Q W W (.g !.M m m e.g ^.!.@ N N l.q.!.L / W W / U R.L.Y.Q.~.e.c.c.c.x.x.e.e.c.!.n.H.R.L.L.J.R.T.R.v.~.~.~.~.",
"y.~.i.!.! T ! ~ ! !.(.a @ @ > 3 5 !.k.@ @ > , ~.!.L ( ( Q Q K $ . X $ X X . X X X * $ $ X . . . . . . . $ $ . $ * = ~.^.",
"~.(.y.!.U L L P P (.).).u.-.3.Q.-.c.y.Q.~.~.~.~.!.I U U U L K X o = o = X = o = o o * * o o + . * * = * = = = = = ; ~.&."
};
