/* XPM */
static char *exit[] = {
/* columns rows colors chars-per-pixel */
"60 60 256 2",
"   c #2B2E56",
".  c #2B2E57",
"X  c #2D315D",
"o  c #263254",
"O  c #302F5E",
"+  c #342D4F",
"@  c #372F60",
"#  c #363362",
"$  c #3E3D6C",
"%  c #3A3666",
"&  c #3F3870",
"*  c #253B61",
"=  c #2D4B79",
"-  c #384779",
";  c #43376B",
":  c #473C73",
">  c #4A4379",
",  c #544876",
"<  c #50496C",
"1  c #634B74",
"2  c #684B78",
"3  c #6B517C",
"4  c #6C5677",
"5  c #66586C",
"6  c #6F6275",
"7  c #706C6F",
"8  c #776978",
"9  c #2E5485",
"0  c #2F5689",
"q  c #2E5E96",
"w  c #334E83",
"e  c #3D4985",
"r  c #3B4784",
"t  c #365589",
"y  c #365C94",
"u  c #2F619A",
"i  c #326DAB",
"p  c #3B77B9",
"a  c #397CC1",
"s  c #4D4A88",
"d  c #46588F",
"f  c #4B5697",
"g  c #544785",
"h  c #524F95",
"j  c #59588A",
"k  c #57549A",
"l  c #494E92",
"z  c #4E5EA8",
"x  c #5959A5",
"c  c #4D6193",
"v  c #55618F",
"b  c #596493",
"n  c #427ABA",
"m  c #5965B7",
"M  c #64558B",
"N  c #6A5C9A",
"B  c #675A9A",
"V  c #745E94",
"C  c #645EAA",
"Z  c #625FB1",
"A  c #725CA9",
"S  c #706099",
"D  c #6869B8",
"F  c #7A65B6",
"G  c #7573BC",
"H  c #666BC1",
"J  c #6B71C6",
"K  c #7E68C0",
"L  c #7872CD",
"P  c #7C75D3",
"I  c #7F79D4",
"U  c #3A84CB",
"Y  c #3983CA",
"T  c #3D8BD5",
"R  c #3C8DD9",
"E  c #3B87D1",
"W  c #3E91DE",
"Q  c #3E93E2",
"!  c #3F97E8",
"~  c #3E9CF5",
"^  c #3F9FF8",
"/  c #3FA0F9",
"(  c #4080C4",
")  c #418DD6",
"_  c #408ED8",
"`  c #4091DC",
"'  c #5B8FDB",
"]  c #459AE9",
"[  c #419EF6",
"{  c #419FF8",
"}  c #4B9EF2",
"|  c #5B9CED",
" . c #529FF2",
".. c #41A0F7",
"X. c #44A4FB",
"o. c #47A8FE",
"O. c #48A7FD",
"+. c #4BABFD",
"@. c #4CA1F5",
"#. c #51AFFC",
"$. c #57A3F4",
"%. c #54B2FE",
"&. c #59B5FC",
"*. c #6992DD",
"=. c #6899EA",
"-. c #7699EB",
";. c #66A6F3",
":. c #68B7F7",
">. c #77A8ED",
",. c #7EADF2",
"<. c #75B1EE",
"1. c #74BEF5",
"2. c #7BBEF3",
"3. c #79C1F4",
"4. c #85658D",
"5. c #8A7789",
"6. c #917D8D",
"7. c #937D93",
"8. c #846ABB",
"9. c #8468B7",
"0. c #8972AC",
"q. c #8A71BC",
"w. c #926FB3",
"e. c #9675B6",
"r. c #876DC3",
"t. c #8674C7",
"y. c #8176D5",
"u. c #857AD5",
"i. c #8C7BDD",
"p. c #8677D8",
"a. c #9778C6",
"s. c #9D7BDA",
"d. c #967AD9",
"f. c #997FE5",
"g. c #967EE5",
"h. c #A27ECE",
"j. c #A07CDA",
"k. c #8F8982",
"l. c #958F87",
"z. c #AC81B5",
"x. c #B19AAD",
"c. c #B694B8",
"v. c #BFA7B9",
"b. c #B8ABA7",
"n. c #8F83CD",
"m. c #8F92C8",
"M. c #9589CE",
"N. c #9C8CD5",
"B. c #9E92DA",
"V. c #8F8EE7",
"C. c #9A85E7",
"Z. c #8194E7",
"A. c #80A8ED",
"S. c #85BCEE",
"D. c #AD84CA",
"F. c #AA83D5",
"G. c #A696D8",
"H. c #B88BCD",
"J. c #B58BDB",
"K. c #B196DF",
"L. c #A483E5",
"P. c #A483ED",
"I. c #AC87ED",
"U. c #AD8BE4",
"Y. c #AA88E9",
"T. c #A684F1",
"R. c #A985F2",
"E. c #B48BEC",
"W. c #B98EEB",
"Q. c #B494E5",
"!. c #BD92ED",
"~. c #BD9BE8",
"^. c #BB97E5",
"/. c #BD92F0",
"(. c #AA98E5",
"). c #A9A5D1",
"_. c #BCA4E2",
"`. c #89C4EE",
"'. c #83C3F2",
"]. c #8AC5F0",
"[. c #9ACCEC",
"{. c #ACD5E7",
"}. c #A3D1EA",
"|. c #B5D7E6",
" X c #B6DAE5",
".X c #BADCE4",
"XX c #C3A7BB",
"oX c #C2B3B2",
"OX c #C598D3",
"+X c #D19DDC",
"@X c #C496EC",
"#X c #C798EC",
"$X c #CB9BED",
"%X c #C898E5",
"&X c #C698F1",
"*X c #D29EEC",
"=X c #C7A0D1",
"-X c #C9A2D2",
";X c #CCBEDA",
":X c #D8ABDC",
">X c #D5B8DC",
",X c #C9A8E5",
"<X c #CCB7E3",
"1X c #D4A1ED",
"2X c #DBA6EE",
"3X c #D6A9E4",
"4X c #DCA7F1",
"5X c #D8A4F0",
"6X c #D7B1E3",
"7X c #E4ABEE",
"8X c #E9ADED",
"9X c #E0A7ED",
"0X c #ECAFF0",
"qX c #E3AAF0",
"wX c #E6B3E5",
"eX c #E9BBE5",
"rX c #E7B7E7",
"tX c #CEC5DA",
"yX c #D6CADD",
"uX c #D3C8D8",
"iX c #DFD1DF",
"pX c #C3DEE3",
"aX c #DCCDE0",
"sX c #DFD2E0",
"dX c #D4E6DE",
"fX c #DCE9DA",
"gX c #C8E1E1",
"hX c #ECCCDE",
"jX c #E8C5DF",
"kX c #EDD3DC",
"lX c #EEDADA",
"zX c #E7DAD8",
"xX c #F2DDD7",
"cX c #F1DDD9",
"vX c #F1D7DF",
"bX c #EAC2E3",
"nX c #EBCBE1",
"mX c #E5C5E2",
"MX c #E7D2E1",
"NX c #F0CFE2",
"BX c #F1D5E1",
"VX c #EBE4D7",
"CX c #EEE2D9",
"ZX c #EDECD6",
"AX c #E4EBD9",
"SX c #EFF1D5",
"DX c #EDF0D8",
"FX c #F3E5D6",
"GX c #F4E3DA",
"HX c #F5ECD5",
"JX c #F3E9D9",
"KX c #F8E8DD",
"LX c #F7F4D3",
"PX c #F8F5D3",
"IX c #FBF8D4",
"UX c #F8F5CF",
/* pixels */
"..../ / ^ { { { [ ^ ^ ^ ~ ~ ~ ^ ~ ~ ~ ^ ~ ~ ~ ~ ~ ~ ~ ~ ~ ~ ~ ~ ~ ~ ~ ~ ~ ~ ~ ~ ~ ! ~ ~ ~ ~ ~ ~ ~ ~ ~ ~ ~ ~ ~ ~ ~ ! ~ ~ ",
"..........{ [ { [ { ~ [ [ [ [ ~ ~ ~ ~ ~ ^ ~ ~ ~ ~ { [ ..~ [ ~ ~ ~ { ~ ~ ~ ! ~ ~ ~ ~ ~ ~ ~ ~ Q ~ ~ ~ ~ ~ Q ~ ~ ~ ~ ~ ~ ~ ",
"..../ ..{ { { [ [ ~ { ~ ~ ~ [ ~ ~ ~ ~ ~ ^ ^ ^ ^ a 0 0 9 9 9 9 9 0 0 E { ~ ~ ~ ~ ~ ~ ~ ~ ~ ! ~ ~ ~ ~ ~ ~ ~ ~ ~ a ~ ~ ~ ~ ",
"..........{ [ { { [ [ ~ ~ [ ~ [ / ~ ~ / ^ E q q b 4.5.k.k.k.5.5.5.4.c q q R ~ ~ ~ ~ ! ~ ~ ~ ~ ~ ~ Q ~ ~ ~ ~ ~ ~ ~ ~ ~ ~ ",
"..X.......^ ..{ [ ^ [ [ ..~ ~ ~ ~ ~ { ( 0 b 7.l.oXBXHXIXIXGXBXBXBXBXb.l.5.c q T ~ ~ ~ ~ ~ ~ ! ~ ~ ~ ~ ~ ~ ~ ~ ~ ~ ~ ~ ~ ",
"............{ { ..[ { ~ ~ ~ ..~ ~ ..U b l.oXKXKXnXhXGXPXxXkXhXhXHXLXLXPXGXb.7.f a ~ ~ ~ ~ ~ ~ ~ ~ ~ ~ ~ ~ ~ ~ ~ ~ ~ ~ ~ ",
"....X./ @.=...{ ..../ ....~ ~ ....Y b XXKXKXnXeX8XbXJXUXFXHXFXHXLXLXLXPXLXIXGXx.y R ~ ~ ~ ~ ~ ~ ~ ~ ~ ~ ~ ~ ~ ~ ~ ~ ~ ~ ",
"....X.@.Z.C.=.......~ ~ ......~ ..i 8 FXBXeXeXbXbXFXUXUXLXPXLXLXLXxXHXPXLXLXLXcX, a ^ ~ ~ ~ ~ ~ ~ ~ ~ ~ ~ ~ ~ ~ [ ~ ~ ~ ",
"X.....O.-.V.| { { $.>.^ / ~ ../ U v oXLXBXbXhXhXFXPXLXLXLXPXxXGXcXhXHXPXPXLXxXGXx.c T ~ ~ ~ ~ ~ ~ ~ ~ ~ ~ ~ ~ ~ ~ ~ ~ ~ ",
"X.......O. .{ { X.$.;.^ ~ / ~ / i 8 GXLXvXhXHXHXPXPXLXLXLXvXhXhXkXhXJXPXPXvXrXbXiX5 a / ~ ~ ~ ~ ~ ~ ~ ~ ~ [ [ ~ ~ ~ ~ [ ",
"..X.X.......X.X.....^ ^ / / / Y j XXLXLXHXHXLXPXPXPXxXnXnXrXeXrXeXkXKXLXPXGXeX8XzXb.d R ~ ~ ~ ..-.} ~ ~ ~ ~ ~ ~ [ ~ ~ [ ",
"X...X.....^ $.;........./ / / i 3 eXxXLXLXcXhXnXx.7 4 4 M 3 3 3 3 6 v.nXhXjXhXvXnXwX< Y / ~ ~ ~ ;.~ ' ~ ~ ~ [ ~ ~ ~ ~ ~ ",
"X.X.{ X.....@.$......./ ../ / i 3 7XeXjXx.4 1 1 > r k A A C A A h r , 3 2 2 =XnXwX:X, a { >. .~ ~ =.C.-.] ~ ~ ~ ~ ~ [ ~ ",
"X...X.X...X............./ / X.i 3 z.1 , , e k k Z i.C.R.:XiX_.I.g.i.K A h - , , , H., Y [ $.} ~ [ | C.=.[ ~ ~ ~ ~ [ [ ~ ",
"X.X.X.X.X.{ X.{ ....X...../ U * + , e k Z J I I C.R.R.,XVXIXzX_.T.T.P.P y.i.F h r , + = T ^ ~ ~ ~ [ | [ ~ ~ ~ ~ [ [ [ [ ",
"X.X.X.X.X.X.{ X.X.......T 9 w e h G i.I P ).tXK.T.R.R.,XcXIXBX~.p.i.y.).uX_.T.g.H C s - w 9 R ~ ~ ~ ~ [ >. .[ [ [ ~ ~ [ ",
"X.X.O.X...X.X...X...E = - h D J g.R.i.P g.#XcX<XR.T.P.R.,XbX,Xu.L L y.uXkX@XT.y.y.P p.i.k e w = R ~ [ ~ $.[ ~ [ ..~ ..~ ",
"X.X.X.X.X.X.X.X.T 9 w k r.y.m.uX<XP.f.f.T.T.Q.U.L.y.D D G J D m m L f.Q.Q.P.R.f.f.f.tXaXB.H D h w 9 R ~ [ ~ [ [ ~ ..~ ~ ",
"X.O.X.X.X.X.X.E = k r.C.T.C.Q.kXmXf.T.f.p.D h ; ; O +             @ ; % k H i.f.T.Y.aXhXn.y.L u.8.h w ] [ [ ~ ~ ..~ ..~ ",
"X.X.X.X.X.X.T d F G.MX<XR.T.d.M.N.D C : ; . g 9.F F e.w.e.z.z.z.w.9.F F g X ; : x H G.Q.g.C.C.<XaXN.F t W ..{ ^ ..../ / ",
"X.o.X.X.X._ d G I W.MXaXf.d.m l & O g 9.9.w.F.&X&X/.#X$X7X8X0X0X4X/.&X/.F.w.F 9.> X : x H g.I.zXnXU.L F d W { { / ~ ....",
"X.X.X.X.W d F L I I Q.n.x % O g 8.e.OX@X@X&X$X9X#XE.#X7X8X8X8X8XqX@XE.*X7X4X/.@Xh.8.F : . & x G.U.P i.C.8.y W ..../ ....",
"o.X.o.R = f I F.J L k # : 8.r.F.4XqX8X7X&X#XqX8X7X/.#X8X8X8X8X8X$XI.#X7X8X#X*X@X*X4X2Xa.r.F : % x P L ~.Y.k = ! / ..../ ",
"X.X.O.U X m u.D f % s w.OX2X#X#X8X*X*X8X*X@X8X8X0X#X%X*X*X8X8X8X@X#XqX8X7X!.E.$X7X7X7X/.#XW.D.w.: & f G C.y.$ W ........",
"o.o.` = x I z O : 8.h.4X0X0X7X$XW.@X%X*X7X#X*X7X*X#X#X$X9X0XqX$X#X7X0X7X$X$X2X7XqX7X@X*XqX9X0X1Xa.F : # t.g.f w ! X./ ..",
"X.o.( X z k s e.OX4X*X$XqXqX8X9X#XE.@X4X7X7X#X,X4X#X$X@X$XqX$X#X7X0X7X@X$X7X7X7X#XE.*X7X8X7X4X@X$X/.D.q.g x f   R X.....",
"O.o.) o o > r.L.@XqX8X$XE.#XqX8X7X2X#XE.#X$X~.@XU.@X^.f.j.I.f.I.%X^.U.$X7X7X@XW.$XW.*X@X*X@XW.$X@X*X/.s.F $ o o W X.X...",
"O.o...` T n : h j.J.:X7X5X$XW.*XqX*X@X@XE.I.Y.K B S V B N N N N S S B a.U.E.$X2X@X$X@XR.W.1X*X@X^.J.d.s - a T R / ../ / ",
"o.o.o.o.o...R n - ; M h.J.+X%X#XE.@X#X#X@Xq.B z.OX=X=X=X+XOX+X=X=XOXOX0.B a.*X@X$X@XI.#X+X-XJ.d.j $ - Y ] [ ..X.X...X.X.",
"O.O.o.O.o.o.O...W W n - $ < S j.d.s.j.j.q.e.-X:XBXKXGXHXHXHXHXHXJXKXnX:X-X0.r.s.j.s.d.s.M : & - a R ` ..{ ..X.....X.X...",
"o.O.O.o.O.X.o.o.o.o.X.Q W Q n @ # # # # V >XKXGXLXxXcXLXLXLXUXUXLXLXHXGXGX>XM O # # # % a Q W Q [ ../ X.X./ ..X...X.X.X.",
"o.o.O.O.O.o.o.o.O.O.X.o.X.O.} _ _ _ _ R *.Q.,XMXZXlXCXJXZXJXJXZXZXJXZXjX,X(.' T _ _ T _ [ X...X...O.X.X...X.X.X.X.X.X.X.",
"o.O.o.o.O.O.O.O.o.o.o.X.X.;.,.o.X.X.O.O.O.S.;X^._._._._._._._._._._._.^.tX<...X.X.X.X.X.X.X...X.X.X.X.X.X.X.X.X.X.X.X.X.",
"+.+.O.+.+.o.o.O.O.o.o.O.o.O.+.X.X.>.-.O.@.{.HXVXVXVXVXVXVXVXVXVXVXzXzXVXSX[.X...X.....X.X...X.X.X.X.X.X.X.X.X.o.X.X.X.o.",
"+.O.+.o.o.o.+.o.o.o.o.X.O.X.X.X.| C.C.=.1.HXPXPXIXUXLXLXPXUXPXLXLXtXiXLXHXAX:.{ X.X.X.X.X.X.X.X.X.X.X.X.X.X.X.X.X.o.X.X.",
"+.+.+.+.+.o.o.o.O.o.O.o.O.o.O.O.O.>.-.@.[.PXPXLXLXUXLXLXLXPXHXLXLXZXHXzXlXLXS.X.X.X.X.X.X.X.X.X.X.X.X.X.X.X.X.X.X.X.X.X.",
"+.+.+.+.o.o.o.o.o.o.O.O.o.o.o.X.X.O.O.'.ZXIXLXLXLXLXIXLXLXLXkXGXHXHXPXHXHXUXfX:.X.X.X.X.X.X.X.X.X.X.X.X.o.X.X.X.X.X.X.X.",
"+.+.+.+.+.+.o.+.+.o.o.O.O.o.O.O.o.o.O.{.UXPXLXLXLXLXLXLXLXLXLXLXkXwXcXUXPXUXLX'.X.X.o.X.X.X.X.o.X.X.X.o.X.X.X.X.o.O.X.O.",
"+.+.+.+.+.+.+.o.+.O.+.O.o.o.O.o.O.o.2.ZXUXLXHXLXLXLXLXLXLXLXLXLXkXrXxXUXPXPXPXAX:.X.X.X.X.X.X.X.X.o.X.o.X.O.o.O.X.X.o.X.",
"+.+.+.+.+.+.+.+.o.+.+.o.o.O.o.O.O.O.[.LXLXcXcXLXIXLXLXLXLXIXLXLXHXHXPXPXPXPXPXLX'.O.X.o.X.X.o.X.X.O.X.X.X.o.X.O.O.O.o.o.",
"+.#.+.+.+.+.+.+.+.+.+.o.o.o.o.o.X.'.ZXLXPXLXLXLXIXLXLXLXLXPXLXPXPXPXPXLXUXUXPXLXAX:.X.X.o.o.X.X.o.X.o.X.O.o.o.X.o.o.O.O.",
"+.+.+.+.+.+.+.+.+.+.+.+.+.o.o.+.+.}.LXLXLXLXLXLXLXLXLXIXPXLXPXLXLXLXLXPXHXHXLXPXHX`.O.o.X.O.o.o.o.o.X.o.o.O.o.o.O.o.o.O.",
"#.+.+.#.+.#.+.+.+.+.+.+.+.+.+.o.'.LXLXLXLXLXLXLXLXLXLXLXLXPXLXPXPXLXLXHXmXkXLXLXUXAX:.X.o.O.o.o.O.o.O.o.O.o.o.O.O.O.O.O.",
"+.#.+.#.+.+.+.+.+.+.+.+.+.+.o.%.[.LXPXUXLXLXLXLXLXLXLXIXPXLXPXLXLXPXLXhX,X6XJXLXPXLX`.+.o.O.O.X.o.o.O.O.O.o.O.O.O.O.O.O.",
"#.+.+.+.+.+.+.+.+.+.+.+.+.+.o.3.ZXPXPXZXVXLXLXLXLXIXLXLXPXPXLXPXLXLXLXLXhXlXLXLXLXLXfX:.o.O.o.O.o.O.o.O.O.O.+.O.o.o.+.O.",
"+.%.+.%.#.+.#.+.+.#.+.#.+.+.&.}.UXPXPXiXuXLXIXIXLXLXLXLXLXPXLXLXLXIXLXLXLXLXLXLXLXLXHX'.+.O.o.O.O.O.+.O.+.+.O.O.+.o.+.+.",
"#.+.%.+.+.#.+.#.+.#.+.+.+.+.3.SXLXFXHXHXHXPXLXPXLXLXLXLXLXLXLXLXLXLXLXLXPXLXPXPXLXPXHXAX:.o.o.o.o.+.O.+.+.O.+.+.+.+.+.+.",
"#.#.#.%.%.+.%.+.#.+.+.+.+.%.}.UXxXwXkXPXPXPXLXLXLXLXLXJXHXLXLXLXLXLXLXLXPXPXPXUXUXHXkXZX].#.o.+.O.+.+.O.+.+.O.+.+.+.+.+.",
"%.#.#.#.#.+.%.+.#.+.#.+.+.3.AXHXcXbXkXPXPXLXLXLXPXPXPXkXxXPXLXLXLXLXIXLXLXLXLXJXHXUXPXPXAX:.o.o.+.+.+.+.+.+.+.+.+.+.+.+.",
"%.%.#.#.#.#.#.%.#.#.+.+.&.}.CXVXLXLXLXLXLXLXLXPXPXUXUXPXLXLXLXLXLXLXLXLXLXLXPXkXGXHXxXPXLX`.%.+.+.+.#.+.+.+.+.+.+.+.+.+.",
"#.%.%.%.#.#.#.%.+.%.#.+.3.SXUXLXLXHXHXLXLXPXPXLXPXHXHXPXLXPXPXHXHXLXLXLXPXLXPXLXHXbXwXFXPXAX:.O.+.+.#.+.+.+.+.+.+.#.#.+.",
"%.%.%.%.%.%.%.#.#.#.#.%.}.UXUXLXLXcXxXLXPXLXPXPXHXyXjXHXPXPXLXlXGXLXLXLXLXPXLXPXLXhXjXFXPXLX`.+.+.+.+.+.+.+.#.+.+.+.+.+.",
"%.%.%.%.%.#.%.#.%.%.+.3.SXUXLXUXLXLXPXPXPXLXLXIXcX3X3XFXUXPXPXLXLXLXLXLXPXPXLXLXPXLXLXzXHXUXfX:.+.+.+.#.#.+.+.+.+.+.+.+.",
"&.%.%.%.%.%.%.%.%.%.%.3.dXIXLXUXLXLXLXPXPXLXPXLXLXvXlXPXPXPXPXPXLXLXLXLXLXPXLXLXLXLXLX;XVXIXpX:.+.#.+.+.+.#.+.#.#.+.#.+.",
"%.&.&.%.%.&.%.%.%.%.#.#.3.gXUXSXLXLXPXPXPXHXHXPXLXLXLXPXHXFXHXPXLXIXIXLXPXLXLXIXIXLXLXLXHXpX:.+.#.+.#.+.+.#.#.#.+.#.+.#.",
"%.&.%.&.%.%.%.%.%.%.%.%.%.3..XgXPXUXUXPXUXcXxXPXLXLXLXLXhXwXvXUXLXLXLXLXLXPXPXPXUXUXLXdX X:.+.#.#.#.+.#.#.+.#.+.%.+.%.+.",
"&.&.%.&.%.%.&.%.&.%.%.%.%.%.%.&. X.X.X.XdXUXIXUXIXIXPXUXcXbXFXUXPXUXIXPXPXLXpX X X.X{.:.#.#.#.#.+.#.+.%.#.#.#.#.#.#.#.#.",
"&.%.&.%.&.%.&.%.%.&.%.%.%.%.%.%.%.%.%.%.3. X X X.X X.X X|.|.|..X X X X X|.|.:.%.#.%.#.#.#.#.#.#.%.#.%.+.#.#.#.#.#.#.%.+.",
"&.&.&.&.&.%.%.&.&.%.&.%.%.&.&.%.%.%.%.%.%.%.%.%.%.%.%.%.%.#.#.%.#.%.%.%.#.#.%.#.%.#.%.#.#.%.#.#.#.#.%.%.#.#.#.#.%.#.%.%.",
"&.&.&.&.&.&.&.%.&.&.%.&.%.&.%.%.&.%.%.%.%.%.%.%.%.%.%.%.#.%.%.%.%.%.#.%.%.%.%.#.#.#.%.%.#.%.%.%.%.%.#.%.%.#.%.%.#.%.#.%."
};
