/* XPM */
static char *floor[] = {
/* columns rows colors chars-per-pixel */
"120 120 60 1",
"  c #74A916",
". c #76AA19",
"X c #79AB16",
"o c #7CAD1C",
"O c #7EB11D",
"+ c #7DAE21",
"@ c #7EB221",
"# c #82AF1D",
"$ c #81B017",
"% c #84B41E",
"& c #85B81E",
"* c #89B61E",
"= c #8BBA1F",
"- c #81AE22",
"; c #84B423",
": c #86B429",
"> c #86B923",
", c #86B929",
"< c #8AB624",
"1 c #8BB62A",
"2 c #8CBA25",
"3 c #8DBB2A",
"4 c #8AB630",
"5 c #8EBC31",
"6 c #8FBE38",
"7 c #91B727",
"8 c #90B72B",
"9 c #91BC26",
"0 c #92BD2C",
"q c #99BE2E",
"w c #90B731",
"e c #94BE31",
"r c #94BD38",
"t c #99BF32",
"y c #9BBF39",
"u c #8DC127",
"i c #8FC02B",
"p c #8FC031",
"a c #93C027",
"s c #95C12D",
"d c #99C22E",
"f c #96C132",
"g c #96C239",
"h c #9BC334",
"j c #9DC439",
"k c #9DC835",
"l c #9EC93B",
"z c #A1C436",
"x c #A2C53B",
"c c #A0C836",
"v c #A3C93D",
"b c #A8C73E",
"n c #A8CA3E",
"m c #9EC640",
"M c #9FC941",
"N c #A4C641",
"B c #A5CA42",
"V c #A8C742",
"C c #A9CA43",
"Z c #ABCA48",
/* pixels */
">>3p3;,@;3q9q2o+pipkh93shfkfq229*9hfsi302ss22330hssqhe332999<2,s=&,3i1>:o%309s3o+,eqhq070kshhq,89<9thee303h99>293he09fs3",
">;3320>O;>>99<%,2$Ohhheff3fk9ts3<0332o>30ks2&&3js3sska32s9a=*23s,>>3310,%*3;9d2%:3%%tkhefg3hj3fs32e383-;80hd9*%3he9sskss",
",33>2999<;2hdq132=2qxhqs03s3#hh<e3;>u@3e2se>&>gm,shks=9ds2as333>;23233099<*9ddq2u3>2qxhee99tw;eg333;<8;3s9dd<;1rl30hjf2s",
"g3s2s9qhjhhxnhwe29eqhqs3eff2<<3<030g;;s0=2s3>3ge3gf029khs999s3>0ee00309ehhztbzz9f5qeqhes3shh3;22>330h1-w0&=qq;,hr1fge23j",
"j0s099hjBxCNxhmjheeehth3seg02>*300sh3,h8*>sppee3*;;2slBe8sh3fe:fjj3hq89hvCxZxxtxjrheehhh,qeh02>><qqee01h9*=he03fu::-<smN",
"93>khhlhNxghkqjjgferhej8>2h3<sqhks2e05h9&&2;3fqe3;O>2j35sehe3<11f922hjtjyvhxqztzhhfsejqhe<>h3>9sjhs8eewy9%<2;8h323;;33g5",
"s9dh3sklg83ehdh89e,0heje;29=>&>he3393hh<>;>;ee8s33>22>+8sq00s,eevdash8ejjy79qghh80s20hqhs*=9<<>*rt9903ej<;<;;0e,s283*>;.",
"22092f3ge;>9qhh9s232shw;>2=s2&szvhshhCj0<2,o2hq83hhhfp0q9hq3ss3gk9=993e0je:-80hh0092&3he;&&=03;qzxqshhBjs2<,o3eh39hhhsq9",
"=9s3he13:+o>03<2suu>si:-;*2s2sznx99thxe1q3.o<qq9qhnlNnhq9dh9f3*2929s9dd<3:o+;93>8hq>&091--@,3ielxk99tzje893OX>9h20kvVVVz",
"assss30e:;;93%<hjpO,>;%o-,,3snnh939hhq1hj;o29hh9qehjxzt9*q832,%3ch9h99qqs>;;03%<hhs;>>;;++:333vBk939yze,hx;o>9hh9sshxxjh",
"dsd9q0ht:3932>hnp1;;:;;;1022hkhd99qlw99Bj>,hxyh23se2hg53<8es<9txvhhhqqqhf29332<dnr3>O>;;;<032fkhs99hx09iBx,8kzhh330e1ygw",
"hhh0hhtjgrye9232;;43>o>3530feh8322hh39qh;<hxhh8q0q3o;24:113323hqhehhshhqjgres2232;;,3>.;3330ffs3=28jh733f->gxhq2s0q3-;11",
"BlfelfkhryNh9*2ieeg2..98g80q0h03askf033;%3hz07<ttq,%;@@+g1O*20s29vlhevjehrelh9<20eff3.o33h98q3es99shg000<%0hht8&eeh,@;@:",
"hefhe;@0g3rf0,,lxxh>%0hjBgs0e9>2&2g9,rs23skhqqhg8q<;3:+g53=*9s900dsshf<;3h3qe0,1jxxh<%0gjBtrse3;==>l0>fe>9tthhhfg3s2>:;+",
">330>@>i30eye5e09990txxngs0eh2>0>=22hv90pe0dqqq3w0h098s0@>399>fk2233e>;:e33fge30r9999sjvBhqqqh8;s==3,eB099q9hqqf050q003e",
"99s0;@3es8tje1222929hxhqs000hsss2=&&383gg0<39h8;,tzh3333>i092glf299ee@o3ep3fNe13*2998hhhh8990hhsh9=%>133hg0*99q3->rkh305",
"9dhse3009q999330h020qh9qs9399390&&>23,;<>23335;@;ghjeii2hksfsfs022shff3s9ss332939ds83qt000923333s2**3,3@>;>902q;%@hhhhq0",
"99q0<%30hda*;<3h9s9hss<3090;*3s,&&>i23<;@2>233;;5:;9hkeehq0kh3e3=2993>O>9sha&><8h8q9qqq<29u0;;3e3>><s33>;#>>>00<O32%9hje",
"s2*3<#00qh3>;1le3shd0s0h29e9,3p>,>23<93,>>*9ks1,2,;2qxjhe29g39l0>s9;2>;03qk9&%1lg8ehd9q9da2ds28q>,223*20<=*<9he,>2><3hjx",
"9203-:h13s9<;eg3ejh8>sdd93q0s;333e989s3fre0klnew3200htq90geh-39>99<3i;;f31eq>;fgeejhs29hd9293s:333e893s0hheehxvs39308ttq",
"2sge<7q**,hw3re>:>>2hljq9d9qh<0hltsq090jxVNCzxrxseffhtds3eqs<>*%89sfe>3e<<3fe,se>1:;3sxls2fu0f28hxee0998xxCxCzxqxeeefrhq",
"d00s90q<;e11fr51>O>2flr0sdq9111et939h0jjNvvzhhyvhg3shhse3;qh<33qhhsee0sh>*341fg01>o;3hlf0sfk93<1er003hsjzxxxkzzznjheehhe",
"02038g9<<<%3r89s2;>>3+<8d9qe85ehh03hhsyxjye0hhht3ss0hsgg2%99;323he30w3ge*>>;1f80h<<;<3+;9dsse313yxe9dkshjytettkde8s99hqt",
"k0kemBr8;2%2ss920hr93299d9300eelh99s<7txj1-<stxt20222fei;2<9s>1fjh3eqjMf3;>>>sq09qhq83<s99s390qsxj89s23ejj3->qdkd2a922qt",
"h90hBge,0>.;2k99hxCxvhqd9k9qs&>332908j888;o;1039030>3re:@>$292qxxk9sqnh920<.;2hs<hxCvVhqa9xq9e<&222299h930;+@33229a9=2ep",
"290lf93j0oo39z9ddhvjlhh29d393*>eh9tq0s308>o,e<$3kk2>>>;++o230svnh299ht03g9#X39d89dhxxvhq>8h998**9h0hs9s390>+;e>$=kk9*2,@",
"09hfe2kB0;ehhhd990qeje519992>8rNnttq99dj11,33>3lk9>;;;;>@5e>8hnjqa2hh03eCe<9hqhh939qelq3<30s329sxChfh99qh11133*3kxq<>>,@",
"9sl393he;9ljh999ss=op55:13s9<sjjhqktshhhjg3e329s1;,3,@@,,330ehs9229nq93hr;0jxhq9qqf>o31e:>209>qjxttjtqhhjgr5s9>2s<:<,,>o",
"9hge839#*skg0<9h92%;o;-432$>2de3hxk8jBgjrfgj92>3e3we; >39s2sqqs220she233%%qmx9<<es3;;-;-:p>O>2ef1sxc8hNgjygrj33<3993e; O",
"<hh10q39qexeh9eees;>;;-e22%20s08hjhfhe11ffegh330Njxe#%ewBhdsq092>;sk2sf229qjtdqtef3;2>@:p32&2is33hlkhhf<<tf3gk,>0lxxho@3",
";301lh88q9ddsehwee9032f3;*<s3ege22305;-<08srw02she033exvNhs0hg%23&232lj3398hhdeg3ep0ss1g3;>:e33fs22990>-<08ess33ehes22fj",
"22>,e9sjh<=ass>:3hl0383;<2932jl9a93e:+;qs30lh0223292qxhhh8a90h3fs3>;3s3ijf329ss>;3hg0331<;2003kl30aaq1.>9s90kgs3,<822hlj",
"&O>31;,3>39302;;3jxh0999khqshhh999ehg33e009933>>qq2<9ht9s92assusq2;>2,>,3110903%;1llh9s92kfsqehss39fhf33s9s09>9><sq2<0ys",
">>3p1><#@i220,.;017hgq99h8hh8293<qqq9,<92ks92>20hq0qdq8322a2$=3i2;>,p3>>@+33,s3#;3>2hhs9sh3dk0333;sef8,;9sss3=33ssse0hda",
"2;32,h3*>&>qs22,2;>ejhhh99he3hd23s,22;100dh>$Oex88qhhs9sd9aa22p3>2>22>e,;&&>e0<<3,>>shhhgs2qe,hf23e3,8;;00df2O#wl99hzt9q",
"0993989h999xnh28233shh9q0qe<%s0232;82owh>se2&2kh3hhh83ehs99q331,>3332i03g88exbk813,29hhq03sh3%ee238;93$2s30e3;3jr3ehx9<q",
"l3e903qhBjVVbqqh9sheesh<ehh3>&*;29fg>;s,O>ei3,fi>3311gjh99s9fi:fgk3s3s9exNNNbxy0g3seshqe3qeh92<><93gg>*03&>se51re<3223hx",
"003hq9hjBxVxxhxjheweksf338h2>33shs0f53gs>>f33ge,;;%2eBle9dh9f3,eh003qeshcNjVxjyNxheehhhf332h9>>20de9e33hs>>p45gg3<;o,elx",
"920xhhxhNrhthdhqefehh0l0%*h>>38hh09e33f,@u>@e09s2&&>>3+3ssdse133hq98jhhxhjghqzths0esfh0h0%=q9>22qss3s38y,>>>-re0s9<%>>3+",
"s0s0<ehxf;>eqkh99023sfe8*3393&2hf9ee8jl3;>,@ef202f299;<99d32e5ehnh0se<wgvt;<eyhh3qs22efh9=2=92*2hh9sqexx3>;,;et993t031>;",
"3390sf3s2@@23sa9022>sf3;<<3s,2qxBh9txlh933@@>th98zxvkke09hh309209<399eh1s,@@:0qq9s33>3f0;%<<s23dznq9dxNh93p@o&qh99xjCjxt",
"99s0e089,@@30%;9ks%>2>;o-;38shbke29hhh99h<.@8tq8hyvxnxhq9qf0e>*>q99s9eq13,@@19<-8jh&>i,;o;o2i9hxxq99dxh30g, O2qh2shNNNnj",
"ess9s0h0@;,32%qlh,>*>;>+-e3>sNnz=29hs82lk<;pthk938ehzh09*s33;32enhss9sqhr>;>02*0vh3>>;;>@;p3;qnnk939hh9<mx%%9hhh029qtjjw",
"ehk9sehhfess3>eg2>3&>o;<2933hhq999hk38eBe3ejkhq2she;8tw1;20e<2hxxthkqeshgee39299h2>,;1@@>2338hhe992hx898Be<qxlj9a9hh-3g3",
"jxtexghhryge3>311189Oo39s33ges929ahh0<q8o1hxt9<q932;;+1;03<>29h9qhxesjkejrfgs2>33113eo.28q38hes92a9hh8399o<hxh0>093,%-+:",
"vxyhks9sfehh9<1hjjl>X;e0B5fs3h3299gq89a>30hhqq3f0e2o;@@;r9>*2s029Bxhele9erejge<<rjjl2X%welee98h39>2kt339>,qhhqq2fsg2%>@;",
"999f8%#3e5ee933kghe<<gjnlfeeh2;2*2h80ls299fktqhhwq32322e<<>2s20f9009f0-o3eeefe81lhhs<<hxNlrfqh<#2&>d92kf299hhdqhke0339<>",
"2923%O203wfle90>3399xjxxs20sh33f3=*<fj3ftq>s9qs:0ths300,;>3s23kj32323;;20e5emf092222qhxxxq3sqhq3f3><<ej3ehh399ss:1shq988",
"9qhh3:ee000au2==si22shqq909ehess2*;2>3,ep3>39e2;:yxk99s80h000kzq99seh3;ee030q32*29939qdsss999ke0su&&2211e33239s>O;fxxq90",
"89esw1300h2=>03eee0hh923399<<,0s>>>e3>>;@29300@o:e8hdsq3gfsht889<3qhf31300k2<<93ssq9sqs992992;3si,>>i02;>@>922sOO;f3hhh9",
"s933;-29sh9>O<hg3eshtq2asqs>;0q33;>3,33&@>$2e3;;3>%<hhshh88ke3h0>9913@@10sk3<%1rh3q0qss2as9s2*9e33>>9200:;;%<s9>;3>#<hhh",
"9;;01>d99h9;;elsehhs29qd92f0323>>0332e2e122sxk9,2238hkese0qe%2k03q<;p,;f02k2<;fMq3hks99sd92ss9<3;<w13209083<scxw33323qxh",
"39f5;2s*<3f,2ef25re22hhd9s89h*3frr90900jjlhvxxqq02ehhses0heq><<<332he@,f>=3f22er23ee32qcs9998s;3eee3e0q8jjnhxxnqr09hee0q",
"9efe<0q<<0f55g3;>;@0jCk99hs9e>wtj0s0e2egBNVCxkhngh0ehhes29sh1<<<ssssf,if=&ueewfe;>@@5hvc99hq0e30gj0q0e3qgNNNCxxyBtj8shhq",
"s3q03ee:&3,:fe3s>$&=f3,9shh9,41rs2<slskhjxhyhdhjeheegehh2%sh-99qje9eei0e>&2;>re0s;@;<e0<aasd93:1tf33exhjhjNghththhheshhh",
"s9q8eN3<%&;1f09890>2>o23s98s06rxv09h03fjj8<8ddhe2s33qefh<;98<2*9hq2e08n8>>>:1f0932i>2<#<as99005exve0h01txjw18hhhh9s32seh",
"kqdhClf33>@o0h99txjyjqs99h99939h929a2e0qh>-<99dss2923he2*2>9s>9hbb9stxbt331@-0h92fjxhy0t99hq9990hq29s8rf0h1;;3qsa99222fr",
"099hge8w9O.<3h99jjZNChs33j0qs%<392aa9h13,;.-89=2sf9*252;;o;09sknzq9shht9we@ <2k93kxCvCjt97h9sq*<19<q99h813;.+32;3sh9>up,",
"<9sks2eB9$>ehks90qxyjfe>3f3,223hxshss9qf1:;1e>%elg>&>:;o.:u<2zCxd=99ha98Ns$;eqhq20qjyxth<3q33<2<ynqhh909h8;>39>;0jj<>>O&",
"9qvs33lB93hjhh990h81je5,,0h,<0xxcqhs0shj5p33929xf2,;,,O>>33,0khh9q9vd99hB3,hjhh99ss31j03>23s22dhnkthh99hxw539929kh33;;2O",
"0sk932h<#exhq98003;;::::3<,93ehqthhqhjqhjgeh92332-15,o%3393httq329qh992h1o0jjt89s29<-::1:4,<23fh0ttzqehhhjgrh89223%;3,oo",
"0eh009>>8txsq<0ee9O&%;@302%13g92hnjtjxddergje<*3hygr# >3th8889s899qh99s8;3flqq99ss0;;@;+65,;<9s91tVxqgletefrxt3;3hthg;.>",
"%hh<ek33eqxqhejeq,2,,%5e22%3eissqesee2$;eeete82evjj9%3hjBjeete<<3%ee<tj83eejhdhhqq3>33+1e>>:9q9eq9qqeh1;-ts3te323Bhk0*3g",
"<3<1ve3ss39sss83ehe0030;%>30<0l93299,;;3q80jg03s3289qhjNhq0qhg<8s>><1Bg30e09s9q010he335f<*<3e<8js2=331%;3e,shh08033920jl",
">**2220ke2<309;:,jxs22u>0s03sll3ssses@2ss93je3>=39290hhes9q0hg9h0=&;3,3irf>>2s8;;,xxq29939f000jj0sash9;;ss39h99<<39299hj",
"&&2s2O>;;0s303o@3ehks030kfehe309>9hff5202s32,323fe99ss099922303s2&&,i,@,;;3s993#o3thhq980jqshrw90<9ehf0,s3s99>993sh99sh9",
"&O2i,3;;>>;802O3,%%hxthhg3hl0e0,>s03>;O2sddu&O3es0ssda92q302%<0e2<;33>3,;;<;303#33%;hjhfgh2djees1<a803;;9ahd>*;1se0esqs9",
">2u>3p>3;<9hh3223><9xjee33s3&hh300;23O3h2ds=*2gB3egks9add9sf335,<,33>2333<<9hhq<2><<qhhee03q0;fh3s9;>3;<s2ds2;<hl3erkd9s",
"e3e,i3skjttvck8e39fsdee8shd>$323033s<#se=9h3%1gr3hh927zds990e,:3qe3s2susjyqtvbk8e38sqhsq3ehq3%23,093f,-9s>2s3>3gr1gje39h",
"k0s939hjCNCvzqxgfreshsh<sqd02><209ff33h9=>e0s8h3;;;2aNNh2sq9ee,rjgse003hxCvZbzyjjeqeshsf20sh92;;>s9ef31s0&&ss30e3;>@,qxb",
"383hshxhBxxtzqvjgewehshe>2h2299hk09h98h2&=3;0g082;%>2xe80shs9,:5h093gfelzNxjyzhjyyt00jeh0<<k9;9shks3ff3h0>&2>3h003;o>3hr",
"f9hk8rjjh8qhzdh80t8hd9hs$=3>,<>ss8998rh<&&*;e33e22>>>;o00qqse3eflh9sj0qlkhw0qhhh90h3efqh0;<9<3>>ee93e1sh&&&;&s08e33<**<o",
"2292<rwjf;@5ehh9992=0j0;>22s3>0kxeshyVke,>1-3sq99hhh0000qd0700eek92a9<erhe;-3sfd9999>3f0;>>2q9&ahksqhhNl02>,@2hq23hghe98",
"2as9sh<9<o@:9399qa=&qw1;;*2s20jnn99ejjewe9.o>qd9qjlBVvt09qz9h3<2929a9eh183o#>0239s92*ee,;;;2980znxs0qxxe303oO<8h99jnClnh",
"ass0e900>;@50%2fks&=>;@oo,>=9NCx999hjq1gg*o<qhd9sexxvxh8%h079<;3hdad0e08e,>@30$*fle=>>;+.+:338bZx920sh03rj>.;9zh9sthxxxh",
"dsh30slf:5332>hvs3;;>@;:>32>hxzd02qle98Bj<9kzdd230e8jj83<3qe;,qxndqh9eshe:3129>hvf,<*>;:;<0,<tzxd9aqxs99BM>3hhqh999q3hg4",
"shheytfjmws32233;;<8;o>3339hsqs2>9hh220j;<qxhh939e3@>1w1<130>2hhhdhjtthhhhfee>383:;,3>o>3220rhs93=9hh299j:;fxkd29903O;35",
"NxttBjgfeyBe0>3eeer2X.03f39s9g093qhh028<;8hh031esi>%;-:+r,&$=0q13nlttNjhhefmgq>3seee3.o33h9009g099qhha221#3gxq9<qsp3%>o:",
"kqdhe,>3gref92>mxkh*;8fhBeq900<3*2lw3hf,3ekkqheg0p>;1;-ee3><3s9e0hhqhf1;8g0rhe11xxkh=%3hlvtess0>2=8hq1th99shkqdsh0e2*3>+",
"9799>@;i5wqes23f8q99sjxngq9qj1;q2>31fM330q9zshfes0ese3ee;;>9s2ej199=0>;O903fte38f9992sjxBheesh3<a<211eNe1qq9hqqqs03h9035",
"aas0@@3s08sk032<9999fghhe0s9jfeh0>&>293fk9<<9d3%<txh3933;sss<exh99s9r-o3qs3tx923=2299hhhfe0sihf0d92O22s,hjs&29d3o<ekz708",
"9sggf,s99q923329d98e0qq99923e003,O>,u=;>><9920>@;ghgh999shseqhssq99hht1e99q932932hs99qq090s29e3sa>=>,2,@,;>2q9q<;;ehkttt",
"999s:@,9dh9<21eh8hqhsd23990>&2s2>>>p3,,&O>3>33;@1,#qjhq9he0jf393<39q0<%<0hhs221wh9a0hdd729ua;%,09*<>s22,@o,3<99%+,2%8hh9",
"a9;32;09dd3*%3jh8ehdaa9h99si33u,3>,3>322*=*8h8<32>*<hxhqq30h39h9303;,1%3s9h3;%3jg3qkda99ds2d930e<<<13>up,>=&9h971,<%3hxh",
"9=99;:h9=q0<>rg8ekh9=9hd99q0e>113s033q9hsq8hnNew9399thq93fef-<0399;38;;h22qs<:hg30jgs>9hh92s8s:3110303s8gf09hxx09q380eht",
"9sfe;99*=2e81eh>,,<9tlk02f8th>ehxes0001xxBxnxxeje0thtts93feh>,;<33sq0<3s&&3he9ee<,::3sxke9h29h<8hjfqq909xxClCxzqxe9sqthq",
"h90s8eh>*932sf0,1%;3gje9shq98:,eq999h8jylNBkkzjBgg8ehzhe3<ek;330he9eq39h>*281eg31:@@3hle9qfh98:5eh893heyhxBxcxjjBgjeetht",
"93003h8%*&;3e3qe<<<;0;>3t0qq93wggq9hxejjjfeeqhht3eqqz9hg1;93>u23hq3ee3hw*=>;:f0sf1<**3@;9q5hs314hh93hxtjxjteqhhtg3ee0het",
"h9eejCe3;;;,ss99qh080<32q939sefmk99e33fjj1-3fhhq3s222hh0;222s&;hhh0hfgBf3%<;>es38ehq33>99ee39seelk99h11ehx1;,ehhs2s223hf",
"h9qhlje3i>O@3js2hzVkvgeq9c93s*20=2900h830;+;30s9s32>2ee>;>&39>qxnk0efBge3s<o;<k03jjNNNjes9gq9h22q9<8q9h910-+;8999s2a22fe",
"3q0jh9<h0O 39h9shyvkvhh39d2s3>*2s8sq8h303>o;p,%2hh9*22;o+o>29hnCz999khq2he%.:9h09hhCxNzh23h892;*9q9h09e389<+>02o2hha&22;",
"29hg93hC0Oihhkq299hejee19002<0qxBqhq09hh::>33*,lls2>;;;;@,s;9hxh989hh23tZ8*8ghke898ttxe5>3q92<3eNbqtq8sej3>>33*=lv0>&;>@",
"2ql339jh>3xkks99qf>;f55:29s93qhzqhhesddhfr5r323h1:<,,OO,,3889hq939sN022kj:9zxce990f2;33e;13i9*qjzttttqqtjhh3s932fw<<2<>o",
"0tjw320+Ogxh0>8e93;@+;-43<%>=ht2exgqjldhtyjj32>9013s; ;iee9qhqh23sqhs299-%qkh933h02;;@-:4e>%23he*tNx9hnyxtytx93<3117e1.@",
"&hh10q,,eejqh3fqe3;>>;+e33*>0s89hkhhhh32ryejh2<9Njjs%%peljeq9t822<fh38q329qkqq0heeu@;,--we=*29s89dxhyhr13fr8kf,>5mjxh@@3",
"&0q1lj989qhhshh5ee0881g3<>>e03he3939e;#>ee00e31tyre9<ejjBge8yt#32*2q:xh999qhhdfh5es3e5:g3;&>e93hh9=3we:;;03s3033wmtq22sx",
"==*3f3ejg329qs>:3jk993u;;3s3,hx339e0<o>0e3sBgeu,&299dkkhg0assh9s0u&*3e08jh=2ads3;3yk0993;O208<hn08990,o;5e8elje332220skz",
"&%*32>:53>99q3@;3gxh9023hf09hhhs39hhh,3ee03s33>&ss299fss0092eh3ss&&;3<<,03u2902%;,xjh8983hksehhe999hhf,3eq990132>0s2=stq",
"**308>>+$329q3+;i23hh03sh9hg8232;iee83>00ff2>223hsqqhq92229>%;3e>>&3s3:>@o22293o;p28zyq0thqhje222*9eh3>>39hs23330f0q9dq9",
";*32<9:<;&&s8<;,2$*hxhgge3fk3hh33032>%>ssef>*;0l89qhha9sd9a039e832O23<e2;*>&eq<<32O;9xhhht<rh8kh>2s3,2@>9qhe>O%0je0thhsa",
"339>s98t7<qkxh302220jhe0esf>;ee202O3uOif2se2O3gg3hhh93sds29q983:<2333903h83ekxh993230xh8q3es3%fh2s2;22o3q3ee2;,hy7tjx9<9",
"j0f2a9txVNVVlheh9sheese3fhh2>;;*90ef>Os3&2ee23hs>i319elh9s92h3:hhh9s3e3hhNxxnxhqh3sgeess3efe3;>><93fh2;p2*=0s11yt:w3<8tx",
"e00sq0jxVxCjxtBjhqeekff380h9>>20ss0s33g0&&e83he2&OO29vje9qh903,ehtq8qs0hhCjCxxjllhewfjhh339h0>>20he0ss3fs><035rf1>>.2sBm",
"323lhfxjNghehtheqeefhsks*<f>299dks3ee3g3*>>;ss3su>O&=e#8sshs0>13h099lhekhjthqjthfeeehjwx0%<h3;29shq8s3wh3;>>;ie5s3;%>>e-",
"s0se:egxy;1qhhk90s23sfe3%2399*=hhqseeNj1>;,<0s093q393%;99s99e5fhvh2fe<9hhh<<qtzh89h=9qtg8*2>32O=hh0et3xV1<;:;3e383q923<#",
">2000f3e1-;,3ea90922sf3@==>979qxlf0qmBh013,o<eh37jjVzht0sqh2s319d2230eh<s3;;<9ss9999=9ye;>>2092qxnhqejVze35>o>hh99hxxzzq",
"9ss9s0331++:i;*9qs>>i1;@OO8q9zbzh29hjt99g< @7qh3yxvVVVy9=sq3s2**22se3ee383o.>s*%8hd**0,-;+O2s9hnzt99txh98h1..3qq9qxxvNnx",
"sdq0s9f0::;3,*9xh3;2;;;o;s1<qbCh999hy93jl*Oetzk970tyxxt0=s93<21rvkqq9s9qs;;&22$3xx9%;;;:-o32=0xnd999gh91jx*$shhh990hyzh0",
"ddk9sdhh5e392=qh1<3;,&;23388hytq99dx99sBe=tjjhq8sqs>er51>3ss<9jvneth9qqhfei3a2usj113;,@;13322kdha=9dv809Nh>9hkzq2shd;8h0",
"dhttxhhhrfjs3383:<,9OX,393qhqq73<qqh8290o>hvy92903>@@@:;5,;239h0qhztexhtjhrge2>>9<113++13999sqq999dqg8399o,hxh0<230>%-;,",
"vhtqle3pgegg8<3tjjg>XOewx0899h302shq399*39hz0s,esg>&>;+>e3<%2sq<svxytjh90frjge>3ehjh2.-ewxq033e892ahh9s3=2eghqq<sqh3%<;o",
"sq9t3OOiesee033jjjq=&kxNNghsh<*9*2h85jq98qdhhhhh33323;>g2>;2e00h080wy8%O3e0weq,2ljhd>>hjNNjesh2;2*=h9>ke3sehxqhhj0w8,0;;",
"9888;%<000glf00>239sdcxze0e0ds2s22>>fl3ees299he;1ehe9003;<3s33jj13938;;>s2sfle3s<329adckxe8tqhq9h2u><tjweef209q013ehe333",
"99sr1;se990s9>*;i3>9hhtqs030ks0s2&&&>21ee3*39s>;:gxk08033h999hgfisahh,@3us39e83;<9229dhqss999hs9s2O@,,23ff,>99q<@;rxcq33",
"90hhe,53sq32293qge2hes98232>;380>&>s3,;;o1e98s;o:pwhtt89hhshs833,20ee0332sh29<93shs9qre28299>*29s&&upu>$>o:0s3q;@@e9hhh0",
"q333<@,sqd9<;<th3sshdq99q0s<*0e3><<9253@@2><s2;;3>%3hhhhh09kheh9>3s33;-30ss0<%<eh8sshss9s9as2*3s32>@u>u3;*>*<q3%@3>#2hje",
"01;9<;f32k9=;rl01fxt99qd99d0353;<533>039<<3qkh82>>29qkyqe90f#3k99s<;8>;e90k9;;exe9fgd99qg92s9833-;333>09e3<<qzz83,2>9qxh",
"98g0%<e2>2g><eh3ife99thd9990e;1fef839s0hzkhzbn9q93qthqq89ess%<2*999s0;2f>&3f2;ej35re29qzh9099r;3eqq393s9txxhxbxqq09eehhq",
"0ses>0s>&3eqqr5@,@;2hBc99hsef,pgjqsee9qxvbnbxzhneh1thhh9<qee<9229sq0e30e=&if00tw;>@%8hCx03fq0e35hjqqq98tjVNVCxztnth0qhhq",
"h0es9ss>&3;1gepp@@>=gr09seh93@,p92<elehhhxztzyhhgretxddh3;fh<9sehf3qqs9h>&3,>eee3;&;<ey1q9hh93;,eq329hhjyyVjxhytxhheehdd"
};
