/* XPM */
static char *floor[] = {
/* columns rows colors chars-per-pixel */
"60 60 15 1",
"  c #3E9DF5",
". c #3F9DF8",
"X c #3FA0F7",
"o c #3FA1F8",
"O c #409EF6",
"+ c #419FF8",
"@ c #40A0F7",
"# c #44A3FB",
"$ c #47A8FE",
"% c #48A7FE",
"& c #4CABFD",
"* c #4FB0FC",
"= c #51AFFC",
"- c #54B1FD",
"; c #58B6FD",
/* pixels */
"++@@@OOOO    O                                              ",
"++@@@@@OOOOOO       .                                       ",
"#o+@+@@OOOXOO  O                                            ",
"++#X@@OOOOOO OO          O                                  ",
"++#@@@@@O@OO OO OO   O                                      ",
"++++@@++@OOOO O X O                                         ",
"#++#++@+@O@OO  O OO                                         ",
"##+@%+++O@XO@OO O                                           ",
"+@+##@##@@OOOXOXX  XX                                       ",
"###+@@@@@@O#O@X  X   X                        O             ",
"#+#+@##+@OO@O@OOX  XX                                       ",
"#####@@@##O#OOOO X X X                                      ",
"###+##@#O#O@@@@OX XX  XX                                    ",
"##+##+@##O#@@@@@XXX    X                                    ",
"#####+#+O#@@@@@@XXX                                         ",
"#######@#O#O@@@@XXXX                                        ",
"#####o##@#@@@@@oXXXX   X X  @                      OOOO O  X",
"#$#######@#o#@@oXXXX@   X @  @O  O               O O  OOO XX",
"$######o#oo#@#@@oXXXO@@@ @ @O O   OO            O X  O XOOXX",
"##$##$##@##@@o#@oXXX@@@@@  @ OOOO OO   OOO   O  XX X OXXOOXX",
"$#$o######@#o@#ooo@@@@@@OOOOOOOOOOOOOOOO    O OO OOOOOOOOOX@",
"###$#$$o#####X@##o#@@@@@O OO    OOOOOOOO     O OOOOO@@@@@@@@",
"###$#######oo#o#o@@@@@@@@@OOOOOOOOOOOOOOO   OOO OO O@@@@@@@@",
"$$###$#$#######+#o#@@#@@@@@@ OOOOOOOOOOOOOOOOOOOOOOO@@@@#+@@",
"$#$######$#$#####OO#O#OO@OOO@@@@OO+OO+OO@O@@OO@OOO@@@@@@o@@#",
"$$$##$#$#$#########O#O##OO#@#@@@+O+OOOOOO@@@@@OO@@@O@#@##@#@",
"$#$#$#####$######OO#O##O@#OOOO@O++#OOOOO@O@@@@@##+#O@##O#oo#",
"$$$$$$#$#############OO##O#O##OO+OOOOO#O@@@@@#@#@@@#@@O#@o#o",
"$$$$##$o###$#+###OO###OOO##O@#@##O#O#@@O#OO##@@@#@@##@@@o###",
"$$$$$$$$%#####&##=#######O###O#@+OO#O@##@##@@@#@@o#@@####oo#",
"$$$$$$$#%#%##&&##@#####O##O#O#@@O##O#O#@#OO##o#@#o@#########",
"$$$$$$$$#%%#%+###=###########@####O#O#O#O#@@@#@#@##@#@######",
"&$$$$$$$$##$###$#####%######%+++++%++#+++#@##@#########$##$#",
"&$$&$$$$$$%%$#$#$#$####%####++%%%+%++#&+####################",
"&$&$$$$$$$$%#$#$############+%#+%++%+#+%############$#$#$###",
"&&$&&$&$$$$$$$#$%#%%%#%#%#%#%+%%##%+%+%+%+%##$####$########$",
"&&&&&&$$$%%%$$$$$#%##%##########%+%+%#+%#########$#$#####$##",
"&&&&$&&&&$%%$$$$$##$$#$#%#%#%#%##%+%+%%##$###$#$#####%##$#$#",
"&&&&&&&$$&%%&$$$$%%$%##$##%#######%#%%+%#$#$#####$$#$##%$$#$",
"&&&&&&&$$&&&$$$$%$$$$$$$%%%##%%#%#+%+%%+###$#$#$#$##$$%%#$$$",
"&&&&&&&&&&&$$&$$&$$$$$$$%%#%%#%##%%#%###$#$#$#$$%#%%#$#$%%%%",
"&*&&&&&&&&&$&$&$$$$$$$$&%%$%%%%%$#$$#$$##$#$$##$%##$$$%%$$%%",
"*&&&&&&&&&&&&$&$$$$#$$$$%%$$%%%%$$%#$$%%$$$#$$$$%%%%$$$%%%%$",
"***&*&&*&&&&&&&&&&$&$&$$$%#%%%%%$$$$$$%$$$$$$$$$%%%%$$$&$$#&",
"**&**&&&&&*&&&&&&&&$$&$&&$$&%%%%$$$$%%$$&$$$$$$$%%&%%%&%&%&%",
"*&&*&**&&&&&&&&&&&&&&$&$$&&%%%%&$$$&%%$$%$$$$$$$%%%&&%&%&%%&",
"***&*&&****&&&&&&&&&&&$&&$&%%&$%$$&$$&$$$$$&&$$$%%&&&%&&&&&&",
"****&**&*&&&*&&&&&&&&&&&&&&&&&&&&&$&$&&$&&$&$$&&&&%%&&&%&%&&",
"***-***&**&-&&&*&&&&&&&&&&&&&&&&&&&&&&&$&$&$&&&&&&&&&&&&&&&&",
"****-**-&-*&***&*&*&&&*&&&&&&&&&&&&&&&&&&&&&&&&&&&&&&&&&&&&&",
";----&-**&-&****&&*&&&&&&&&&=&&&&&&&&&&&&&&&&&&&&&&&&&&&&&&&",
";*------*-*=*&*&**&***&*=&&&&&=&&&&&&&&&&&&&&&&&&&&&&&&==&&&",
"------=--=-=-=&=*&&-&-&&-&&=&&&&&*&&&&&&&&&&&&&&&&&&==&&&&&=",
";-;---=-=-=----=*-*&*&&-&&=&-&==&&*&*&&*&&=&=&=&=&==&&&==&=&",
"----------=--==--***-&-*&-*&&-=&*&***&*&&=&=&=&==&&&=&=&-&==",
"-;;-;;-----------**=--**-&-*-&&=&-*&****===&=&=&&==&==&=&=&&",
";-;---;----;-----**;---*--&-====-*&*======&=====-&-&=======&",
";;;;;--;;-;-;---**----*--**-====*-*-==============&-========",
";;;-;;-;;--;----;-----------=----=----=======--===---===-=--",
";;;;;;;;-;;-;-;;--;-;--------=--=--=----------==-----=---=-="
};
