/* XPM */
static char *result[] = {
/* columns rows colors chars-per-pixel */
"60 60 191 2 ",
"   c #0E6B1A",
".  c #1D701D",
"X  c #0B6927",
"o  c #0D692C",
"O  c #136A27",
"+  c #136D2C",
"@  c #1C732B",
"#  c #0D6B34",
"$  c #086C3B",
"%  c #116C36",
"&  c #137036",
"*  c #14763D",
"=  c #287925",
"-  c #257A2A",
";  c #2B7F35",
":  c #227E3C",
">  c #0A6940",
",  c #1A7941",
"<  c #2F822E",
"1  c #328021",
"2  c #3D8B2D",
"3  c #2D8230",
"4  c #378231",
"5  c #3B8B33",
"6  c #358B3F",
"7  c #3F9137",
"8  c #3F903A",
"9  c #428C2F",
"0  c #45922E",
"q  c #5C9128",
"w  c #439235",
"e  c #489535",
"r  c #4C953D",
"t  c #4A9A3C",
"y  c #549C34",
"u  c #539B3C",
"i  c #5B9F3E",
"p  c #669B32",
"a  c #699D37",
"s  c #56A23B",
"d  c #5AA33B",
"f  c #6AA02F",
"g  c #68A436",
"h  c #6CAD35",
"j  c #61A53B",
"k  c #64AB3A",
"l  c #6BAC3C",
"z  c #70A636",
"x  c #74AA39",
"c  c #75AB3B",
"v  c #6FB137",
"b  c #6DB13B",
"n  c #7BB436",
"m  c #74B935",
"M  c #7FB837",
"N  c #74B43A",
"B  c #7CB43D",
"V  c #7DBA3D",
"C  c #2D8441",
"Z  c #338A43",
"A  c #3C8E42",
"S  c #399044",
"D  c #3F9348",
"F  c #429342",
"G  c #4E9B48",
"H  c #499C48",
"J  c #5D9E46",
"K  c #509F49",
"L  c #54A143",
"P  c #5BA443",
"I  c #5FA941",
"U  c #50A049",
"Y  c #5CA74B",
"T  c #51A050",
"R  c #63AA45",
"E  c #6BAE41",
"W  c #67AC4B",
"Q  c #6BB143",
"!  c #65B14A",
"~  c #6FB448",
"^  c #72B544",
"/  c #7AB542",
"(  c #7DBC44",
")  c #75B54C",
"_  c #7DB64C",
"`  c #72B84D",
"'  c #7ABD4B",
"]  c #71B550",
"[  c #82BB36",
"{  c #83BC3D",
"}  c #86C13D",
"|  c #8CC63E",
" . c #8EC83E",
".. c #91C63F",
"X. c #90C93C",
"o. c #F2EE2A",
"O. c #FCF125",
"+. c #F2EF3C",
"@. c #F7F231",
"#. c #80B642",
"$. c #85BD42",
"%. c #89BD44",
"&. c #86B74E",
"*. c #8BB659",
"=. c #96BF64",
"-. c #86C242",
";. c #8EC742",
":. c #8EC842",
">. c #84C44A",
",. c #8CC54B",
"<. c #84C84E",
"1. c #8BC94A",
"2. c #91C642",
"3. c #91C944",
"4. c #91C64A",
"5. c #94CA4A",
"6. c #99CC49",
"7. c #83C653",
"8. c #89CB52",
"9. c #96CC52",
"0. c #99CC56",
"q. c #95C45B",
"w. c #9AC45B",
"e. c #9DCF58",
"r. c #9ED059",
"t. c #A4CD4E",
"y. c #A6CE56",
"u. c #A5D255",
"i. c #A9D456",
"p. c #A0D25D",
"a. c #B3D55A",
"s. c #9EC660",
"d. c #9BC666",
"f. c #9DC572",
"g. c #A2CF60",
"h. c #A2C76B",
"j. c #A9D769",
"k. c #BADA61",
"l. c #A2CC71",
"z. c #AAC87B",
"x. c #ABD474",
"c. c #B3D87C",
"v. c #BCE263",
"b. c #F3F048",
"n. c #F4F052",
"m. c #C5DE68",
"M. c #C1E56C",
"N. c #C6E470",
"B. c #F5F26C",
"V. c #FAF87C",
"C. c #A8C481",
"Z. c #B5D484",
"A. c #B4DB87",
"S. c #B2D38C",
"D. c #B7D88D",
"F. c #B2D399",
"G. c #C6D887",
"H. c #C6DB95",
"J. c #C6DB98",
"K. c #D9E688",
"L. c #C3E696",
"P. c #C7E69E",
"I. c #C5E898",
"U. c #C9EA9F",
"Y. c #D4E89C",
"T. c #E6EB8E",
"R. c #F1F384",
"E. c #F4F38F",
"W. c #FCFA8E",
"Q. c #EAF094",
"!. c #F9FA92",
"~. c #CAE6A6",
"^. c #CFE9A6",
"/. c #CEE3AB",
"(. c #D7E7A7",
"). c #D7EFAD",
"_. c #D3EBB3",
"`. c #DAF0B4",
"'. c #E4EEA7",
"]. c #E7F0AF",
"[. c #F1F7B0",
"{. c #F8FBB2",
"}. c #D9E6C5",
"|. c #ECEDC1",
" X c #ECF1CC",
".X c #ECFDCC",
"XX c #F7FCC1",
"oX c #E6F3DB",
"OX c #F4FCDB",
"+X c #F1F9E4",
"@X c #F8FCE7",
/* pixels */
";.;.:.{ * / V ;.;.;.:.;.:.;.;.;.;.3  .- ( :.3.:.-.:.;.;.:.;.:.;.;.;.;.;.;.;.;.3.;.N ,.,.;.;. .;.;.5.;.;.:.:.;.;.<.{ y ~ ",
";.;.;.;./ 3.;.:.;.3.;.:.:.;.;.;.1.:.W O -.:. .:.;.3.:.:.;.;.;. .>. .3. .M.2.;.;.;.:.:.2.;.;.;.;.;...:...;.3.;.3.;., 0 4.",
":.6.2.:.;.;.;.:.:.;.;.c :.;.;.;.;.$.( | ;.a.:.3.;.;.:. .;.Y ;.t k 2.:.;.;.:.;.;.;.;.;.;.:.n :.;.;. .;.;.;.;.;.;.$.i  .| ",
":.:.:.;.;.;.;.;.;.3.;. . .;.;.:. .:.:.;.:.3.:.;.:.:.x.3.;.-.> w -.;.;.;.;.;.:.3.3.3.;.;. .;.;.;.;.;.;.;.;.3.;. .;. .;.;.",
":.:.:.:.:.3.N.:.;.:.;.;.:.;.:.:.h.5.;.;.;.;.;.:.;.A.+.^.3.$._ ;.:.;.;.:.;.:.;.q 3.;.:.;.:.;.:. .2.;.;.;.3.:.:.:.:.;.:.:.",
";.:.:.:.7.5.:.:.;.;.:.;.;.:.:.3.[.OX:.:.:.:.:.;.:.-.L.:.;.:.:.;.:.3.:. .;.;.3.:.:.;.:.;. .;.:.;.:.;.;.:.;.:.:.;.;.;.;.:.",
":.b <.8./ ;.;.;.;.:.;. .;.:.;.;.;.;.;.;.3.:.@ :.:.:.;.:.;.;.:.;.;. .:. .;.;.;.;.;.;.;.:.;.:.:.:.:.;.;.;.;.;. .2.;. .;.:.",
";.{ o 9./ ;.3.;.;.;.;.:.;.;.;.:.;.;.;.;.t / 7.{ ;.:.;.n ;.:.;.:.2.-.;.:.3. .3.;.:.:.;.;.;.;.;.2.:.:.:.;.;.;.6.:.3.;.:.;.",
":.;./ :.;.;.;.:.:.:.N :.;.:.;. . .4.3.n H | B 5.3.;.:.;.:.;.;.:.:.:.;.;.;.-.:.:.:.;.;.;.:.:.;. . .:.;.:.:.:. .;.;.3.;.;.",
":.:.;.;.;.3.;.3.:.;.{ :.:.;. .;.0.V.w.;.{ :.3.-.6.;.;.:.:. . .;.:.:.;.;.G.J. .:.;.2.;.;. .:.;.:.;.;.;.:.3...9.;.3.-.;.;.",
"3.:.;.;.;.;. .a.:.3.:.;.:.;.:.:.;.oX| :.:. .;. X X .:.:.2.i. .;.:.:.| | *.*. . .;.;.;.3.;. .;.;.;.:.;. .-.3.|. X .;.2.:.",
"3.:.;.;.;.:.:.3.;.3.:.;.:.;.h ;.2.%.:.;. .:.;.;.1.:.;.;.:.:. .2.;.:.:.:.;.;.3.:.;. .-.;.:.;.:.:.;.;.;.;.%.1.4.,. . .:.;.",
"3. .:.;.;.:.:.:.:.;.:.;.@ :.Z -. .;. .:.;. .;.3.;.:.;.;.;.;.;. .:.:.;.7.. ;.;.;.:.;.;.:.;.;.:. .2.:.:.:.:.:.;.;.:.:.:.;.",
":.;. .;.;.;.:.:.:.;.;.{ ' b l ;.:. .;.;.;.:.3.;.:.H ;.8 | :.;.;.;.V D X ;.;.:.:.;.;.;.;.:.;.;.| 3.P -.;.;.;.;.;.:.:.;.;.",
";.;.;.;.:.:.-.:.:.;.;. .#.;.:.| ;.;. .;.;.:.;.3.-.s >.r { :.;.;.:.-.F #.$.;.;.;.y.;.;.;.;.;.;.7 -.w | ;.;.:.;.;.;.;.;.3.",
";.| | ;.;.:.:.;.:.:.:.;. .:.:.;.;.;.;. .3.;.:.3.-.B ;.;.;.;.:.:.;.:.;.-.;.| I.3.;.:.:.;.;.;.{ I ;._ ;.;.;.:.k.;.;.:.:.;.",
"| :. .;.;.;.;.;.;.;. . . .;.:.;.;.;.;.;.;.;.;.3.;.;.;.:.:.;.;.6.:.;. .:.3.;.T./.3.;.;.:.;.;.;.{ ;.;.:.:.2.;.;.;.:.;.:.:.",
";.;.;.:.;.;. .;.;.;. .;.;.;.;.;.:. .:.2.;.;.;.;.;.:.3.:.;.;.:.:. .;.:. . .;.{ :.:.;.;.;.:.;.;.3. .;.;.:.:.;.;.;.:.:.:.-.",
";. . .2.S.3. .:.2. .;.:.4.:.:.;.:. .;.;.3.;.;.;.:.3.c ;.3.;.:.:.3.:.:.;.;.;.;.;.'  .I 9 ;.;.;.;.;.:.:.:.:.;.;.;.;.;.;.:.",
" .;.| =.O.g.:.;.;.:.;.;.;.:.;. .:.;.;.:.;.;.;.;.3.:.:.:.;.:.;.;.;.;.;.;.;.;.2.:.;., @ :.;.;.;. .;.:.;.#.3.:. .;.:.;.:.:.",
";.2.:.;.f.-.2.2.;.;.:.:.2.:.;.;.;.;. .;. .:.| u.;.:.;.;.:.;.;.;.;.:. .:.3.;.:.:.$.R ;.} ;.;. .;.:.:.;.:.;.:.;.;.;.;.:.:.",
";.;.:.3.,. .;. .:.;. .;.;.;.:.;.;.;.;.;. .;.:.:.;.;.;.;.:.;.3.;.;.2.;.3.3.;. .3.;. .:.;.3.Z.s.3.:.3.3.:.;. .;.;.;.;.;.3.",
"2./ <.1.d  .;.;.;.;.;.;.;.;.;.;.;. .;.;.;.2.;.;.;.;.;.| :.;.;.:.;.;.;.;.3.3.:.;.;.;.;.:. .H.Z. .:.:.;.:.;.3.;.;.;. .;.;.",
";.-.+ 8.;.;.:.;.:.;.;. .;.;. .:. .:.;.;.;.;.:.:.;.;.:.;.;.;.:.:.;.;.;.;. . .;.:.;.;.;.;. .;.;.:.j.Y.;.6.;. .;.;. .;. .;.",
";.-.) 3.;.:.:.:.;.;.:.:.;.;.;. .;.:.;.;.:.:.:.;.;.;.;.;.:.;.;. .;.:.;.;. .;.;.:.:.:.;.;.;.[ -. .&.J.;.;. .;.:.:.:.;.:.:.",
";.3.:.2.;.:.:.:.;.;. . .;.;.;. .z.s.3.;.;.2.;.3.a :.;. .:.;. .;.:.;.{ ;.;.;.;.:.1.:.s.:.:.;...:.| ;.;.;.:.:. .;.;. .U :.",
";.3.3.;. .:.:.;. .:., ..; -.:. .z.=. .;.;. .3.;.;.:.:.:.;. .m.2.;.;.;.;.;.;.;.;.;.0.n.oX| :.;.;.| ;.:. .;.:.x ;.;.{ w 1.",
";.3... .;.;.;.:.:.|  .Q G { :.:.,.| :.;.;.:.;. .;. .;.;.;.;.;.;.:.;.:.:.:.;.:.:.:.| S.{ :.:.;.;.;.;.;.;.;.;.;.;.;. .;.;.",
";.;.;.:.:.;.;.;.;. .n ;.|  .c.,. . . .;.;.;.:.4.r.3.:. .;.;. .;.;.;.:.;.| :. .:. .;..X;.:.;.;.:.;.;.;.;.;.3.:.OX4.;.;.;.",
";.:.;.;.;. .:.:.;.:.:.:.;.2.(./.;.;.n ;.5.;.:.~.(.3.:. .Y :.;.;.:.:.;.;.<.| b 2  .5.R.~.;.;.;.;.%.K.D. .3.;.r.R.P.;.;. .",
";.;.V :.-.K :.:.;.3.;.;. .;.| ;. . .4.;.;.;.;.;.;.-.:.P  .| ;.| m.;.;.3.:.* 2 >.}  .V ;.;.;.;.;.;.F.( ;.V :.3.{ ;.;.:.;.",
";.:.~ = * }  .:.;.3.;.;.;.;. . .;. .R.`.;.;.;.:.;.>.- ( [ | ;.:.;.;.;.-.>.W | ;.:.:.:.;.:.;.;.;.;.s ;.0 ) ;.;.;.:.;.:.:.",
";.-.;.O B { 3.:.:.z :.:.;.;.;.;.;. ._.n ;.;.;.3.:.#.+  .;.;.;.;.;.;.;.;.:.;.:.;.;.;.;.;.:.;.:.;. . .$ < ;.-.:.;.;. . .;.",
"2.:.| | ;.;.:.3.:.:.;.;.;.:.:.;.:.:.|  .;.A ;.;.:.;.| :.:.:.;.;.;.c :.:.;.:.:.;.;.;.;.;.;.;.;.;. .$.P | ;.2.;.;.<.{ u Q ",
":.:.;.;.:.3.3.:.;.;.;.;.:.;.3.f  .:.w ^ T ;.;.;.;.:.:.;.3.;.;.3.3.:.:.3.;.| ;.;.;.;.:.:.;.;.:.:. .:.:.;.;.;.;.:.,., y >.",
":.;.;.;.;.;. .:.;.:.;.3.3.3.:.:.3. ...% ( $. .;.;.;.;.;.;.;.;.:.:.:. .p.;.;.;.;.:.;.;.;.;.3.;.;.:.:.m.;.;.;.;.:.-.E ;.;.",
";.;.;.;.:.;.:.:.:.:. .:.;.;.;.:.:.;.;.V ;.:.;.:.3.:. .;.;.;.;. .;.{  .;.;.;.;.;.;.:.:.:.;.:.;.:.;.;.| ;.:. .2.k 2...;.;.",
";.;.;.:.;.:.3.-. .:.o :.;.;.;.;.| ;.;.;.;.;.:.:.:.;.;.:.;.;.w ;.+ :.:.;.;.;.;.;.:.;.:.:.:. . .;.:. .:.:.>.d v 8. .:.;.;.",
":.;.3.:.;.;.:.k ! 6  . .:.3.;.;.:.:.:.;.:.;.2.:.:.;.:.;.;.:.X.E 5 3.3.;.;.;.;.x.:.;.:.:.` :.Q e ;.;.;.;.| S m 7.$.:.;.:.",
":.;.;.;.:.;.:.$.& { B  .;. .;.;.:.:.k.3.;.;.;.;.:.;.;.;.;.;. .;.:.:. .;. .2.^.@.P.a  .| | A +  .;.;.;.;.;./  .:. .;.;.;.",
";.:.;.1.;.:.3.;.-.3.;.;.;.;.:.4  .;.:.;.:.x ;.;. .;.:.:.-.:.:.:.^.:.:.-.,.;.;.z.;.;.;.:.{ W ;.;.;.;.t.;.;.:.;.:.;.;.;.;.",
";.;.;.:.;.;.;.:.:.:.:.;.( Q d 1.;.;.;.;.;. .;.;.3.s >.:.:.:.:.|.b.x.:.:.-. .5 1. .;.:.;.;.;.;.;.;.| :.:.<.;.;. .;.;.;.;.",
":.:.;.3. .;.;.;.;.3.:. .$.: N -.-.2.;.2.:.:.3.P { A $.:.:.:.a.{ A.| :.:.J } Y $.:.;.;.;.3.;.;.;. .~  .Y y ..;.:. .;.;.| ",
";.;.;.;.;.;.;.:.:.:. .:.;.V  .:.:.;.;.6.3. .{ >.V #.-.:.;.:. .| :.5.:.M ] { #.:.:.:.3.;.;.;.;.;. .| # 5 -.| :.2.;.;.;.;.",
";...:.:.;.:.:.;.:. .:. . .;.;.;.;.;. .2.:.:.3.;...:.:.:.;.;. .,.XX{.:.:.;.;.;.;.3.;.3.;.{ :.;.;. .%.)  .;.;.;. .3. .U.;.",
";.;.:.:.;.3.:.;.:.>. .8.= ;.;.;.2. .:.:.;.:.:.:. .:.:.:.;.;.;. .*.d.3.:.:.;.;.:.;.:.;. . .;.;.;.:...:.:.;.;.;.:. .| E.OX",
":.:.;.3. . .;.;.:.V : : | ;.;.;.2.;.;.;.3.;.3.;.;.:.;.;.;.;.;. .;.:.;.:.2.:.;.;.:.;.:.;.;.;.;.;.;.c ;. .;.:. .;.;.;.4.;.",
":.| g :.y ~  .3. .{ A { $.3.;.;.0.1.;.;.;.:.i.;.;.3.;.;. .;.;.:.| ;.;.:.;.;.:.;.;.:.3.:.;.:.;.:. .;.;.;.;. .;.:.:.:.2. .",
":.:.-.  * $.:. .OX;.| ;. .,. .;.{.OX .;.;.;.3.;.;.:.:.;.;.;.;.;.:.:.;.:.;.;.:. .;. .;.;.;.:.;. .:.;.;.;.3.;.:. .7./ ;. .",
":.:.;.1 { 3.;.x.B.x. .;.4.Q.l.;.=.{ :.;.;.;.:.:.;.:.;.;.;. .;.;.;.:.;.;.;.;.;.;.;.:.;.;.;. .;.:.;.;.;.;.3. .5 ,.O ;.g.,.",
";.;.;.;.;.;.;.;.( 5.@X;.| }.#.4.-. .;.;. .;.;.;.;.:.:.:.;. . .;.;.;.;.;.;.;.;.:.3.;.:.;.;.;.;.;. .;.3.c.3.{ v 8.{ -.E.OX",
":.:.;.:.;.3.;.x.:.f.!.9...r 4.4 Q 3.2.).-.;.;. .;.:.;.3.;.u.;.3.;.;.:.;.;. .;.;.;. .;.;.;. .;.5.3.2.C.G.3.3.-.:.2.-.d.$.",
":.;.;.;.;.:.5.W.+X:.B ;.-.;.Z X  .| `.o.L.2.:.;.:.:.:.;.;.3.;.;.;.:.;.;.;.:.:.;.;. .;.;.;.;.:.;.;.;.:.-.3. .:. .;.;.;.:.",
":.:.;.;.3.:.:.q.;.:.;. .;.{ E -.-...-.l.;.;.:.:.;.;.;.;.;.;.;.;.:.G 3.3 v ;.3.;.;.:.;. .;.;.:.b ..R k ..:.3.:.;.;.;.2.:.",
":.:.;.;.;.;. .:.:.:.p :.5.].e.:...g  . . .;.;.:.;.;.;.;.3.;.;.;.;.;.C @ -.:.;.;.2.:.:.;.;.;.:.;.# P -.-.;.3.;. .;.;.;.;.",
":.:.;.;.:.:.:.y :.3. .;.4.'.w.:.3.2.3.:.;.;.:.3.;.;.$.3.;.3.:.;.3.{ E ;.;.3.;.;.;.;.;.:. .;.;.| j | | :.;.;.;.;.;.%.;.;.",
":.;.:. .6 ( # ;.:.:.;.;.:.V :.-.N :.:.;.:.5.2.;.;.:.;. .;. .;.} ;.:.:.;.;.;.3.;.;.:.;.:.;.;.-.;.:.:. .;.;.;.;.;.:.:.:.:.",
";.;.;.;.;.H ^ $.:.3.;.;.:.; ;.o -.3.;.;.:.:.:.3.;.3.;.;.o ;.# ;.:.;.;.;.;.;. .;.;.2.;.;.;.;.{ ;.:. .;.;.:.;.;.;.3. .L :.",
" .;. .:.[ } ;.;.:.;. .:.:.;.Z - ;.;.;.:.3.:.;.:.;.:.:.;.{ u - [ ;.;. .:.;.;.;.;. .-.{ ;.;.;. .;.v.;.| ;.:.-.:.;.,.;.w <.",
";.:.:. .;.;.:.;.;.3. .:.:.{ N | -.;.;.;.:.:.;.2.;.:.:.;.$.( | ;.:.;. .p  .;.;.3.;. . .;.;. .;.;.;.;.;.;.:.| :.;.;.;.n ;."
};
