/* XPM */
static char *floor[] = {
/* columns rows colors chars-per-pixel */
"60 60 22 1",
"  c #7FB11F",
". c #82B31F",
"X c #88B71E",
"o c #85B523",
"O c #86B628",
"+ c #87B823",
"@ c #89B725",
"# c #89B729",
"$ c #8BB926",
"% c #8DBA2A",
"& c #90BC27",
"* c #93BD2C",
"= c #98BF2E",
"- c #95BE31",
"; c #98BF32",
": c #96C02E",
"> c #98C02F",
", c #96C031",
"< c #9AC133",
"1 c #9EC339",
"2 c #A0C537",
"3 c #A1C53A",
/* pixels */
"+%$++%$++*<*,,:$$*+%=$@**,:+::X:+$#+o+&@o&;*==,%%%*#*=@$-*,%",
"%%%*%<<%%%<=::$$*%+%$*$,::::%%+X%$:%==1*%*<,*=$%%%#O&&#*-**<",
"*::<111<,-<*#:+::*%%o$-*+o:,:::#=:*,111<<*;,**%+,*%-@@**%O%-",
"%::**%,=%%<%+$+:,:1,O.**:%:#::%:=***,%*;*&*;@$$%<*,1*oo*%*-#",
":%*%OO%**$#o+$:1*=<,%o*=,11*$*%$=:::%oO%-%@o.o*<,*<-*oo=*111",
",,<<**$%%ooo$*<=$=%=%%<**%%$$$$<<<==-%*%%$o.%%*,$-;%-*<**%%%",
"<,**-<%%>%o*<%:+%::$*<**-++O#X%%,<<**-*$;,o%<-*%&=*-@=<**%oO",
"$:O%%;-%**,1,,=$+$:%,%=%%,#:#**,%%%O%*<%%**1<*-*$X%**&=*%<%%",
"::+%=&@%**=*&$&%++$O+O%O%-,*,>,*$*%$=:+%****$$+*$X+$o$*$o*=,",
"$$o**@#-==*=$**%%%%%%*1%$%,,%,%%$$+$%*+**>&==**%**$*%*,=$$*<",
"%**$%***+$,*=*%%,*,<331<,,<,*>$$*,%%@%%,%O*,::%$,%%,1311<*-<",
"-*;*@o*$%%%%**-,=**<<%<<%%,*@$$%<*<,@+%****$$:*%<*=,<%=<*&*;",
"*,<*Oo:*<11**%%%:***Oo$%:#$o.+%1,*<**o$**<3=::$@****%o$+**+%",
"*,**%,>*:**%$*%<,>=,-%$%:O o+%,<**=**&;=&*%*o:$:<<=>,%%+*&+.",
"**%**,*%%+oO$@*%<<,-<,:%,%o%==>$+,**@;,*-%oo#+$*,<,=-<-$*,%.",
"$%,*******%+$$==**#o%,%%,%=<,*=*%$%***,%%-*##+:,%=*o%%,%%**-",
"o++++$$o%,=$==::&*%%*:+$**=*:$$:%+%+O$%Oo%,=====%*%+*=%$**%=",
"%%**$==$$*<=**+:$%o#**+=%=*=$:+++$$%%%--%%=,**$%%%%+%*o#*,,*",
"%=%1331,,,:=*%+$*-%%+%%%$$,,$::%;**,133<,*<=**&+%,:$$#--*O%<",
"%=,<,,::%%<%$$+:,%--O$%*%$#%:::*,*-<1%<<,**,$$$$=*=<#+%*$$%$",
"*:%*oO#:=$%++#*1,*,=$.*=,11*::$$%%**%.#**%$#.+*>1=:<%Oo>*<3<",
"=:=*%%$,%+.o##<<$>*=*%,****%@$$=<<,,-$&$,$oo+#*,:$>*;$,,&>--",
"1<,*<<%%,%.%,:=%&<**%<;**ooO%+$=<<,*--%%%,oO,%,*$=**$*<*%*Oo",
"**+$%,%**%,1,**%$&**%,**;*$%++:=**%O%--*,*%<1*>*+$*%**=>%-&o",
"$=#%=*$$%==*$$%*+O$$+$*O*->**=-*&**%%*%$&&::*&&*%X%%$$%+o,,*",
"$%o$*$$,-,*:&*%%#$%%+&*$$#,,-***$*Oo%=O-=>**&&@*%$%%$$,%$+%1",
"*%$*%%%%%%,,==$%,%%<331,*-,***o&**%*$%%*$$%<*=%#,*,*1333,=,,",
":*,%O$,*$+%%=$%<,*-<<->;-*;,@*@&,*%=$+%,%o&&&&**,*,*1-;<<**,",
":=1%oo=*<1<%*:%%::$:%o#**$*#o$$<<*==*o$**11*&=&@=&*-*oO***$%",
"$<*,$%<$=-<%%%%<>=:=%#%*%oOoo$>2**==-@;=*=<*$***<<**-O$o<%+o",
"=:%%*1=*%OO$$+:*<<,=--**-%.o**=**=**O-,**%Oo##&*;;;,;;;@%*$ ",
"$*=%*==%*%O%+$**=*$+*-*%,**1;-*&$%*-%*==%%%##o**=*-O%%;*%=%,",
"X$$#*%%O%,%%,*,***%$**%#*:::$**%$+$%%$*o@;=***--%**+%*$$*$:=",
"+$%++%*++*<,,=:%%*O$=$+,*,&$**$*$$O$#@*$$#,,-****$$+*>+$=,::",
":::,11<<**,*::+#*%$*$:$%%$=<**-%,%%,113<-*;=**@%**%%$$%:%%%<",
"#*,<1<<,-->*X$+:*&-*X+**$@$***%-,:,<11<<;**;$*$$,*%;$X%:%@@%",
"+:::oO**&$*O+$%<<*1-+.*$=<,*-*%%:$%,%O%%=$$%o@**<=<<*oo=*<1-",
"::*:OO+,=oO.++<2$==-%$>:*<1*%*$*:=*=%o$%=$@O.O&1=&,*,o*>*=<<",
"<:<,,,O%*+ +*==:*-***,,**+OO#o*;<<<<<<%%%%oo**;*&=*&**<&*$+O",
"::#%,,%:<$*<,:%+$*-%*,,**%$%#$$*::%+%<-%,=$-<-**@**-**==:%$+",
"*%o&***%&*,>*==*++%$#%:+*,>$*=%=&**@***O$::=:::$&o&$%%*&o*;*",
"$*O*:$+,=>&*$$$$+$#$X$%$o&<>%,**@*#@=-o-:==:$%$$@#$%Oo$&o@=<",
"&*@&&&%%**=>%*%%***-<11,%*<**,+**&$&$*%*$%%<**:%*%**,11<;*=;",
"=**&o@:%o@%*>*%,=*-<1<1<-;,,%%$$****$o**$O%%*,%%;*;;1<1<;-=;",
"*>1*Oo%*,<-**$*=**%-%O**%&**O@$><=<;&oo*-1<%****=&=**O%-%*$*",
"$<:>$$,=;<1%**$*;**=OO$%,$O.o$*1=*,-=o*;*;3<$*$$;;***O$o,*@+",
"*<$%*<***o%O$$*><<,<--$%*%.o%*>**;%**=<%*@o#%$&*;;;;;-*%*%$.",
"*%,%-,*-*+o%+@**-,%%-<-*-*+,1**$$***$><-*%@O#o***--#*-*$-;%%",
"X$%*%$*+%<*$**,=%=#%:::+$$:<=:**$X%%:$:+%<-%%**,*$*O*%-*%%&;",
"o$$oo$*o@*,,,*%*%%+%:%+%*=>&$$$%@@%#o@:@o*;;;*,*&*%+**O%--=*",
"*$*;;1<-**<-,*$+%%+#%%%,***-&:$%*%*%><<>%%;=%%%%&*$+*%+*%**;",
"**>131<<-,,%$%+::**:+#:%@.**:=$:>*==111<--;;**%@****%O%**o@-",
"*%*-%#-****%X&&><,1=++:%*,****%***-*=+*>*&&-o$&&<=-3%Oo*&=;&",
":-*%OO@&*++oo&<1:%,=: ,*;13;$*$*==%*$.@$;&oOo$&<>*,*;o$,*,3<",
">,<<--&*%ooO**,%$>**%,,:*%O%%$*,1,,,<*$$*#oo@&*:&=;***<=**o%",
",=%#--**;*o;;&:$$**$*,*:%%oo%+%**;-%%<,$-;o-;;**&**%$;<*;*oo",
"$*o***%%%::<:#*$$@:$*$:$*<*%*&*-*=%+$:%%*$::>*=$&++%****O;**",
"**$%=%$**,>$:$$:$$++o$*oo*;--=**$%%$::@$=:=:*$$&$X#$oo*@o@*;",
"%%o%%%%,:===:$%#%%*%:>1%%&;=&*$$&*O%$:O;*%$>-*%%$*%:;=1<*$=<",
"*=*%$%*% +,=:,#:=*=1331<;;<***$****%@*%%$o*<*,%%,$:=333<<;;;"
};
