/* XPM */
static char *result[] = {
/* columns rows colors chars-per-pixel */
"60 60 222 2 ",
"   c #010101",
".  c #090804",
"X  c #0B0B0B",
"o  c #10100A",
"O  c #16180C",
"+  c #141414",
"@  c #1E1B19",
"#  c #2E1916",
"$  c #1C260E",
"%  c #1C2410",
"&  c #252315",
"*  c #36261D",
"=  c #253017",
"-  c #393F18",
";  c #232221",
":  c #2C2A29",
">  c #352726",
",  c #353726",
"<  c #373433",
"1  c #3A3B3B",
"2  c #453531",
"3  c #553D39",
"4  c #36471B",
"5  c #0E6B1A",
"6  c #3E5022",
"7  c #0F6A21",
"8  c #0D692C",
"9  c #136B2A",
"0  c #1C732D",
"q  c #0B6B36",
"w  c #106C37",
"e  c #14753B",
"r  c #277822",
"t  c #257A2A",
"y  c #227E3C",
"u  c #454F2B",
"i  c #465A23",
"p  c #496223",
"a  c #556729",
"s  c #57762D",
"d  c #54693A",
"f  c #626F35",
"g  c #617839",
"h  c #1A7941",
"j  c #474643",
"k  c #4B4B4B",
"l  c #5A4847",
"z  c #575555",
"x  c #5C5C5C",
"c  c #664B49",
"v  c #685753",
"b  c #6F744E",
"n  c #636363",
"m  c #6B6A6A",
"M  c #7D6463",
"N  c #716B6A",
"B  c #6F7068",
"V  c #737270",
"C  c #7B7070",
"Z  c #7B7B7B",
"A  c #82645E",
"S  c #886A66",
"D  c #8B736F",
"F  c #9B7975",
"G  c #A17F79",
"H  c #35862D",
"J  c #388A33",
"K  c #358B3F",
"L  c #51922A",
"P  c #439234",
"I  c #4A963A",
"U  c #549C34",
"Y  c #569C3C",
"T  c #63892F",
"R  c #6C972C",
"E  c #66873A",
"W  c #6B9734",
"Q  c #759A39",
"!  c #56A33A",
"~  c #5BA33A",
"^  c #63A43B",
"/  c #66AB38",
"(  c #79A73A",
")  c #75A939",
"_  c #7CAB3B",
"`  c #6FB238",
"'  c #7AB735",
"]  c #74B33A",
"[  c #7CB43D",
"{  c #7EBA3E",
"}  c #368C42",
"|  c #399044",
" . c #499C48",
".. c #509F49",
"X. c #788D4F",
"o. c #56A344",
"O. c #5BA343",
"+. c #67AC46",
"@. c #6BB143",
"#. c #6BB349",
"$. c #72B543",
"%. c #7AB442",
"&. c #7DBC43",
"*. c #77B74C",
"=. c #7B8569",
"-. c #83B53E",
";. c #83BC3D",
":. c #88BD3D",
">. c #87C03D",
",. c #8CC53E",
"<. c #8EC83E",
"1. c #91C63F",
"2. c #90C93C",
"3. c #F7F131",
"4. c #81B542",
"5. c #85BC42",
"6. c #89BD43",
"7. c #81B04D",
"8. c #90866F",
"9. c #828576",
"0. c #A8847D",
"q. c #85C242",
"w. c #8EC742",
"e. c #8EC842",
"r. c #85C44B",
"t. c #8CC54A",
"y. c #84C84E",
"u. c #8BC94B",
"i. c #91C642",
"p. c #91C944",
"a. c #92C64B",
"s. c #93CA49",
"d. c #98CC49",
"f. c #83C653",
"g. c #89CB52",
"h. c #96CC52",
"j. c #98C858",
"k. c #A4CD4E",
"l. c #B4D65C",
"z. c #9DC664",
"x. c #9DC572",
"c. c #A2CB68",
"v. c #A8D669",
"b. c #BADA61",
"n. c #AECF7E",
"m. c #AAD375",
"M. c #BCE263",
"N. c #C1DD64",
"B. c #C4E56E",
"V. c #F5F26C",
"C. c #848483",
"Z. c #8B8B87",
"A. c #8D8D8D",
"S. c #9D8987",
"D. c #949493",
"F. c #9C9698",
"G. c #9A9B9A",
"H. c #A48581",
"J. c #AC8B84",
"K. c #B68C83",
"L. c #A6918F",
"P. c #BC948C",
"I. c #B6998B",
"U. c #A79A9A",
"Y. c #B69B96",
"T. c #A9AA9A",
"R. c #B1A19D",
"E. c #A4A2A2",
"W. c #A9A7A4",
"Q. c #ACACAC",
"!. c #B1ADA5",
"~. c #B1AFB0",
"^. c #B5B5B5",
"/. c #B9B8B7",
"(. c #BCBCBC",
"). c #C89D97",
"_. c #CEA59E",
"`. c #C5A8A5",
"'. c #D9ADA6",
"]. c #E4ADA5",
"[. c #E7B3AB",
"{. c #ECBBB3",
"}. c #F4BDB5",
"|. c #FEBEB4",
" X c #FDBEB8",
".X c #AAC781",
"XX c #B5D687",
"oX c #B9D396",
"OX c #C6D887",
"+X c #C7DD96",
"@X c #C7E79C",
"#X c #D7E792",
"$X c #F6F58B",
"%X c #F2F593",
"&X c #CECFB3",
"*X c #E9C3B9",
"=X c #F5C0B6",
"-X c #FAC0B5",
";X c #F4C2BA",
":X c #FAC1B9",
">X c #D6E8A4",
",X c #F1F7B0",
"<X c #BFC1C0",
"1X c #C5C4C4",
"2X c #CACACA",
"3X c #DDDBC3",
"4X c #D3D3D2",
"5X c #DAD8D7",
"6X c #DCDCDC",
"7X c #D9E6C5",
"8X c #EBEDC5",
"9X c #F2F4CE",
"0X c #F5F4D4",
"qX c #F9F7D2",
"wX c #F4FCDA",
"eX c #E2E3E4",
"rX c #ECECEC",
"tX c #F5FBE6",
"yX c #EEF0F0",
"uX c #F3F3F4",
"iX c #F8F9FB",
"pX c #FEFFFE",
/* pixels */
"w.w.e.;.e $.&.,.w.w.e.w.e.w.w.w.e.K ,.r &.<.e.e.5.e.e.e.w.w.e.e.w.w.w.w.i.w.w.p.w.%.r.t.w.1.<.w.w.p.w.w.p.e.w.i.y.;.U $.",
"w.w.w.w.%.p.w.p.w.p.e.w.e.w.e.w.q.e.+.9 5.w.e.e.e.e.e.e.w.w.1.,.u.w.w.,.B.e.w.w.e.e.w.i.,.i.e.e.i.i.p.,.w.e.e.<.w.h P a.",
"e.d.i.e.w.e.w.w.e.w.e.) e.w.w.w.w.5.&.>.w.b.e.e.e.e.e.e.w.o.e.I / w.e.w.e.w.e.e.e.w.w.w.e.] <.e.e.e.e.w.w.w.e.w.>.~ w.>.",
"e.e.e.w.w.e.p.p.e.e.e.<.e.w.w.e.<.e.e.e.e.e.e.e.e.e.m.e.w.q.q  .q.,.w.w.w.w.e.e.p.w.i.w.e.w.w.w.w.w.w.w.w.e.w.e.e.,.p.w.",
"e.e.e.e.<.p.B.w.w.e.w.i.e.e.e.e.c.h.w.e.w.e.e.e.e.XX3.>Xw.5.*.w.e.w.w.e.e.i.1.L p.w.p.w.<.w.e.w.w.w.w.w.p.p.w.e.p.w.e.<.",
"e.e.e.e.r.a.e.p.w.w.e.w.e.e.<.p.,XwXe.e.e.e.e.e.e.&.@Xe.w.e.w.s.e.w.e.p.w.i.p.,.e.w.,.e.e.w.e.w.w.e.w.e.w.e.w.e.w.w.w.e.",
"<.` y.g.%.w.w.w.e.w.w.e.w.e.e.O W w.,.e.p.e.0 w.e.e.e.e.w.w.w.,.w.,.<.<.w.e.w.w.= 4 e.e.e.,.e.e.i.e.w.w.e.w.<.i.w.<.w.e.",
"e.;.8 h.%.t.e.e.w.w.w.w.<.w.e.. X e.e.e.I %.f.>.w.w.( T ( w.w.e.w.w.w.p.p.,.s.6.  % e.e.w.w.e.i.e.e.w.w.w.w.d.e.p.w.w.w.",
"e.q.%.p.e.p.w.e.w.w.] e.,.w.w.    4 w.{  .,.W o .         + pX^.=.Q <.e.w.w.5.    . w.w.e.e.e.,.e.<.w.w.w.w.w.w.w.w.w.w.",
"e.e.e.e.w.e.w.e.e.w.;.w.e.w.w.      & e.;.o                 rXpXpXpXV ;.OXoX; .     ,.s.w.e.e.w.e.w.w.e.w.w.h.s.s.>.w.w.",
"p.w.w.p.w.p.<.l.e.p.e.w.w.w.t.    . &X!..                   /.pXpXpXpXrX, 3X8XT.  X w.w.<.e.w.w.w.w.w.e.w.w.8X9X<.w.,.p.",
"p.e.w.e.w.e.w.w.w.p.p.w.w.s./ u 9.0X0X                      6XpXpXpXpXpXiXV qXqX  4 q.w.<.w.e.w.e.w.w.e.5.i.a.r.<.<.w.w.",
"p.<.e.e.w.e.e.e.w.e.w.w.0 w.} , qX9X.                       uXpXpXpXpXpXpXpXA.0X0XW <.<.e.e.<.<.w.w.w.w.e.w.w.w.p.e.p.w.",
"e.w.e.w.w.w.<.e.e.w.w.;.*.^ $ % , :                       1 pXpXpXpXpXpXpXpXpX/.: = $ -.e.e.e.<.p.O.w.w.e.e.w.w.w.e.w.w.",
",.w.w.w.e.e.q.e.e.e.w.:.9.pXpXpX1X                        pXpXpXpXpXpXpXpXpXpXpXpX2X    O e.p.J q.P ,.w.e.e.w.w.e.w.e.e.",
"w.,.w.,.e.w.p.e.e.w.,.Z.pXpXpXpX            . < X       /.pXpXpXpXpXpXpXpXpXpXpXpXpX      X ;.O.w.*.w.w.e.e.b.w.w.w.<.w.",
">.w.w.w.w.w.w.w.w.w.g pXpXpXpXiX            uXpXpXrX6XuXpXpXpXpXpXpXpXpXpXpXpXpXpXpX5X      T ;.w.w.e.e.w.e.w.w.w.w.<.w.",
"p.e.w.p.w.w.w.e.e.w.A.pXpXpXpX1         + rXpXpXpXpXpXpXpXpXpXpXpXpXpXpXpXpXpXpXpXpXpXpXX   . e.w.w.w.e.w.w.w.w.w.w.w.w.",
"<.e.i.i.XXw.w.<.w.w.=.2X1X1X1X4Xj   ; 1XpXpXpXpXpXpXpXpXpXpXpXpXpXpXpXpXpXpXpXpXpXpXpX6X6XZ u ,.w.e.e.e.e.p.<.w.w.e.w.w.",
"<.e.i.a.3.c.<.p.w.<.w.w.w.<._ iXpXpXpXpXpXpXpXpXpXpXpXpXpXpXpXpXpXpXpXpXpXpXpXpXpXpXpXW w.p.p.,.<.e.e.4.e.w.w.w.e.w.w.w.",
"w.w.i.e.x.w.w.,.w.w.w.e.w.w.b pXpXpXpXpXpXpXpXpXpXpXpXpXpXpXpXpXpXpXpXpXpXpXpXpXpXpXpXX.t.s.,.p.e.w.e.e.e.e.w.w.w.<.e.e.",
"w.e.e.p.u.,.w.w.e.w.( ( 4.6.V uXiXiXpXpXpXpXpXpXpXpXpXpXpXpXpXpXpXpXpXpXpXpXpXpXpXpXpXD.p.n.z.p.p.e.e.p.w.w.w.w.w.w.w.e.",
"w.%.y.u.Y i.w.w.i.5.                        .     . .     . X + ; < k m k E.2X6XuXuXpXiX1.+XXX<.<.<.w.p.<.e.w.w.w.,.w.w.",
"w.w.8 g.w.w.w.w.  s w.w.w.-.iXyXT.    uX@ ^.<X                      X z   : X             & w.,.v.>Xw.d.w.e.w.<.e.<.e.e.",
"w.w.*.p.w.e.w.e.w.w.<.e.e.a pXpXrX<X  n Z.Z.A.x               @ o X : iX. iXk             , w.,.7.+Xe.e.w.,.<.p.p.<.e.w.",
"w.w.e.e.w.e.w.e.e.e.1.<.w.p pXpXpXiXZ   /.1 x rXX             iXj.g   . pX  2Xz         4 w.w.w.,.w.,.w.e.p.<.w.e.<.o.u.",
"w.i.e.i.w.e.e.w.e.e.h ,.H p pXpXpXpXpX    eXG.X pX+         z m (.iXD.      X         1Xd ,.p.w.e.w.<.w.e.e.) w.w.;.P u.",
"w.p.w.w.w.w.w.e.e.>.<.$. .6 pXpXpXpXpXpX                2 |.|.|.|.|.{.S c : C.Z V m m iXd ,.,.p.e.e.w.e.e.p.p.q.w.,.w.w.",
"w.w.w.e.e.w.w.e.e.w.' w.<.p pXpXpXiXW.J.-X-X|.-X X X X-X}.|.|.|.|.|.|.|.|.|.-X> 5XpXpXpX6 ,.p.,.e.1.w.w.e.e.e.wXa.w.w.w.",
"w.w.e.w.e.<.e.e.w.e.p.,.,.( pXiXN ).|.|.|.|.|.|.|.|. X|. X X|.|.|.|.|.|.|.|. X|.-XJ.rXpXi w.,.p.w.#XXXe.e.e.h.$X@Xw.w.w.",
"e.w.&.e.q...<.e.w.p.p.,.e.e.6XS |.|.|.|.-X|.|.|.|.|.|.|.|.|.|.|.|.|.|.|.|.|. X|.|.|.}.D 5.w.q.w.w.oX5.,.;.e.p.-.w.w.w.w.",
"w.w.$.r e >.,.e.w.p.w.w.p.,.v |.|.|.|. X].|.|.|.|.|.|.|.|.|.|.|.|.|.|.|.|.]._.}.|.|.|.;Xe.w.p.w.q.! e.P #.e.e.e.e.w.e.e.",
"w.w.q.7 { ;.w.e.e.) e.w.e.w.Q :X|.|.|.o     G |.|.|.|.|.|.|.|.|.|.|.|. X#     . |.|.|.c 1.i.w.w.<.<.q H q.w.e.w.w.e.<.e.",
"e.w.>.w.w.e.p.w.w.w.w.w.w.w.s.'.|.|.|.0.M S }.|.|.|.|.|.|.|.|.|.|.|.|.|.}.S A }.|.|.|.W ,.w.w.w.<.5.O.,.q.w.w.w.u.{ Y @.",
"p.w.p.w.e.p.p.e.w.w.w.e.p.e.e.s |. X|.|.|.|.|.|.|.|.|.|.|.|.|.|.|.|.|.|.|.|.|.|.|.|.Y.e.w.e.s.w.<.e.e.e.w.w.w.e.w.e U r.",
"e.p.w.w.e.w.w.w.w.w.w.e.e.e.e.<.a |. X|.|.|.|.|.|.|.|.|.|.|.|.|.|.|.|.|.|.|.|.|.|.].>.i.w.i.w.w.p.e.N.w.w.w.w.p.t.+.w.w.",
"w.w.w.w.e.w.e.e.e.<.<.e.w.w.w.e.e.f =X|.|.|.|.|.|.|.|.|.|.|.|.|.|.|.|.|.|.|.|.|.0.W e.w.w.w.p.e.w.w.e.w.e.e.e./ i.<.e.w.",
"w.w.w.w.e.w.e.q.<.e.8 w.w.w.w.w.,.e.( I.|.|.|. X|.|.|. X|.|.|.|.|.|.|. X|.|.P.- <.w.w.<.,.<.e.,.<.e.w.w.y.! ` f.,.w.w.w.",
"e.e.p.e.w.e.e./ #.K ,.<.e.p.w.w.w.e.e.w.;.& c ;X}. X|. X|.|.|.|.|.}.*X3 z D.w.m.p.e.w.e.*.p.@.I w.w.w.p.,.| ' u.5.e.w.e.",
"w.w.w.e.e.w.e.5.w &.{ <.w.e.w.w.e.w.b.w.(     @ iX4XQ.U.U.E.E.^.6XpXpXiXuXiX9.3.@X^ <.<.,.K 9 <.w.w.w.e.q.[ ,.e.e.e.w.w.",
"w.e.e.t.w.e.e.w.>.p.w.w.w.w.w.H ,.w.e.w.X   < pXpXpXpXpXpXpXpXpXpXpXiXZ     Q.n.1.i.w.e.;.+.w.w.e.e.k.w.w.e.w.p.e.w.w.w.",
"w.w.e.w.w.p.w.w.e.p.e.e.&.@.~ u.w.w.w.w.      1XpXpXpXpXpXpXpXpXuX&         rXE w.w.w.w.w.w.w.w.e.<.e.e.u.w.w.w.w.e.w.e.",
"e.e.w.e.w.w.e.w.e.p.<.e.5.y ] 5.5.w.w.T         eXpXpXpXpXpXpX6X          5XpXx p.w.e.w.p.w.w.w.<.#.e.O.U p.e.e.w.e.w.>.",
"w.w.w.e.w.e.w.e.e.e.e.<.w.{ <.e.w.w.w.i         X pXpXpXpXpXpXV             W.pXe.w.p.w.w.w.w.w.<.,.w J q.>.<.e.e.w.e.<.",
"w.<.w.p.e.e.e.e.<.,.e.<.<.w.w.w.w._ ~.z         j pXpXpXpXpXpX5X            1 iXx _ p.e.;.e.w.e.w.6.*.,.w.w.w.<.e.<.@Xe.",
"e.w.w.e.e.e.e.e.e.u.<.g.r w.q.w.E iXpXF.eXQ.D.2XiXpXpXpXpXpXpXpXyXx         4XpXQ.iXT.<.,.e.w.w.1.,.e.e.w.w.w.e.<.,.$XwX",
"w.<.w.p.1.2.w.e.e.{ y y <.,.p.6.pXpXpXA.pXpXpXpXpXpXpXpXpXpXpXpXpXz       uXpXpX~.pXpXA.w.w.w.w.i.] p.,.e.,.w.w.w.w.a.e.",
"w.,./ e.U #.,.p.,.;.| ;.6.p.<.B pXpXpXA.pXpXpXpXpXpXpXpXpXpXpXpXiX:       pXpXpX(.pXpXpXp e.w.p.,.w.e.e.w.w.w.e.e.e.p.e.",
"w.e.w.5 e 6.<.,.wXw.w.e.<.w.w.6XpXpXpXA.pXpXpXpXpXpXpXpXiXpXn pXpX(.    1XpXpXpXE.pXpXpXW.e.w.w.<.w.p.1.e.e.e.<.f.{ w.,.",
"w.w.>.H ;.,.e.m.V.m.<.w.t.%Xx.rXW.U.L.D.pXpXpXpXpXpXpXpXpXV D.pXpXpXrXiXpXpXpXpXN M R.~.2Xe.w.w.p.w.,.p.p.e.J u.9 6.c.w.",
"w.w.w.w.e.e.e.e.5.s.tXw.w.7X%.S  X|.|.!.pXpXpXpXpXpXpXpXpX^.rXpXpXpXpXpXpXpXpXpXS.|.|.|.l ,.,.w.,.w.p.n.w.;.] g.%.w.%XwX",
"e.e.w.p.e.p.e.m.e.x.%Xh.w.I `.|. X|.|.8.pXiXF.c `.Y.< uXpX5XrXpXpXiXj > < iXiXpXL.|.|. X|.& 1.s.p.e..XOXe.w.w.e.w.w.z.5.",
"w.w.w.e.w.e.w.$XtX<.[ <.,.a |.-X|.|.-Xv rXS |.|.|.|.|.=XC pXrXrXD -X|.|.|.-XS iXY. X|.|.-X{.e.1.e.e.w.w.e.e.w.e.w.w.w.w.",
"w.w.w.i.p.e.p.j.w.e.w.w.<.8.|.|.|.-X X).l |.|.|.|.|.|.|.-Xv eXJ.|.|.|.|.|.-X-XF H.|.|.|. X=X<.@.<.O.^ e.e.p.<.w.e.w.w.p.",
"w.e.w.e.e.e.e.e.e.e.W <.e.8.-X|.|.|.|.:X}.|.|.|.|.|.|.|.-XP.@ |.|.|. X|.|.|.-X|.G |.-X-X-X* p.,.w ~ q.w.,.p.w.w.w.w.e.e.",
"w.e.w.e.e.e.e.Y <.<.<.w.i.>X[.|.|.|.|.-X}.|.|.|.|.|.|.|. X].0.-X|.|.|.|.|.|.|.|.0.|.-X-X0.1.e.>.~ w.>.p.e.w.w.e.w.6.e.e.",
"w.w.<.<.K &.8 w.e.e.w.q.e.;._ P.|.|.|.|.3 |.|.|.|.|.|.|. XJ.* -X|.|.|.|.|.|.|.|.'.{.K.u e.w.q.e.e.e.<.e.w.e.w.w.e.e.e.e.",
"w.w.w.w.<. .%.q.e.e.e.p.e.y <.8 5.6 - -.,.`. X|.|.|.|.|.{.:.8 {.|.|.|.|.|.|.|.4 >.w.1.1.,.w.;.w.p.<.w.e.e.e.w.w.p.<.o.w.",
"w.e.e.e.;.;.w.w.e.e.e.e.e.w.} t q.w.w.w.1.<.X.D ;X}.'.b _ Y t R F |.|.|.|.).Q ,.w.>.>.w.w.w.,.w.M.w.,.w.w.q.w.w.p.q.P y.",
",.e.<.<.w.w.e.e.w.p.e.e.e.;.] ,.w.e.w.w.1.1.2.w.w.i.i.i.5.&.,.i.,.;.O o ( i.w.1.e.<.<.w.w.e.e.e.w.w.e.w.,.w.<.w.p.,._ w."
};
