/* XPM */
static char *player[] = {
/* columns rows colors chars-per-pixel */
"43 60 256 2",
"   c #69243B",
".  c #712B3C",
"X  c #792F3C",
"o  c #7B303B",
"O  c #6E2F40",
"+  c #723743",
"@  c #774248",
"#  c #8B3C3D",
"$  c #87353A",
"%  c #933C39",
"&  c #933039",
"*  c #972638",
"=  c #AB2836",
"-  c #B13737",
";  c #B03738",
":  c #B43B36",
">  c #B33A39",
",  c #B83F36",
"<  c #9D4039",
"1  c #A44439",
"2  c #AD4938",
"3  c #B54637",
"4  c #B3433D",
"5  c #B64D37",
"6  c #B54C39",
"7  c #BA4436",
"8  c #BB4E37",
"9  c #BD5137",
"0  c #B9563B",
"q  c #8D4B45",
"w  c #875A50",
"e  c #885B51",
"r  c #9F5745",
"t  c #926B56",
"y  c #9A785B",
"u  c #AE4744",
"i  c #A15644",
"p  c #B24D40",
"a  c #B85442",
"s  c #B55843",
"d  c #A0644D",
"f  c #AE7C56",
"g  c #AF7753",
"h  c #B36245",
"j  c #B66C49",
"k  c #B96846",
"l  c #BB6846",
"z  c #B4714D",
"x  c #BD734B",
"c  c #BB784E",
"v  c #B37A53",
"b  c #B97D52",
"n  c #B37650",
"m  c #CE3C3B",
"M  c #D82932",
"N  c #D43F3B",
"B  c #EB1F2C",
"V  c #EC242E",
"C  c #EB2B31",
"Z  c #F03830",
"A  c #EB3837",
"S  c #C85636",
"D  c #C65636",
"F  c #D84939",
"G  c #D55C35",
"H  c #D9583A",
"J  c #CF643C",
"K  c #DA6438",
"L  c #EB4A38",
"P  c #E45E34",
"I  c #EF5C33",
"U  c #E85938",
"Y  c #F44430",
"T  c #F44D33",
"R  c #F55534",
"E  c #F35339",
"W  c #F65B35",
"Q  c #F45D3B",
"!  c #F95D32",
"~  c #E36434",
"^  c #EB6434",
"/  c #ED6A34",
"(  c #E5693B",
")  c #E5733E",
"_  c #EB733A",
"`  c #F5643E",
"'  c #F46D34",
"]  c #F66B3D",
"[  c #FB6432",
"{  c #FD6D32",
"}  c #F96B3A",
"|  c #F36333",
" . c #FE7233",
".. c #FB7339",
"X. c #FE7937",
"o. c #FE7C39",
"O. c #F4753B",
"+. c #CA5D45",
"@. c #D55A47",
"#. c #CE664D",
"$. c #C1644F",
"%. c #CE6D50",
"&. c #CF7F57",
"*. c #CF7653",
"=. c #D9694C",
"-. c #DA7141",
";. c #DB7B45",
":. c #D17D4C",
">. c #D47B57",
",. c #D17351",
"<. c #C3784C",
"1. c #E44D40",
"2. c #EA5A46",
"3. c #E76640",
"4. c #EE6F47",
"5. c #E76848",
"6. c #E36F50",
"7. c #E07440",
"8. c #E57D43",
"9. c #EE7D4C",
"0. c #EA7B53",
"q. c #F76D40",
"w. c #F36140",
"e. c #F77242",
"r. c #F97C44",
"t. c #F67844",
"y. c #AE845A",
"u. c #B38559",
"i. c #B48B5C",
"p. c #B88054",
"a. c #A18B63",
"s. c #AE9263",
"d. c #FE833D",
"f. c #FF883F",
"g. c #C3855D",
"h. c #CC9057",
"j. c #D4834C",
"k. c #DB854B",
"l. c #DB8C4F",
"z. c #D68B51",
"x. c #DA8E51",
"c. c #DD8E5E",
"v. c #D28755",
"b. c #D69255",
"n. c #D3945A",
"m. c #D49B5B",
"M. c #DC9454",
"N. c #DC9957",
"B. c #DB9C5A",
"V. c #DB925B",
"C. c #DD9260",
"Z. c #DC9B63",
"A. c #D29B60",
"S. c #D6A25E",
"D. c #DCA25D",
"F. c #DFA95F",
"G. c #CEAA66",
"H. c #C5AA6A",
"J. c #CEB76D",
"K. c #C8BB73",
"L. c #D5A963",
"P. c #DBA463",
"I. c #DAAC65",
"U. c #DDAA6B",
"Y. c #D6A563",
"T. c #D3B56B",
"R. c #D5BB6D",
"E. c #DCB266",
"W. c #DCB969",
"Q. c #DAB668",
"!. c #D4BA71",
"~. c #E4884B",
"^. c #E98859",
"/. c #EE984F",
"(. c #E6914F",
"). c #E49C55",
"_. c #ED9D52",
"`. c #E99659",
"'. c #F48044",
"]. c #F2834C",
"[. c #F78C45",
"{. c #FC8542",
"}. c #FC8B42",
"|. c #FB8D4A",
" X c #F88549",
".X c #F4934A",
"XX c #F39A4E",
"oX c #FE9346",
"OX c #FC954A",
"+X c #FD9B4B",
"@X c #F39E51",
"#X c #FC9E50",
"$X c #F19755",
"%X c #E99660",
"&X c #E1A25A",
"*X c #E4AA5D",
"=X c #EDA255",
"-X c #E9A158",
";X c #E9B05F",
":X c #FEA24E",
">X c #F5A554",
",X c #F7A956",
"<X c #F5AD5A",
"1X c #FDA451",
"2X c #FEAE55",
"3X c #F5AA59",
"4X c #F4B25D",
"5X c #F7B95F",
"6X c #FEB056",
"7X c #FCB45A",
"8X c #FABA5E",
"9X c #E2AD60",
"0X c #ECAB63",
"qX c #EBA363",
"wX c #E3B363",
"eX c #E7B36E",
"rX c #E3BD69",
"tX c #ECB466",
"yX c #EBB469",
"uX c #EDBC65",
"iX c #EEBD6C",
"pX c #E5BA71",
"aX c #F4BD63",
"sX c #FABD60",
"dX c #CAC376",
"fX c #DCC06E",
"gX c #DCC374",
"hX c #D9C673",
"jX c #D4D47C",
"kX c #E4C36C",
"lX c #EFCD6E",
"zX c #EAC269",
"xX c #E7CD79",
"cX c #EDCD70",
"vX c #E0C971",
"bX c #E5D777",
"nX c #EFD473",
"mX c #EEDB76",
"MX c #EBDB7A",
"NX c #E5D67A",
"BX c #F4C366",
"VX c #F0C669",
"CX c #F2CA6B",
"ZX c #F2D16F",
"AX c #F0D270",
"SX c #F0DA75",
"DX c #EAE47F",
"FX c #D8DC80",
"GX c #DBEB87",
"HX c #E5DB80",
"JX c #E7EE86",
"KX c #E5ED88",
"LX c #EAED83",
"PX c #E5FC8E",
"IX c #E7F288",
"UX c #E4FE90",
/* pixels */
". 1 8 9 u.b x x 4 7 9 9 z i.c x p.u.9 9 7 : l x c i.k 8 8 : a x x a : 9 9 k i.c x i O ",
"1 '  . .+X7X2X2XOX . . .f.2X2X6X7X+X . . .d.2X2X2X2XX. . . .:X2X2X#X{  . .X.2X6X2X>Xi ",
"9  . . .d.2X2X2X:XX. . .X.:X2X2X2Xf. . . .oX2X2X2X+X . . .d.2X2X6X2Xo. . . .+X6X2X2Xz ",
"8  . . .d.2X7X2X1XX.{  .{ +X6X6X2X}.{  . .oX7X2X7XoX{  .{ d.2X2X6X:XX.{  . .OX6X7X2Xz ",
": X.f.o.T r.+X+XCX4Xf.f.W Q +XoX5XCX}.f.OXnX2X+XOXE } f.f.VXBX+X+X] R d.f.] E OX+X2Xy.",
"s 1X2X2Xr.{  . .+X8X2X2XOX{  . .d.5X7X2X7X<XX. . .} :X2X2X5X}. . .{ |.2X2X:X}  . .o.h ",
"<.2X2X7X+X . . .o.1X2X2X2Xo. . . .oX2X2X2Xf. . . .}.2X2X2X:X . . .X.1X2X2X2Xd.{  . .5 ",
"c 2X2X2X+X . . .o.2X2X2X2Xo. . . .+X2X2X2XoX . .{ }.2X2X2X:X . . .X.1X2X2X2Xd. . . .5 ",
"i.6X:X:X` } o.X.W r.7XsXCX7Xd.o.| ` :X:X7XVXf.X.d.BX5X:X:X] W o.X.,XCX:X:X|.R X.o...; ",
"z d.X. .W OX1X2Xt.].H.s.jXZX1X2X+XW  . .d.BX7X2X2XBX}. .X.W |.7X7XBX,X .X.[ q.2X1X:Xp ",
"9  . .{ f.2X2X7X2XG.+   y BX2X2X2Xf. . . .f.2X2X2X+X . . .o.7XtX`.iXo. . . .+X6X2X2Xj ",
"9  . . .f.2X2X2X2XG.+   e VX2X2X2Xd. . .X.:XaXaXaX:X . . .o.BX2.B ^.[. . . .+X2X2X7Xj ",
", {  .X.4X8X2X1Xt.(.t   e uX1X2X5X4Xo._.S.b.b.z.n.S.&X.XX.>XnX2.A %X..[.[.}.BX2X2X:Xp ",
"4 OX:X2XcX+Xo.o.R  XH.O w `.o.o.+XnX9Xj._ { {  . .' ) l.*XnXlX5.`.].^.^.`.nXBXd.d.{ ; ",
"x 2X2X6X+X . . .X.1XCXt w >X{  .X.*X8.X.oXd. . . . .{ R 8.*X#XtX+X0X2.V C qXoX{  . .5 ",
"x 2X2X6X+X . . .o.2X8X!.a.wXX. .).) X.X.f.X. . . . .{ { { z._.d.-X2.V V C qX|. . . .5 ",
"b 6X2X2Xr.{  . ..X8X8XH.+ y XX[.b. .d. . . . . . . . . . ._ D.oXwX^.^.^.qXaX}  . .X.h ",
"u.+Xf.d.T t.+X+XZX4XoXH.@ y 5X;X)  . ./ S  . .{ [  . .[ { G h.,X6XSXcX+XOX] E OXoX2Xy.",
"0 X.{  .o.2X6X6X1Xo. .[.F.uX8XI./  . .G X 5  .{ [  . .[ ~ # <.BX2X2Xd.{ {  .oX2X2X7Xz ",
"8  . . .f.2X2X6X:XX....X-X7XBXm.'  . . .9 X 5  . . . . .D < ) zX2X1XX. . . .+X2X2X2Xj ",
"0  . . .oX6X2X2X+X .(.#.b xXsXm. . . . . .5 . 5  . . . .< 9 _ W.7X2Xf.{  .X.1X2X2X2Xh ",
"i.:X}.OXnX4XoXoXQ 9.,.M K.cX3XV. . . ./ 5 # X 2  .[ T I < < ~ S.,XBXVXoXf.<XnX+XoXd.; ",
"b 7X2X2X,XX. . .`.H.@.F u ).=Xj.o. . .~ 1 D /  . .! Y [ ~ 5 ~ ) -Xd.7X2X2X7XOX . . .3 ",
"x 2X2X2X+X . .o.n.m 6.pX1.v.R.) { [ ' S l l.K { ' G  ./ K O.j.J D.o.:X7X2X2Xd. . . .5 ",
"x 2X2X2X:XX.{ [.*.1.0.%X6.$.jX;.[ { ' G 0 q X % 9 G / ~ 5 < < j..X .:X7X2X2X}. . . .6 ",
"7 |.+X:XnX+XOXA.>.xX5.0.A %.zXm. . . . . ./ 7 = = = & X   $ J L.|.W w.+X+XsXVXf.d.+Xf ",
"7 { X.X.>X8X8Xm.@.eX^.KX6.g.sXaXl.' { [  . .{ Y V V M * $ J F.5X2XOX[  . .f.aX2X1X7Xv ",
"9  .{  .f.2X2X5XY.@.F >.#.9XsXyXz.| [ {  . . . .[ T Y T K &X7X2X2X2XX. . . .+X2X2X2Xj ",
"9 {  . .f.2X2X2XzX;.:.L._.7XwX8.X. .{ [ ! ! [ { { { ! ~ m.f.zXkXaX2Xo. . . .+X7X2X7Xz ",
"n }.X.X.R |.1X2XL./ z.>X>XrX8. . . .{ { [ R Q ] ` T Z L M.&Xk.) v.W.4XX.X.[ ] :X1X7Xu.",
"i.6X1X:X` { o.}.m.{ ) rXkXk.{  .{ [ [ W ..BXLXLXDXbX;Xo./ ( ' [ [ ) n.4X1XOXR  .X.f.z ",
"x 2X2X2X+X . .[.z.{ ^ m.m.{  .{ { {  .X.'.MXIXPXPXPXDX<X! {  .[ { { | b.aX2Xd. . . .5 ",
"x 7X2X2XoX . .[.m... ._ K  . . .{ [ [ { ].LXUXUXUXUXPXDX} [ [ W ! [ { ;.BX2Xd. . . .5 ",
"s :X2X2XaXf. .}.J.[.{  .! ! {  . .{ { ! 0XPXUXUXUXUXUXPX.X[  . .{ [ 3.9X6X5X>XX. .{ : ",
":  .f.f.CX5X+X2XfX*XX. .{ ! [  . .[ [ W xXUXUXUXUXUXPXUXuXR  . .[ ) N.}.o.#XnX:X:X|.4 ",
"9  . .{ }.2X2X2XzXJ.>X .{ { ! ! T ! | 0XPXUXUXUXUXUXUXUXNX+.H ) z.*Xd.{  . .:X6X2X2Xj ",
"9  . . .f.2X2X2X2XI.kX>X! [  .! T { ..LXUXUXUXUXUXUXUXPXGXK.hXkXBX<Xo. . . .+X2X2X2Xj ",
"7 {  . ...:X2X2X7X[.F.kX>X . .! [ {  .MXUXUXUXPXUXUXUXUXGX%.n.aX2X+X{  . .{ |.6X2X2Xg ",
", {.OX|.E } }.}.VXBX>XwXhXCXo.' {  .{ $XIXUXPXPXUXUXUXUXKX1.R M.>XQ Q oXOXe.R d.}.>Xy.",
"j 6X6X6X|.{  . .f.2X2X7XrXS...o. . .[ W eXUXPXPXUXPXUXUXHXE [ | m.d.+X2X2X2XX.{  . .0 ",
"x 2X2X2X+X . . .o.2X2X2X8XL.'  . . .{ { r.KXPXPXPXPXPXLXeXT  .{ z..X1X2X2X2Xf.{  . .5 ",
"c 7X7X2XoX . . ...:X2X2XsXL.'  . . . . ...MXLXPXPXPXPXDX9.!  .{ z.>X2X2X2X2XX.{  . .6 ",
"i.1XOX|.T } }.f.R ] OXoXBXhX/  . . .{ { ] 4XnXmXSXnXiX9.R  .{ W S.VXVXoXOXe.E f.f.X.; ",
"k X. .{ ..1X2X7X|.{ P F '.zX;.[ {  .[ ' z.L.L.L.Y.-.W ! {  .| l.uX8XoX . .{ [.2X2X2Xs ",
"8  . . .f.2X2X2X:XX.F =.G 2Xm.| { { [ z.[.>XBXaXBXS./ ! [ [ / W.7X1Xo. . . .+X2X2X2Xj ",
"8  . . .}.2X2X2X:X .~ S / 4Xz...{ ..X.N.-X}.2X2XsXS.{ {.'.@X-XdXzX1XX. . . .:X2X2X2Xj ",
":  .d.d.VX5X:X+X` W ( K E 4.S.gXl.kX&XdXR.w.|.:X:XbXY.T.R.dXK.Q.,X..R d.d.+XnX:X:X|.4 ",
"a :X2X2XBX{. . .[ |.k.k.].[ .XQ.*XR.R.fXaX} {  .X.7XBXkXzXVX@XX.X.[ '.2X2X8X<XX. .{ : ",
"x 2X2X2X+X . . .o.2Xl.(.M.;.;.;.-.M.B.m.N.k.-.-.-.;.m.V.N.x.-.-.) X.1X2X2X2Xd. . . .5 ",
"x 2X2X2X+X . . .o.2XXX~.N.T.jXU.c.U.gXP.U.Z.C.Z.Z.c.gXW.P.c.c.gXT.' :X2X7X2Xd. . . .5 ",
"i.7X1X:X] [ X.X.<XBX1XXX( F Y.I.V.B.I.Z.P.I.P.P.B.c.I.I.P.U.Y.I.m._.BX2X2XOXW  .X.f.z ",
"c }.o.X.W OX1X1XBX>Xo.X.[ O.>X_.(.U ' ' _ wX-X@X_.( I / ' ).;X@X>XBX,Xo...| ] :X:X7Xy.",
"9  . . .f.2X2X2X:XX. . .X.:X2X2X2Xd. . . .oX2X2X2X+X . .{ d.2X2X2X2XX. . . .+X2X2X2Xz ",
"8  . .{ d.2X2X2X:XX. . . .1X2X2X2Xd. . . .oX7X2X2X+X . . .d.2X2X2X1Xo. . . .+X2X2X2Xj ",
"l X. .X.,X5X2X2X[.[  . .oX5X2X2X:X' {  .} ..1X2X2X5Xd. . .[ OX2X2XsX+X . .f.sX2X2X:X0 ",
"i.2X+X:XnX+Xd.d.R t.+X+XBXBXd.d.} E +X+X|.R ..f.}.CX5X+X+XQ W d.f.4XVX:X+X5XVX}.f...; ",
"c 2X2X7X:X . . .X.1X2X6X2Xd. .{ { OX2X2X2X}. . .{ f.2X2X2X+XX. .{ X.1X7X2X7Xf. . . .3 ",
"j >X2X2XoX . . .o.2X2X2X2Xo. . . .+X7X2X2X|. . . .f.7X2X2X>X . . . .1X2X2X2Xd. . . .5 ",
"y s.M.7X<Xo. . .oX7X6X6X:X}  . .o.<X2X2X2Xo. . . .X.1X2X2X7Xd. . . .+X2X2X7X+X . .' < ",
"y y.d z y.h 5 5 g p.j j 2 - 5 5 h u.z z h - 3 5 3 - s z j y.j 5 5 : 4 j j g f 6 5 < . "
};
