/* XPM */
static char *player[] = {
/* columns rows colors chars-per-pixel */
"60 60 256 2",
"   c #5F76B8",
".  c #764F8E",
"X  c #76508F",
"o  c #78528F",
"O  c #7D5A94",
"+  c #7E5D99",
"@  c #775794",
"#  c #75639C",
"$  c #7D649B",
"%  c #7C699F",
"&  c #7C6197",
"*  c #696AAB",
"=  c #6B67A7",
"-  c #636FB0",
";  c #6371B3",
":  c #657ABB",
">  c #7367A0",
",  c #7B6AA1",
"<  c #7D72A6",
"1  c #7E76AA",
"2  c #7D7AAC",
"3  c #747BB2",
"4  c #5B7DC3",
"5  c #637BC0",
"6  c #3E9DF5",
"7  c #3FA0F7",
"8  c #3FA1F9",
"9  c #7987B9",
"0  c #5D8ACD",
"q  c #5B85CA",
"w  c #568CD4",
"e  c #548ED9",
"r  c #5A8CD4",
"t  c #5991D9",
"y  c #4399EC",
"u  c #4995E5",
"i  c #409FF6",
"p  c #419FF8",
"a  c #4B9EF1",
"s  c #579AE3",
"d  c #529DEA",
"f  c #5599E3",
"g  c #41A0F7",
"h  c #43A3FA",
"j  c #47A8FE",
"k  c #49A7FD",
"l  c #4CACFD",
"z  c #4EA1F2",
"x  c #4FB0FE",
"c  c #54A2EC",
"v  c #59A5EC",
"b  c #51AFFC",
"n  c #53A6F2",
"m  c #54B2FE",
"M  c #58B6FD",
"N  c #6588CB",
"B  c #6587C5",
"V  c #7088C0",
"C  c #7392C9",
"Z  c #6593D2",
"A  c #835E96",
"S  c #855C99",
"D  c #8B5D9B",
"F  c #935F9E",
"G  c #856296",
"H  c #82659C",
"J  c #84699A",
"K  c #896496",
"L  c #8A649D",
"P  c #8A6C9B",
"I  c #89729E",
"U  c #916E9A",
"Y  c #9A759C",
"T  c #8A69A4",
"R  c #8675A4",
"E  c #867AA6",
"W  c #827DAB",
"Q  c #8677AA",
"!  c #8E7EB3",
"~  c #9364A3",
"^  c #9B62A3",
"/  c #987DA3",
"(  c #9B7AB0",
")  c #A365A7",
"_  c #AE69AC",
"`  c #A768AA",
"'  c #A47EB7",
"]  c #B36AAE",
"[  c #B56DB1",
"{  c #B977B8",
"}  c #C673BA",
"|  c #C371B7",
" . c #CD7DC2",
".. c #C77CC1",
"X. c #DF7FC8",
"o. c #D87DC5",
"O. c #E17FC8",
"+. c #8582AD",
"@. c #8A83AB",
"#. c #848DBB",
"$. c #8788B3",
"%. c #8591BC",
"&. c #8C94B9",
"*. c #8C96B9",
"=. c #9A82A5",
"-. c #978AB6",
";. c #9192B3",
":. c #929AB9",
">. c #9797B7",
",. c #98A2BE",
"<. c #A48CAA",
"1. c #A888A7",
"2. c #A683B9",
"3. c #A590AB",
"4. c #A797B4",
"5. c #BA83BC",
"6. c #B69AAF",
"7. c #BA9EB2",
"8. c #A6A6BB",
"9. c #BAA5B8",
"0. c #BFB1BC",
"q. c #8396C3",
"w. c #989DC1",
"e. c #85A4CD",
"r. c #8BA3C8",
"t. c #88ABD3",
"y. c #8AB9DE",
"u. c #8CB6D8",
"i. c #95A8C4",
"p. c #99ACC5",
"a. c #94A8C4",
"s. c #9BB4CA",
"d. c #9DBBD0",
"f. c #9AAAD7",
"g. c #8BBEE1",
"h. c #B89CC2",
"j. c #A8ADC0",
"k. c #BFA0C6",
"l. c #BBB3C0",
"z. c #9FC0D3",
"x. c #8CC2E4",
"c. c #8EC7E9",
"v. c #8DCBEC",
"b. c #8ED0EF",
"n. c #8ED3F1",
"m. c #8ED9F6",
"M. c #94C7E6",
"N. c #91D5EF",
"B. c #92DBF4",
"V. c #91D5F1",
"C. c #97E1F3",
"Z. c #9CE4F4",
"A. c #9EE9F6",
"S. c #A5C7D7",
"D. c #A6D1DD",
"F. c #BFC2C7",
"G. c #B1CED8",
"H. c #ADD6E3",
"J. c #ADDEE6",
"K. c #A6D9E6",
"L. c #B9D8E8",
"P. c #B5DFF4",
"I. c #AEE4EA",
"U. c #AEE9ED",
"Y. c #A9E1E9",
"T. c #A3EBF5",
"R. c #ABECF1",
"E. c #ABF3F6",
"W. c #AEF8F9",
"Q. c #B0E9ED",
"!. c #B2EDF0",
"~. c #B4F5F5",
"^. c #B6FEFB",
"/. c #B8FEFB",
"(. c #B8FAF7",
"). c #C39EAE",
"_. c #C5A2B1",
"`. c #C9A4B1",
"'. c #C7B4BA",
"]. c #D0ACB6",
"[. c #D7B8BB",
"{. c #E1BDBC",
"}. c #C98AC9",
"|. c #CF94D0",
" X c #D281C6",
".X c #D785CA",
"XX c #D091CF",
"oX c #D395D2",
"OX c #DA9AD7",
"+X c #C9BDC1",
"@X c #CABDD1",
"#X c #D9A8D9",
"$X c #D1BCD6",
"%X c #DEB7EB",
"&X c #E482CB",
"*X c #FB89D6",
"=X c #FB8DD9",
"-X c #F487D3",
";X c #F994DD",
":X c #FE9AE2",
">X c #FE97E0",
",X c #E3A2DE",
"<X c #EBA8E4",
"1X c #F4A4E5",
"2X c #FCA2E6",
"3X c #FEA5E9",
"4X c #FDADED",
"5X c #F5AEEB",
"6X c #F5B5EE",
"7X c #FCB2EF",
"8X c #F3BCF1",
"9X c #FEB4F1",
"0X c #FAB7F1",
"qX c #EAB2E5",
"wX c #E4C2BE",
"eX c #E9C5BF",
"rX c #CEC3C4",
"tX c #C6C7CA",
"yX c #D3C5C4",
"uX c #D5CDC9",
"iX c #D5C8C5",
"pX c #DED8CF",
"aX c #D9D0CB",
"sX c #D9D7D3",
"dX c #DCE8DF",
"fX c #CBE4E1",
"gX c #C2E7F2",
"hX c #C6F5EE",
"jX c #C4FDF5",
"kX c #CCFEF3",
"lX c #C8F1FA",
"zX c #DEEBE1",
"xX c #D9FCEC",
"cX c #E5CCC5",
"vX c #E6C6C2",
"bX c #F1CDC2",
"nX c #F3D2C5",
"mX c #FBDBC8",
"MX c #E9D2C7",
"NX c #E6D8E7",
"BX c #FBC6F3",
"VX c #FEDAF8",
"CX c #EBCCE9",
"ZX c #E9E5D5",
"AX c #EDECD9",
"SX c #EAE6D5",
"DX c #FAE4CD",
"FX c #FAEBD2",
"GX c #F6EBD5",
"HX c #F5F4DB",
"JX c #FBF5D8",
"KX c #FDFEDE",
"LX c #FCF0D5",
"PX c #ECFDE5",
"IX c #E7FEE9",
"UX c #FDFEE0",
/* pixels */
"g g g g p p i i i 6 6 6 6 6 6 6 6 6 6 6 6 6 6 6 6 6 6 6 6 6 6 6 6 6 6 6 y 6 6 6 6 6 6 6 6 y 6 6 6 y y 6 y 6 6 y y 6 6 6 ",
"g g g g p p i p i p p p 6 p i 6 6 6 6 6 6 p 6 6 6 6 6 6 6 6 6 6 y 6 6 6 6 6 y 6 6 6 6 6 6 y y 6 6 6 6 6 6 6 6 6 6 6 6 6 ",
"h g h g g p p i i i 6 6 i 6 i 6 6 6 6 6 6 6 6 6 6 6 i 6 6 6 6 6 6 6 6 6 6 6 6 6 6 6 y 6 6 6 6 y 6 6 y 6 y 6 6 y 6 6 6 6 ",
"g g g g g g i i i i p i 6 i 6 i 6 6 6 6 6 6 6 6 6 6 6 6 6 6 6 6 6 y 6 6 6 6 6 6 6 6 6 6 6 6 6 6 6 6 6 6 6 6 6 6 6 6 6 6 ",
"p h p i g p p p g g g i i i 6 i p 6 6 6 6 6 6 6 6 6 6 6 6 6 6 6 6 6 y 6 6 6 6 6 6 6 6 6 6 6 6 6 6 6 6 y 6 6 6 6 6 6 6 6 ",
"h p p i g h p p g i p i 6 6 i i 6 p p 6 i 6 6 6 6 6 6 6 6 6 6 6 6 6 6 6 6 6 6 6 6 6 6 6 6 6 6 y 6 6 6 6 6 6 6 6 6 6 6 6 ",
"h h i h h p p p i i i 7 i 6 i 6 p p 6 g 6 6 6 6 6 6 6 6 6 6 6 6 6 6 6 6 6 6 6 6 6 6 6 6 6 y 6 6 6 6 6 6 6 6 6 6 6 6 6 6 ",
"h i h h h p p p i i 7 i i i 6 7 6 6 6 6 6 6 6 6 6 6 6 6 6 6 6 6 6 6 y 6 6 6 6 6 6 6 y 6 6 6 6 6 6 6 6 6 6 6 6 6 6 6 6 6 ",
"h h i h i h i h i h i i 7 7 i 6 6 7 7 7 7 6 6 6 6 6 6 6 6 6 6 6 6 6 6 6 6 6 6 6 6 6 6 6 6 6 6 6 6 y 6 6 6 6 y 6 6 6 6 6 ",
"h i h i h i h i i p i i i 7 7 7 7 7 7 7 6 6 6 6 6 6 6 6 6 6 6 6 6 6 6 6 6 6 6 6 6 6 6 6 6 6 6 6 6 6 6 6 6 6 6 6 6 6 6 6 ",
"i h h i i h i h i h p h i 7 7 7 6 7 6 7 7 6 6 6 6 6 6 6 6 6 6 6 6 6 6 6 6 6 6 6 6 6 6 6 6 6 6 i 6 6 6 6 6 6 6 6 6 6 6 6 ",
"p h h h h i h h h i h i 7 7 7 7 7 6 7 6 7 6 6 7 6 6 6 6 6 6 6 6 6 6 6 6 6 6 6 6 6 6 6 6 6 6 6 6 6 6 6 6 6 6 6 6 6 6 6 6 ",
"h h h h i h h i i h i i i i 7 7 6 6 7 6 7 6 7 6 6 6 6 6 6 6 6 6 6 6 6 6 6 6 6 6 6 6 6 6 6 6 6 6 6 6 6 6 6 6 6 6 6 6 6 6 ",
"h h k h h h i i h i h i g g 7 g 7 7 6 7 7 6 7 6 6 6 6 6 6 6 6 6 6 6 6 6 6 6 6 6 6 6 6 6 6 6 6 6 6 6 6 6 6 6 6 6 6 6 6 6 ",
"h h h p i p k h i p h i g g g 8 7 6 7 7 7 7 7 6 6 6 6 6 6 6 6 6 6 6 6 6 6 6 6 6 6 6 6 6 6 6 6 6 6 6 6 6 6 6 6 6 6 6 6 6 ",
"h k h h p h h h p p h h g g g g 7 6 6 6 6 6 7 6 6 6 6 6 6 6 6 6 6 6 6 6 6 6 6 6 6 6 6 6 6 6 6 6 6 6 6 6 6 6 6 6 6 6 6 6 ",
"h h h h h h h h h g h g g g g 8 u B - =   i 6 6 6 6 i 7 6 6 6 6 6 6 6 6 6 6 ; * * ; y 6 6 6 6 6 6 6 6 i p 6 g g i 6 6 6 ",
"h j h h j h h h g h g g g g 8 u 9 ,.,.,.r.B y 6 y q 4 4 4 4 4 4 4 q y 6 u q a.p.p.a.B u 6 6 6 7 6 i 6 7 6 p 6 6 i i 7 7 ",
"h j j h g h h g h h 8 g g g y B ;.gX(.jXL.W w u w W E E E W E E E W w u 0 W L.lXlXgX$.N y 6 6 g 7 6 6 6 6 p g 6 6 i 7 7 ",
"h h h h j h h h h g j g g h - :.gX8X8X6X%XM.2 # +.!.~.~.~.~.~.~.~.Q.W # 9 M.%X7X7X8X!.*.  g 6 6 7 i 7 6 7 i g 6 i i 7 7 ",
"j h j h h j g h h h g h g h * :.lX0X:X XT R S.K.I.^.^.^././.^.^.^.^.I.H.d.R U  X:X8XlX;.- 6 g 6 6 i 6 i 6 g g 6 i i g g ",
"h h h h j g j g j g h h g h * *.Q.1X .2.i.i.U./.^.^.^.^././.^.^.^.^.^./.Y.i.i.2. .1XU.$.- 6 6 6 i i i i g 6 6 h i g g g ",
"j h j h g j j g j g h g h i q 9 f. X( d././.^.^.^.^.^.^.^.^.^.^.^.^.^.^./././.s.'  Xf.9 4 6 p p i i i i g g g g h g g g ",
"j h j h j j g j h j g j h h i 0 + + S./.^.^.^.^.^.^.^./.^.^.^.^.^.^.^.^.^.^.^.^.S.O # w 6 g 6 g p g g g g g g g g g g g ",
"h j h j h j h h j h h h h h h g e @ D./.^.^.^.^.^.^.^.^.^.^.^.^.^.^.^.^.^.^.^./.z.# e i p g g i i i g g g g g g h 8 h i ",
"j k j h h h h j h h j h h h h u B s.I./.^.^.^./.^.^.^.^.^.^./.^.^.^.^.^.^.^.^./.Y.e.9 u g g g g g g g p h g g h h 6 7 h ",
"j j h j j h h h k h j h h h j 0 E ~.^.^.^.^.^.^.^.^.^.^.^.^.^.^.^.^.^.^.^.^.^.^.^.!.I w g g g g g g p p g h h g h h h h ",
"k j k j h k h j h h h h j h h 0 +.~./.^.^.^.^.^.^./.^.^.^.^.^.^.^.^.^.^.^.^.^.^.^.!.E r g g g h g g h g g g h g 6 h 8 6 ",
"j k j j k h j h j h h h h h   *.I.^.^.^.^.^.^.^.^.^.^.^.^.^.^.^.^.^.^.^.^.^.^.^.^.^.I.#.  h h g g h 8 h h h g h g h g h ",
"j j k j k j h j h h h j j h * :.^.^.^.^.^././.^.^.^.^.^.^.^.^.^.^.^.^.^./.^.^.^.^.^./.;.; g h g g 8 h 6 h g g h h h h h ",
"k k k j k k k j h j j h h h * ,.(.^.^.^.~.D.D.Q.^.^.jXkXkXkXkXkXjX^.^.I.D.D.~./.^.^.^.;.; g 8 h h h h h 6 h h h h h h h ",
"k k k k k h j j j j h j h h * :.(.^.^.^.I.$ o p./.(.PXHXAXAXAXHXPXjX(.,.@ $ I.^.^.^.^.;.; i h h 6 h h h h h h h h h h h ",
"k k j j j k k k j j j j h h * :.^.^.^.^.J.$ o p.jXPXUX+XP I P +XKXPXjXi.o $ Q./.^.^./.;.; g h h 8 h h h h h j h h h h h ",
"j l k l j k j d 5 : : e j h - *.T.(.^.^.J.& o 8.IXUXKX9.o o o 0.KXKXIX4.X $ I./.^.^.T.$.; h h w : : 5 u h h h h h j j h ",
"l j l k j k j w & 1.<.q.e w = &.Z.E.^.W.K.*.&.tXUXKXKXrX/ O =.uXKXKXKXF.$.:.Y.^.W.E.Z.$.= w w q.1.<.& e j h h h j h h h ",
"l l l j l j l w I HXKX'.J J G >.R.m.E.T.C.~.(.xXKXKXKXKXaXG pXKXKXKXKXxX^.W.B.T.E.N.U.;.G J J rXKXAXP w j h h j h h h j ",
"l l l l j j j w I AXKXHXZXZXcX7.+.b.B.T.E.C.E.IXKXKXKXKXaXJ pXKXKXKXKXxXE.C.E.A.m.v.+._.cXZXZXHXKXSXI e j h h h h j h j ",
"j l x j l l l z Z 4.<.'.DXDXmX)., b.m.C.A.m.C.fXDXKXKXyX/ O =.aXKXKXFXfXC.m.Z.C.m.v.% `.mXDXDX'.3.-.r a h h j k j h k h ",
"l l l l l l l j c @ / 6.`.`.bX[.<.e.e.e.e.e.v.J.sXGXLX+X1.1.1.[.LXGXsXH.v.e.e.e.e.r.<.[.eX_._.6./ # a j j h k h h h k k ",
"l l l l l l j l z # iXrXK P [.mX{.& H L D T t.c.D.vXnXbXeXeXeXeXnXvXM.v.t.T L L S G wXmX[.P P iXrX# a j h j h k j j j h ",
"l l l l l l l l c # rXHXSXSXHXFX{.G @XCX<X<X( , T U {.).K L J _.[.U % % >.NXqX<X}.K wXFXLXZXZXHX+X> a j h k j h j j k k ",
"l l x l l l l l k s &.<.<.<.cXDX{.G #XBX7X7XOXoXXXoX1.9.$X|.oX5.1.|.oXOX,XBX9X9X|.K wXmXiX<.<.<.#.f h k j k j j k j k k ",
"x l l l l l l l l l r * O 3.wXmX{.G XX7X7X2X2X2X3X:X~ h.VX9X4X{ ^ :X3X2X2X3X7X7X}.G eXmX{.<.A * w j j j k j k k j k k k ",
"x l l x l l l l l l l t W aXcXwX].S o.:X4X;X;X=X=X-XF 5.4X4X=X[ ^ =X*X=X;X>X7X:X .D ].eXcXsX2 e j j k k k j j k k k k k ",
"x l x l x l l l l l l l c < G G G O OX7X7X4X7X:X*X-X~ { =X=X*X[ ^ -X*X:X4X4X9X7X|.O & G G < d k k k k k k k l k k k j k ",
"x x l x l l l x x l l x n f = @.p.A .X:X:X:X:X .^ ` }.{ ) ` ` 5.}.` ^  X:X>X:X:X .G s.E = f k h l j j l k l k k j l l l ",
"b x x l x x l x l l l l n t %.S.J.H _ } } } } ' 3 + <XXX^ O ) OXOX@ 9 ' } } } } _ H I.S.q.t k k k j l k l k l k l k l k ",
"b b b b x x x l l x l n c 2 K.^.K.1 , + @ % , e.g.$ <X:Xo.S X.3XOXT c.q., $ O & , 1 Y.^.D.2 s l k l l l l l l k l l l l ",
"b b b b b b x x l x x r 1 I.~.T.N.c.c.q., x.v.b.g.H ,X:Xo.S &X3X,XT g.v.c.g., q.c.c.N.R.~.J.1 t j l l l j l l l b k l l ",
"m b b b b b b x x x x 0 U dX8.+.2 2 2 q.y.n.m.e.! OX5X:Xo.D .X:X5XoX! e.m.n.g.q.2 2 2 W j.dXP r j l l l l l l l k l l l ",
"m b m m b b b b x m l s 9 l.,.*.:.&.H q.B.Z.u.w.k.0X3X>Xo.S O.:X9X1X{ w.u.Z.m.q.$ :.:.:.8.0.V d l m l l l l l l l l l l ",
"m b b m m m m b m l m l v # G.kXjX(.:.%.M.!.W 4.CX,X;XO...T  .:X:X.XO._ @.R.g.$.,./.jX(.S.# n j l l l l b l l l l l l l ",
"M m b m b m m m b b m m c % aXUXPXjX(.p.2 v.W & H D O.| Q x.Q } .XD H + ! v.1 s.~.jXPXKXuX> n l b l b l k b l l l l b b ",
"m m m m m m m m m b b m v > aXKXUXPXjXU.K.V.x.y.e.S O.{ 1 v.< } O.+ e.y.g.m.K.!.jXPXKXKXiX> n l l l l l b l b l l l l l ",
"m m m M m m m m b m m m v % [.JXKXUXkXE.T.m.m.m.g.# ] ' e.n.q.2._ A x.m.m.m.A.W.xXKXKXJX[.> c l b l b l l b l b l m l b ",
"m M m M m m m m m m m m n 3 9.nXHXHXhXZ.m.m.m.m.g.1 1 e.m.m.m.e.< 2 x.m.n.m.m.A.hXJXJXcX9.: n l l b l l m l b l l b b l ",
"M M m M m m M M m m m m m M 3 1.nXnXH.b.b.n.b.b.b.v.v.v.b.n.b.v.v.v.b.b.n.b.n.b.H.nXnX1.: b b b m l m l b b b b b b b b ",
"M m m M M m m m m M m m m m v C Y Y R 1 2 2 2 1 1 1 1 2 2 2 1 2 1 1 1 Q 1 1 2 1 R Y Y C c b b b l m b b b b b b b b m l ",
"M M M M m M M m M m M m m m M v N N N N N N N N N N N N N N N N N N N N N N N N N N N v m b m m b b m b b b b b b b m b ",
"M M M M M M M M M m M M M m m m M M m m x M m M m m m m m m m m m l m m m m m m l m m m b b m m m b m m b m b m m m b m "
};
