/* XPM */
static char *result[] = {
/* columns rows colors chars-per-pixel */
"60 60 118 2 ",
"   c #2C6828",
".  c #7D4E1D",
"X  c #7D511D",
"o  c #7E4F20",
"O  c #7E5120",
"+  c #705D2A",
"@  c #567C38",
"#  c #7F6D2C",
"$  c #7D732E",
"%  c #2B7543",
"&  c #834F17",
"*  c #814F1E",
"=  c #855017",
"-  c #83521E",
";  c #8A561E",
":  c #8B591E",
">  c #935B1E",
",  c #9C631E",
"<  c #824F20",
"1  c #845321",
"2  c #895622",
"3  c #865A23",
"4  c #8D5B24",
"5  c #865728",
"6  c #855A29",
"7  c #8D5C29",
"8  c #915E26",
"9  c #925F29",
"0  c #836625",
"q  c #8B6027",
"w  c #866A27",
"e  c #85652B",
"r  c #8C642B",
"t  c #856B2C",
"y  c #8C6A2D",
"u  c #946226",
"i  c #9A6525",
"p  c #926D25",
"a  c #9D6826",
"s  c #956329",
"d  c #99662A",
"f  c #946E2D",
"g  c #9D6A2B",
"h  c #877129",
"j  c #897A2C",
"k  c #8F6130",
"l  c #8C6C30",
"z  c #8D6F38",
"x  c #9E6B32",
"c  c #8A7431",
"v  c #807B32",
"b  c #8C7833",
"n  c #A26725",
"m  c #A36A26",
"M  c #AB6E26",
"N  c #A26D2C",
"B  c #AA6E2A",
"V  c #AA7027",
"C  c #A2702E",
"Z  c #AD732C",
"A  c #B1762E",
"S  c #B4792F",
"D  c #B97A2F",
"F  c #A16E31",
"G  c #A47032",
"H  c #AF7631",
"J  c #AF7835",
"K  c #B27731",
"L  c #B57B33",
"P  c #B97C34",
"I  c #B47D39",
"U  c #B97D39",
"Y  c #61853F",
"T  c #6E8F39",
"R  c #77B541",
"E  c #89852D",
"W  c #848532",
"Q  c #848538",
"!  c #878C3B",
"~  c #839235",
"^  c #8B9133",
"/  c #859A37",
"(  c #8B9934",
")  c #88963C",
"_  c #859C3C",
"`  c #8A9D38",
"'  c #9F943D",
"]  c #969F3A",
"[  c #AE813D",
"{  c #BE823A",
"}  c #89A136",
"|  c #85A43A",
" . c #89A538",
".. c #8BAB3C",
"X. c #91AF3F",
"o. c #8AB13F",
"O. c #8CBA3E",
"+. c #C2853D",
"@. c #8EC03F",
"#. c #DED436",
"$. c #84AB41",
"%. c #88AE42",
"&. c #8DB444",
"*. c #86BB43",
"=. c #8EBC42",
"-. c #82B449",
";. c #8EB348",
":. c #90B546",
">. c #91BD44",
",. c #93BD48",
"<. c #A0BD53",
"1. c #A0BC6A",
"2. c #8EC744",
"3. c #8AC44A",
"4. c #91C644",
"5. c #91C845",
"6. c #ACBA82",
"7. c #F0FECF",
/* pixels */
"4.0 J A A S A S A A A Z H B n M n m m m n n m N m B B Z B Z Z Z K A L K S I S S S K K P S S S L S S S S L L L L L S S L ",
"2.- Z Z Z Z Z A A A Z K L L U P P P U U U U P P P U P S L L L L K A Z M m M Z V B V V V Z M B B B Z Z B M M M B V Z M B ",
"@.. ; i i a a a a i i i d d N N F N ' N N N N C N F N B m m N n m a , , i , t , , , , , i , i i i , , , , , 8 , , , , , ",
"O.- 1 4 9 d N d i 9 i 8 8 4 4 2 2 2 >.2 ; 1 - 4 8 8 8 8 u d d d m d u ; ; = 5.1 7 9 4 u g g u u i 8 8 8 9 8 8 9 6 - *.X ",
"*.* ; 8 u g N d i 9 d 8 8 7 2 2 < 2 >.2 - 2 2 4 8 8 8 u s g d m N d s 2 2 - 4.2 4 8 u u x f s u u 8 > 8 9 8 4 8 4 = ;.X ",
"  1 - 8 u d N g d 9 s 7 4 7 2 2 < < % 2 - 1 2 4 8 8 8 9 u d d g d i u 2 2 2 4.4 u u s u F d s u s 8 8 8 9 8 4 8 2 1 ;.X ",
"T - 3 9 s d x g i 8 d 4 4 4 2 2 < < ,.2 1 4 3 u 8 9 8 9 s d d N N d i 1 2 * 4.7 7 s x u d i s u u 9 8 8 8 4 7 8 ; 1 =.O ",
"} - 3 s s g N g d 8 u 4 4 4 2 1 1 * $.7 3 4 4 u 9 9 8 9 s d d N d i i 2 2 1 4.7 s g x u g d s u u 9 8 8 8 8 : 4 3 < &.O ",
"( 1 3 i a g N x g 8 d 4 8 4 < 1 . . >.7 4 4 4 u 9 9 8 u s g d N g u s 2 1 - 2.4 x g C , a u s u u 9 u 9 8 7 ; 4 ; - &.X ",
"^ 1 4 d g g C g s 8 s 8 4 4 2 < . < >.q 4 8 4 9 8 8 4 u u d g F N u d ; ; - 2.u f g g u a a s u u 7 8 9 8 4 4 4 ; - =.- ",
"E ; 4 a g g C g d 8 s 8 4 4 2 1 . * ,.u 4 u 8 u 8 9 8 s s d g F g u i ; 1 * 4.s g g a i u u s u 9 9 8 8 8 4 ; 7 2 < ;.3 ",
"j 3 4 g g x N F d u s 4 8 7 1 * < . ,.s 7 u 7 u 8 8 > u 9 g g N g s s 2 - - 4.4 g g C u i i s u u s 9 u 8 8 3 4 ; - &.6 ",
"h 3 8 g g g N x i u s 8 7 7 - 2 - 1 ,.8 8 9 8 i 8 8 8 u 9 d d N g u s 3 1 * 2.u d C C u u i d u 9 u 8 u 7 7 2 7 ; . &.3 ",
"w 4 u g g g C x s u s 9 8 4 1 2 1 < =.u 9 9 8 9 9 8 4 u 9 a a G g u u 1 1 - 4.4 d g g , i d s u 9 u 8 s 8 7 2 4 - < &.e ",
"w 3 u m g g N g u u u u 8 8 1 2 1 < >.s 8 i 4 s 8 8 7 u u s g N d u s 1 1 . 7.8 a C f a u i u s 8 9 8 s 4 7 ; 2 - < &.q ",
"y 4 u m g g F g u u u 7 8 8 2 2 1 1 =.u 9 9 4 s 8 8 2 d s u g N d u u 4 1 . -.3 f g g a u g s s 7 8 9 i 4 4 ; 2 - < &.r ",
"e 4 u m g g N d i 8 i 9 9 9 2 2 1 1 =.u i 9 4 i 4 8 7 i 9 u d m u s u 3 1 . 4.3 g g m g u a u u 8 8 9 u : 8 ; 7 1 O &.r ",
"t 9 u N g g N d u u 9 8 9 9 4 4 ; 1 >.9 9 u 8 9 8 4 4 d 8 d d F d u u 2 1 . 4.4 a g g g u d u u 4 8 9 d 4 4 1 1 O o &.r ",
"t 8 u g g g F x g u 8 8 9 9 2 7 3 1 =.9 9 9 4 u : 8 8 9 u s u N i u 8 4 * o 4.; g m g g u i s s 8 8 8 s 4 7 2 5 1 5 &.r ",
"e 8 u m a d F x s u 8 8 9 d 2 4 4 1 =.8 d 4 4 u 4 8 4 d 8 s 8 g d u u 3 1 . 5.4 g g g g i d u s 4 4 8 u 4 7 2 2 3 1 &.q ",
"t u u g a d N d s u 7 u 8 s 2 4 3 ; =.u u 3 4 u 4 8 9 s u g s x s s 8 2 - o 4.1 d g C g s d 8 s ; 7 8 s 2 7 2 5 - * &.y ",
"e 8 s g g d N d s u 7 s 8 s 4 7 7 1 =.8 s u 8 > 8 7 8 s 8 d i N i u 8 4 1 & 5.8 a g m g u u u u > 8 8 s 4 4 4 3 - < ;.q ",
"+ u u m a d N d u 4 4 8 7 i ; 7 4 ; =.q s 8 : 8 4 8 u 9 u g u g s d 8 4 1 . 4.6 p a g g u u q u : 4 ; u ; 8 ; ; - & =.y ",
"t u g C B M B C Z Z H K H H L L L K [ I I I I I I L L L L S I I L L L L I I S D L L L L { L P L L L L L S P S L L L I D ",
"c d [ +.+.+.+.+.+.{ { { { U U L S L L L L L L L L L U S L L L L L L L L L L D D P P L L S L L K L L L L L S P S D D S L ",
"c s m K Z N V m m a g m m N a a a a ] a m g n a a a d d a n m N a n a a i > X.8 a a m N i a i g , 8 u d 8 u u u 8 4 Y d ",
"c d d g g d g g s u 4 8 7 s 7 7 9 2 =.8 s 8 4 4 4 4 u u u s d g u g s 9 ; * 4.4 g a x G u s u s 4 4 4 u 3 4 4 8 7 * <.l ",
"c d i g a u g s u u 4 8 9 s 4 4 4 2 =.u u 9 8 8 8 8 u 8 u s g N u g d 8 4 2 R 8 d u g N i u u s 3 8 4 s 4 4 8 8 4 2 :.l ",
"b g g g g p g d u 8 8 8 9 s 4 8 8 4 O.8 i 8 s 7 4 8 9 9 9 s d g 9 g a s 4 2 3.7 g d g N i u 8 d 4 4 8 u 7 8 8 8 8 ; %.f ",
"# d u m a a g d i 8 4 8 8 s ; 4 8 4 O.8 d 8 9 7 8 4 9 9 8 s d N u N d d 9 2 3.4 p d N F u 8 8 s : 4 7 9 7 8 8 u 8 4 %.l ",
"c s u C g d F d u 9 4 9 8 9 4 8 8 4 X.8 i q u 4 8 4 7 u u s g g u g N d 9 2 5.7 g d g F u u 9 s 4 4 8 9 7 8 8 u 9 4 ..l ",
"b s s m a d F d 9 8 4 9 7 d 4 8 4 4 &.u g s k 8 4 8 s u 4 s d g i N d d 9 7 5.3 d d g C 8 u 8 u 4 8 8 8 4 8 s u d 7 %.l ",
"c d d N a d g g u r 4 8 8 s 4 8 8 4 o.9 g s 7 8 8 8 9 8 u s s g u C g g s 7 4.4 d u d g s s q d 8 4 8 u 4 8 s s d 8 @ 6 ",
"c s u N g g C d s 9 4 8 4 s 4 8 8 4 ;.s F 4 9 7 4 4 8 8 u s x g i g m g d q 4.7 d u g C s u u s q 4 4 u 4 8 u d d 9 @ e ",
"c s d m g d x g u 8 7 8 8 9 4 8 8 2 &.s s 9 9 9 4 8 8 9 u s g N i g N g s 4 =.3 u u g F u u u u 4 4 8 s 4 8 u d d 8 _ l ",
"l d u N g g g d s u 4 8 4 8 2 8 7 4 &.s d 9 9 8 7 8 8 8 u s s g i N N F d 4 >.2 u g g G u u u s 4 4 4 8 2 8 u d d 9 _ r ",
"t d i g g g g d u 9 8 7 7 8 4 8 8 7 ..4 d 9 9 8 8 4 4 u u s d g u N N g s 9 O.3 g i g G s 9 8 u 4 8 q 9 : 8 8 d s 8 ) l ",
"6 d u C g g g g u 9 4 9 8 8 4 9 ; 2 ..9 9 9 7 8 4 4 4 u u s g g i N N g s 7 1.; u g g N u d u u 4 4 u 8 4 8 8 i s 4 ! y ",
"3 d u m g g g s u u 8 9 8 8 4 4 8 4 ..9 9 9 4 8 8 8 4 8 u s s g i N N x s 7 #.: d i N F i s u u 3 8 7 8 4 8 8 i s 4 Q r ",
"3 s u C g g G s u 9 8 8 8 4 4 4 2 4 ..8 d 9 7 8 9 4 8 u s u s g d g g g s 7 6.2 s d F g d d 8 u 4 8 8 8 ; 8 8 d u 4 W q ",
"3 d u g g F F s i s 8 9 4 8 4 4 2 2  .4 s 9 4 8 9 4 8 u u u d g i N g g 9 7 %.4 i g N N d s 8 u 4 4 8 9 4 8 8 i 8 4 v r ",
"3 u u g g N F d s 9 8 u 8 4 2 2 2 ; ..8 9 8 7 9 u ; 8 9 s s s m s d g s 9 3 | ; u g x N g d 4 u 4 8 4 4 2 8 8 9 4 3 $ 6 ",
"3 9 u V g N N g u s u 4 4 4 7 2 3 4  .u u 4 4 8 8 4 4 s 9 u d g g a g s 8 2 | 3 p g N g d d u u 4 8 8 4 ; 8 8 8 4 ; # q ",
"3 u u C g g g d d u 8 4 8 4 7 7 3 1 ` q 7 9 4 9 8 4 7 u s 8 d g i p g s 9 5 } 1 d g g g i d 4 u 4 4 8 8 2 8 8 8 ; 1 z e ",
": 8 u m g C C g s s s 4 7 4 2 4 1 1 ` 4 7 8 4 8 8 4 4 u u u d G d g i u 7 2 / 5 g g N g u s u u 4 8 8 4 4 8 8 8 4 - p 4 ",
"4 8 u C g G g p s 8 s 7 7 4 2 2 1 ; ` u 4 8 4 8 4 ; : s q s d G d a s u 6 1 ~ 4 s g g g d a u q ; 8 4 8 ; 4 4 8 ; 1 6 7 ",
"4 8 u C g m C d u 8 8 4 4 4 4 2 1 2 ` 8 9 8 3 8 4 4 4 u u u g N a a d u 4 1 W : s g m g i i 8 8 4 8 8 9 : 8 8 8 ; = - 8 ",
"4 8 a m g n g n a a n d a a g d n N C m N N N m m m V m C m n m m V m m m V m m m V M m N m M m m M m m m m m m n m m n ",
"8 s n n n S P P P { P P { P P D P S P L L L P L P L U U D L S D P L P P S P S S { S P D P K L P S P L I L S S P { S S S ",
"9 C L { { P { I { P P P L S S Z Z Z H Z Z Z A A Z Z Z Z K B A A Z Z Z Z Z Z Z Z Z Z Z Z Z Z Z Z Z Z Z Z A Z Z Z Z Z Z Z ",
"9 u L I Z m m m n n m n a m n a a m n a m n n n m n n i n n n m m m m m a g g n a n m n a m g m m m m n a g n a a a a a ",
"u 4 i m n C g a i > u 8 : 4 4 ; : 3 s u : : ; 8 : 4 4 u 4 8 u g u u u q 1 - 3 4 a g g g u d u q 3 4 7 7 2 4 4 3 1 - - 4 ",
"u u s m g g C g d 8 8 4 4 4 7 2 5 2 7 8 4 4 2 4 7 7 2 8 4 8 9 g s u u 4 4 X O 1 d a g u s s 8 8 2 4 2 7 2 3 4 4 1 1 - 4 ",
"u 8 s g g C N d u 8 8 4 ; 7 7 2 2 2 k 8 3 3 - 3 2 4 ; 7 4 > 8 d s u 4 4 5 . . 3 s u d u s d 4 7 2 7 2 4 2 2 ; 2 1 . - 4 ",
"8 8 i N g g g g u 4 8 2 4 7 9 2 2 2 6 7 4 1 - 4 2 2 - 2 4 4 4 d 8 4 8 4 1 . . 1 s s s u 8 7 2 2 2 2 2 2 2 2 2 2 - - - 4 ",
"9 8 u g g g g s 8 2 7 2 ; 4 5 1 2 1 5 3 - 1 X 1 1 1 - ; 5 4 8 8 4 u 7 4 1 X X ; 4 9 s s 7 7 2 1 1 2 1 2 2 1 - 5 5 X - 4 ",
"8 8 8 n i d d 9 8 ; 4 1 1 2 2 1 1 1 1 1 - 1 X 1 < 1 1 - 1 2 7 8 4 4 4 3 1 O . - 3 s s 7 2 2 1 1 1 1 * 1 1 1 - 1 1 . X 4 ",
"9 8 u i 9 d i 9 8 - 2 2 1 1 5 * 1 . 5 1 X o . < o o < - 1 2 4 4 ; 4 4 2 1 O . - 4 1 9 6 1 1 1 1 1 1 * 1 1 1 1 1 1 . 1 u ",
"8 4 4 i 9 9 9 8 2 ; < * * - * . . . o 1 X o . . X . . * - 1 2 4 2 4 2 1 o o . 7 4 - 5 2 - - O 1 1 1 . 1 1 O O - 1 . 1 3 ",
"9 4 8 9 8 4 9 7 ; - * * . o o . . o o O . . . . . . . X . 1 4 2 1 2 4 1 1 o O 5 1 - 1 - - - . X . * * - X . X 1 < * 1 8 "
};
