/* XPM */
static char *wall[] = {
/* columns rows colors chars-per-pixel */
"60 60 208 2",
"   c #474F85",
".  c #47548C",
"X  c #48528B",
"o  c #4A5B8D",
"O  c #465B93",
"+  c #475E9B",
"@  c #495594",
"#  c #495D95",
"$  c #495D9C",
"%  c #4C5DA5",
"&  c #466097",
"*  c #46659C",
"=  c #4A6296",
"-  c #49629E",
";  c #4C689D",
":  c #516B9C",
">  c #586D9B",
",  c #4565A0",
"<  c #456EAC",
"1  c #4963A3",
"2  c #4B63AC",
"3  c #4A6AA4",
"4  c #496DAC",
"5  c #4D65B5",
"6  c #4D66B8",
"7  c #4C6AB3",
"8  c #4D6DBC",
"9  c #4571AD",
"0  c #4E70A5",
"q  c #4A72AD",
"w  c #4F78AD",
"e  c #4375B5",
"r  c #4277B9",
"t  c #4479BB",
"y  c #4A74B3",
"u  c #4D73BD",
"i  c #4A78B5",
"p  c #4D7CBC",
"a  c #5568A1",
"s  c #5672A3",
"d  c #5275A9",
"f  c #5679AB",
"g  c #5A75A4",
"h  c #5A7BAB",
"j  c #5075BE",
"k  c #567EB2",
"l  c #5378BE",
"z  c #5C7FB2",
"x  c #607CAC",
"c  c #4D6FC0",
"v  c #457EC2",
"b  c #4C74C2",
"n  c #4C7AC5",
"m  c #4C7DCA",
"M  c #5075C0",
"N  c #5278C1",
"B  c #3F82CD",
"V  c #3F89D5",
"C  c #3F8CDA",
"Z  c #3F97EB",
"A  c #3F99EE",
"S  c #3E9CF4",
"D  c #5284BD",
"F  c #5F82B1",
"G  c #5C86BC",
"H  c #6281AE",
"J  c #6185B3",
"K  c #648CBA",
"L  c #4582C7",
"P  c #4383C9",
"I  c #4B83C5",
"U  c #4C82CD",
"Y  c #4C89CD",
"T  c #4484D2",
"R  c #458AD4",
"E  c #458DDC",
"W  c #4C85D2",
"Q  c #4D8AD5",
"!  c #4C8DDA",
"~  c #4E92DD",
"^  c #5484C6",
"/  c #5283CC",
"(  c #558DCB",
")  c #5B87CA",
"_  c #588FCF",
"`  c #508AD4",
"'  c #508EDA",
"]  c #5392D5",
"[  c #5195DE",
"{  c #5198DF",
"}  c #5D94D3",
"|  c #5995DB",
" . c #5A9BDD",
".. c #4493E3",
"X. c #4297EA",
"o. c #449AED",
"O. c #4C95E3",
"+. c #4A97E9",
"@. c #4E9AE5",
"#. c #4C9DEB",
"$. c #419EF6",
"%. c #419FF8",
"&. c #499FF0",
"*. c #5096E1",
"=. c #519CE4",
"-. c #529FE9",
";. c #599EE2",
":. c #5CA1DF",
">. c #4DA1ED",
",. c #42A0F6",
"<. c #44A4FB",
"1. c #47A8FE",
"2. c #4CA4F4",
"3. c #49A7FC",
"4. c #4DA8F5",
"5. c #4CACFD",
"6. c #4FB0FD",
"7. c #55A2E7",
"8. c #52A3EC",
"9. c #5BA5E6",
"0. c #5BA6E9",
"q. c #5FA9E6",
"w. c #5DA9EB",
"e. c #54A6F2",
"r. c #53ABF5",
"t. c #51AFFC",
"y. c #5AACF3",
"u. c #59AEFA",
"i. c #54B2FD",
"p. c #5DB1F6",
"a. c #5AB4FC",
"s. c #648CCC",
"d. c #6599CE",
"f. c #6C95C2",
"g. c #6B9BCB",
"h. c #6497D6",
"j. c #689ED3",
"k. c #6C9FDB",
"l. c #7198C3",
"z. c #66A6DE",
"x. c #6BA2DC",
"c. c #76A0CC",
"v. c #70A5D5",
"b. c #73A5DE",
"n. c #78A6D4",
"m. c #60A5E3",
"M. c #65ACE6",
"N. c #64ADEA",
"B. c #6CADE4",
"V. c #68ADEA",
"C. c #62AEF0",
"Z. c #67B1EC",
"A. c #6BB3ED",
"S. c #6FB8EF",
"D. c #65B5F7",
"F. c #62B5F9",
"G. c #66B9FB",
"H. c #6BB6F1",
"J. c #6CBAF5",
"K. c #6CBBF9",
"L. c #70ADE3",
"P. c #70B1E5",
"I. c #70B3E8",
"U. c #72BAEE",
"Y. c #7EB5E8",
"T. c #7CBBE7",
"R. c #79BCEC",
"E. c #74BDF2",
"W. c #71BDF8",
"Q. c #7ABCF1",
"!. c #7BC1EF",
"~. c #75C0F5",
"^. c #76C1F8",
"/. c #7CC3F4",
"(. c #7BC3F8",
"). c #82B6DF",
"_. c #81BFEC",
"`. c #87C3EC",
"'. c #8AC4EE",
"]. c #81C5F4",
"[. c #80C6F8",
"{. c #84C9F6",
"}. c #85CBF9",
"|. c #8AC7F1",
" X c #8ACBF5",
".X c #89CEF9",
"XX c #8DD1F7",
"oX c #8ED3FD",
"OX c #92CFF1",
"+X c #96D6F7",
"@X c #91D5FC",
"#X c #96D8F9",
"$X c #9AD7F5",
"%X c #9EDAF7",
"&X c #9BDBF9",
"*X c #A3DFF6",
"=X c #A0DDF8",
"-X c #A3E0F7",
";X c #A4E1F9",
":X c #A9E3F7",
">X c #AAE5F8",
",X c #ADE9F7",
"<X c #AEE9F8",
"1X c #B0EAF8",
"2X c #BDF3F9",
"3X c #C3F6FA",
"4X c #C6F8FB",
"5X c #CAFAFC",
/* pixels */
",.,.%.%.%.%.S %.S %.S %.S %.S S S < & * * * 3 * * * r S S S S S S S S S S S S S A S S A S S Z S S S Z S S S S Z S S S S ",
"%.%.%.%.%.%.%.$.%.S S %.%.S Z e < e e f.l.l.l.l.G i 9 9 t A S S A S S A A S S S S S S A S Z S S S Z S S S S S S S S S S ",
"<.%.%.%.%.$.$.%.S ,.S ,.%.Z e w K P.S.}.@X@XoXoX}.S.B.K 9 r A S S S S A S A S S S S S S S S S S S S Z S S S S S S S S S ",
"%.,.<.%.%.%.%.$.,.S ,.S Z t K I.oXoX@XoXoXoXoXoX&X;XoX.XB.G D A S S S S S S S A S S S S S Z S S S S S S S S S Z S S S S ",
"%.%.%.%.,.%.%.%.%.%.%.Z t F  XoXoXoXoXoXoXoXoXoX&X;XoXoXoX].w D Z S S S S A S S S S S S S S S S S S S S S S S S S S S S ",
"%.%.<.<.,.<.%.%.,.,.%.V & B.oXoXoXoXoXoXoXoXoX&X&XoXXX#X&XXX:.& C S S S S S S S S S S S S S S S S S Z S Z S S S S S S S ",
"<.%.,.<.<.,.%.%.%.%.A t F }.-X%X&XoXXXoXoXoXoX;X>X#X&X&X,X#X].d B Z S S S S S S S S S S S S S S S S S S S S S S S S S S ",
"<.,.%.<.,.,.,.%.,.,.B ; B.-X5X5X4X&XoXoXoXoXoX@XoX&X,XXX+X&X+Xz.& V S S S S S S S S S S S Z S S S S S S S S S S S S S S ",
",.%.,.<.%.<.%.%.,.<.B > $X4X5X5X5X&XoXoXoXoXoXoXoXoX@XoX&X2X2X+Xh L A S S S S S S S S S S S S S S S S S S S S S S S S S ",
"<.<.<.%.%.<.<.%.<.S v H &X5X5X5X2X&XoXoXoXoXoXoXoXoXoXoX&X2X2X#X`.s B %.S S S S S S S S S S S S S S S S S S S S S S S S ",
"<.,.%.%.%.,.<.%.,.B 3 :.&X5X5X4X&X@XoXoXoXoXoXoXoXoX@XoXoX#X#XoX X> B %.A Z Z A S S S S S S S S S S S S S S S S S S S S ",
"<.<.%.<.<.,.%.<.,.t H {.=X5X5X3X#XoXoXoX@XoX@XoXoXoXoXoXoX@XXXXXz.; B A v & = D S S S S S S S S S S S S S S S S S S S S ",
"<.<.,.<.<.%.%.%.<.D : A.=X4X3X=X@XoXoXoXoXoXoXoX@XoXoXoX#X1X#XXXq.R 9 * D j.T.K r S S S S S S S S S S S S S S S S S S S ",
"<.<.<.<.<.,.%.<.%.B * M.XX:X2X#XoXoXoXoXoXoXoXoXoXoXoXoX@X&XoXoX/.0.Y g.T.}.#Xc.* S S ,.S S S S S S S S S S S S S S S S ",
"<.<.<.%.<.,.<.%.,.Z t G XX@X=X@XoXoXoXoXoXoXoXoXoXoXoXoXoXoXoXoXoX/./.}.XXXX!.D * S S S %.S S %.S S S S S S S S S S S S ",
"<.<.<.<.<.<.<.%.,.<.B g oXoX@X,X<X#XoXoXoXoX@XoXoXoXoXoXoXoXoXoXoXoX~.Z.Z.d.H & * S S S S S S S S S S S S S S S S S S S ",
"<.<.<.<.<.<.<.,.%.<.P ; U.XX$X4X5X&XoXoX@XoXoXoXoXoXoXoX@X@X@XoXoXoX~.9.v - @ @ 1 L S S S S %.S S S S S S S ,.<.%.S S S ",
"<.<.1.<.<.<.<.<.,.<...e D U.@X,X,X@XoXoXoXoXoXoXoXoXoXoX.XJ.S.oXoXoXoX].f @ 8 W u % L S S S S S S S ,.<.S S S S S S %.%.",
"<.1.<.<.<.<.<.<.<.<.<.V & ;.~.XX;X@XoXoXoXoXoXoXoXoX@XoX.XZ.7.S..XoXoX].h # Q @.! 4 & o.S S S %.S <.S S S <.S S S <.%.S ",
"<.<.<.<.<.<.<.<.<.%.<.C 9 I 7. X,X#XoXoX@X/.{.oXoXoXoXoXoX{.^ p g.T.~.} 4 v 7.N.w.Y & A <.S S S S S S <.S S S S ,.S S %.",
"<.<.<.<.<.<.<.<.<.%.,.<.R & M.oXXXoXoXoX@XZ.N.}.@XoXoXoXoX`.o   X y I 1 p @.I.oX(.Y & A ,.S ,.S S S ,.S S S <.,.%.S <.S ",
"<.1.<.1.1.<.<.<.<.<.<.$.Y H |./.oXoXoXoXoXA.! d.`.oXoXXX/.n.= 7 8 $ X % n O.N.!.v.l < A ,.S S S <.S <.S S ,.S <.%.,.S <.",
"1.<.<.<.<.<.<.<.<.<.$.Y J |.{.q./.oXoXoXoXB.4   h `.{.~.] # 7 [ O.n 5 5 6 m ~ p # 3 Q $.S S S ,.S ,.S S S ,.S <.<.S <.,.",
"<.<.1.<.<.<.1.<.<.,.B F  XoX/.] ] /.oXoX.XJ @ 5 1 3 ] ] I & ` 7.-.O.n 6 6 n i 9 ] R b o.,.,.%.%.S <.S <.<.S <.S ,.<.S <.",
"1.1.<.1.<.<.1.<.1.Y 3 9. X/._ O O ( /..XZ.3 $ m U 2 O X & Q =./.{.9.Q u 2 $ q ~ o.Q b ~ ,.%.S ,.S <.<.S <.<.S <.%.,.<.<.",
"1.<.1.<.<.<.<.<.1.P 3 O.7.] # % % O ( ;.{ 3 7 O.O.! m 2 7 [ -.{.|.f o .   4 ~ $.$.o.E m A %.%.,.,.<.S <.<.S S <.%.%.%.%.",
"1.1.1.1.1.<.<.1.1.o.P y [ Y . 2 6 2 # O O $ m @.=.-.@.` 6 b [ ;.s D Y Q 8 m $.,.,.2.O.Q n o.,.,.S <.S S <.S <.<.<.%.<.%.",
"1.1.1.<.1.1.<.<.<.<.$.P & # 2 Q ! Q 2 % % n O.N./.S.@.! 6 5 8 8 . R @.=.m W ,.,.%.o.@.~ u o.<.,.<.S <.<.,.<.<.S %.<.%.<.",
"1.1.1.1.<.<.1.<.<.<.<.R   2 Q -.E.~.| 8 5 W @.A.oX~.@.! 6 2 @ X % ..&.&.m W @.+.,.,.,.O.D I.~.4.S <.<.S <.<.S <.%.<.%.%.",
"1.1.1.1.1.1.<.1.1.<.<.R X 8 O.-..XoXq.1 . 5 Q 7.Z.q.Q - @ @ i p U U X.,.o.W W +.<.%.,.o.D !..X4.<.S <.<.<.,.S <.<.%.<.<.",
"1.1.1.1.1.1.1.1.<.<.1.o.t $ m =.M.K 0 y i 1 - 3 3 3 4 y q 2 ~ @.@.W W m X.+.W m E %.$.@.Y w.a.<.S <.S <.S <.<.<.<.<.,.<.",
"1.1.1.1.1.1.1.<.1.1.1.1.o.y # 4 9 q J [ @.y 1 q 1 a g.V.[ 8 O.@.$.@.W m T X.o.m m T U m Y Z ,.<.<.<.<.<.<.<.<.<.<.<.<.<.",
"1.1.1.1.1.1.1.1.1.1.<.1.1.&.r 1 $ x..Xi.#.m W @.W s.oX/.O.8 +.#.$.#.-.$.*.;.&.&.! m m m m W W +.#.&.<.<.<.<.<.<.<.<.<.<.",
"5.5.1.5.1.1.1.1.1.1.1.<.<.1.1.*.8 V.K.8.#.m T 2.! h..XA.O.b &.<.<.%.<.<.K._.9.@.#.#.1.y.*.W m m [ #.<.<.<.<.<.<.<.1.<.<.",
"5.1.5.1.1.1.1.1.1.1.<.1.1.<.1.e.8 &.<.=.' m O.<.#.9.H.~ ` m $.<.<.%.<.<.F.W.N.#.<.<.r.[.N.>.<.R U &.<.<.1.<.<.<.1.<.1.<.",
"5.5.1.5.5.1.5.1.1.1.1.1.1.1.t._.s.O.<.#.n Q 2.<.>.7.#.! b e.u.<.3.<.<.<.<.3.w.;.2.<.3.E.E.;.r.u.Q ! %.<.<.<.<.1.<.<.<.<.",
"5.1.5.5.1.5.5.1.1.1.1.1.1.1.5.Q.Q.m &.&.m W #.1.,.#.O.! ^ R.{.r.<.<.<.3.%.K.@XQ.@.<.<.1.,.@.U.}.y.m ! <.<.<.<.<.<.<.<.1.",
"5.5.5.1.1.5.1.5.3.1.1.5.1.1.3.3.4.@.+.m Q @.#.<.>.@.Q b [ 7.~.2.<.<.<.<.%.F.[.S.@.<.<.<.1.2.7.E.m.n ! <.<.1.<.1.<.1.<.<.",
"5.5.5.5.5.5.5.1.5.3.3.3.3.1.1.1.1.&.m Q #.1.2.<.&.=.Q b #.#.=.@.>.3.3.<.<.3.3.>.@.<.<.1.<.<.2.=.=.n ! 1.1.<.<.<.1.1.<.1.",
"5.5.5.5.5.1.1.5.5.5.5.1.5.3.1.1.2.m ' *.>.3.1.1.<.3.O.b @.@.2.2.=.E.].C.%.3.%.>.@.<.<.<.1.<.<.2.&.m U -.<.1.1.<.1.1.1.1.",
"5.5.5.5.5.5.5.5.5.1.5.1.5.5.3.2.m O.3.@.H.(.F.1.<.1.+.b *.=.3.<.2.7./.F.<.<.1.&.@.1.1.,.1.<.,.#.O.n k.A.-.1.1.1.1.<.1.1.",
"5.5.5.5.5.5.5.5.5.5.1.5.1.3.@.~ 8 &.5.2.9./.D.5.3.1.1.O.m &.&.#.=.&.-.>.1.1.<.&.9.J.<.1.1.1.3.@.m ! J. XV.#.1.1.1.1.1.1.",
"6.5.5.6.5.5.5.5.5.5.5.1.1.2.~ n O.3.1.1.3.7.-.&.3.3.1.&.` n m [ *.2.@.&.1.1.2.0././.1.1.1.1.1.&.b Q e.i.8.-.1.1.1.3.1.1.",
"6.6.5.5.6.5.5.5.5.5.5.5.5.5.@.u O.#.4.1.5.2.N.V.e.3.1.&.*.W ! n b m b n n ..#.8.a.a.1.1.1.1.1.W U [ 8.1.-.0.D.1.3.3.1.5.",
"5.5.6.5.6.5.5.5.5.5.5.5.5.5.2.u [ *.4.5.5.1.K.{.M.&.5.3.>.>.3.O.O./ Q Q W U m N Q #.#.4.1.1.2.b ! 2.4.&.w.[.Q.3.3.5.3.3.",
"6.6.6.5.5.5.6.5.5.5.5.5.5.5.1.~ U @.5.5.5.5.u.G.y.@.5.3.1.1.5.1.#.Z.e.#.@.! U ! W U @.1.1.1.#.b @.5.5.#.0.K.a.5.5.3.5.5.",
"6.6.6.5.5.6.5.5.6.5.5.6.5.5.5.4.u #.5.5.1.5.5.1.&.-.K.F.5.1.5.>.Z. Xa.>.w.0.#.5.&.W Q 1.5.5.@.U Q &.5.@.-.1.1.3.5.3.5.3.",
"6.6.6.6.6.6.6.6.6.6.5.6.5.5.5.>.Y E 4.4.>.4.5.5.e.N. XA.e.5.4.=.H.W.t.5.W.].w.&.5.+.b @.&.4.#.-.! &.2.0.y.5.5.5.5.5.5.5.",
"6.6.6.6.6.6.6.6.6.6.6.6.6.6.5...@.P R ] ~ >.6.>.Q } k.' *.5.5.=.4.5.5.1.p.~.Z.7.F.;.b [ @.&.5.5.5.2.q.~.E.5.5.5.5.5.5.5.",
"i.6.i.6.i.6.6.6.6.6.6.6.6.6.6.,.8.4.R L Y ~ @.R b n n m ! 4.5.*.4.5.5.5.5.5.>.q.]._.M @.-.5.4.4.5.>.H.(.F.5.5.5.5.5.5.5.",
"i.i.i.i.i.6.i.6.6.6.6.6.6.6.6.6.6.6.6.4.~ u p Q @.=.5.>.U #.t.0.>.5.6.5.5.5.5.4.m.b.m e.e.2.7.4.5.5.5.5.5.5.5.5.5.5.5.5.",
"i.i.i.i.i.i.i.i.i.6.6.6.6.6.6.6.6.6.6.6.r.7.0.8.=.-.t.5.#.N e.(.M.e.4.5.5.5.5.4.O.M ;.9.=.=.4.5.5.5.5.5.5.5.5.5.5.5.5.5.",
"i.a.i.i.i.t.i.i.i.i.6.6.6.6.6.6.6.6.6.5.=.U..XJ.5.t.5.5.@.b e././.q.{ e.5.5.>.{ W )  X[.t.5.5.5.5.5.5.5.5.5.5.5.t.5.5.5.",
"i.i.i.i.i.i.i.t.i.i.i.i.i.i.i.6.6.6.6.6.#.U..XJ.5.5.e.*.' n 4.i.i.i.4.5.5.5.#.Q Y y.[./.t.5.t.5.t.5.t.5.5.t.5.t.5.5.i.5.",
"a.i.i.a.i.i.i.i.i.i.i.6.i.i.6.6.6.6.6.i.7.8.i.i.5.i.r.' n #.5.5.5.5.6.5.-.*.Y Q 4.t.u.i.t.t.5.6.5.t.i.5.5.5.t.5.5.6.i.5.",
"a.a.i.i.a.a.i.i.i.i.i.i.i.i.i.i.t.t.i.J.N.8.5.i.t.t.t.-.M *.7.r.6.i.6.6.>.W U e.t.t.5.5.t.5.6.5.i.5.5.5.i.i.5.6.5.i.5.5.",
"i.i.a.i.a.i.i.i.a.i.i.i.i.a.i.i.i.6.i./.(.q.r.6.6.6.6.t.*.m { r.6.i.5.6.r.W W i.t.5.i.6.t.6.5.5.5.5.6.5.5.i.5.5.6.t.5.i.",
"a.i.i.a.i.i.i.a.a.i.i.i.i.i.i.i.i.i.i.a.~.a.6.i.i.6.i.6.t.@.e.i.i.5.6.i.i.' ^ -.8.6.6.t.t.t.i.i.i.i.i.i.i.5.i.i.i.t.6.6.",
"i.a.a.a.i.a.i.a.a.i.a.i.i.i.i.i.i.i.i.i.6.i.i.i.i.i.i.i.i.i.i.i.i.t.i.i.i.e.` U @.i.i.t.i.t.i.t.i.t.t.i.u.t.i.t.i.t.i.i.",
"a.a.a.a.a.a.a.a.a.a.i.a.a.i.a.i.a.i.i.a.a.i.i.i.i.i.i.a.i.i.i.i.i.i.i.t.i.i.8.U Y ` ` ` ' 7.-.r.i.i.t.i.i.i.t.t.t.i.t.i."
};
