/* XPM */
static char *wall[] = {
/* columns rows colors chars-per-pixel */
"60 60 210 2",
"   c #746C68",
".  c #7D6B60",
"X  c #7A736D",
"o  c #7F7770",
"O  c #9B4C38",
"+  c #96523D",
"@  c #B4433E",
"#  c #9B5A45",
"$  c #85654E",
"%  c #8D634A",
"&  c #896551",
"*  c #936E55",
"=  c #996752",
"-  c #99715F",
";  c #877264",
":  c #85786F",
">  c #8F7362",
",  c #827C76",
"<  c #887B73",
"1  c #937663",
"2  c #947C6E",
"3  c #9A7966",
"4  c #9C7E6C",
"5  c #BA5C52",
"6  c #A36351",
"7  c #B6685B",
"8  c #A67364",
"9  c #AE7E6F",
"0  c #BD726D",
"q  c #C64F4C",
"w  c #CE4B4C",
"e  c #C5504C",
"r  c #C35D5A",
"t  c #C85C5A",
"y  c #D24E50",
"u  c #D15051",
"i  c #C76460",
"p  c #CA6563",
"a  c #CC6C6B",
"s  c #C47975",
"d  c #D37374",
"f  c #D67678",
"g  c #D67A7B",
"h  c #D9797B",
"j  c #E4757B",
"k  c #DF7E82",
"l  c #EB7C84",
"z  c #8C867E",
"x  c #9D826E",
"c  c #92857B",
"v  c #93897D",
"b  c #9A8474",
"n  c #9C8979",
"m  c #A1826F",
"M  c #A18777",
"N  c #A48872",
"B  c #A98675",
"V  c #A88C7A",
"C  c #A9907F",
"Z  c #B38375",
"A  c #878787",
"S  c #8A8887",
"D  c #8F8C8A",
"F  c #918780",
"G  c #938A83",
"H  c #958F8A",
"J  c #9C8E84",
"K  c #96918D",
"L  c #9F9187",
"P  c #9A928C",
"I  c #959493",
"U  c #9A9795",
"Y  c #989798",
"T  c #9E9C9C",
"R  c #A28C83",
"E  c #A19487",
"W  c #A2948D",
"Q  c #A79B8F",
"!  c #AA9383",
"~  c #A99588",
"^  c #AB998C",
"/  c #A09790",
"(  c #A49B93",
")  c #A39E9A",
"_  c #AC9F93",
"`  c #B78982",
"'  c #B59184",
"]  c #B39E8E",
"[  c #B09F94",
"{  c #BC9F92",
"}  c #A5A19C",
"|  c #AAA194",
" . c #AAA39B",
".. c #B4A295",
"X. c #B5A69B",
"o. c #B4A99E",
"O. c #B9A495",
"+. c #BBA69A",
"@. c #BCAA9C",
"#. c #A9A7A0",
"$. c #ADAAA5",
"%. c #AFAEAD",
"&. c #B5ADA5",
"*. c #B9A7A0",
"=. c #BBADA3",
"-. c #B5B0A5",
";. c #B6B6AC",
":. c #BBB0A4",
">. c #BBB2AC",
",. c #BDBAAE",
"<. c #B4B6B3",
"1. c #B7B9B1",
"2. c #BDB6B1",
"3. c #BDBBB4",
"4. c #BBBBB8",
"5. c #BFC3BC",
"6. c #BEC6C1",
"7. c #BEC8C4",
"8. c #CF8D8B",
"9. c #C3918E",
"0. c #C29291",
"q. c #C79B97",
"w. c #C99A91",
"e. c #D58988",
"r. c #DA8284",
"t. c #C4A39B",
"y. c #C1AF9B",
"u. c #C5B39F",
"i. c #D2A59F",
"p. c #C3ADA2",
"a. c #C3B5A6",
"s. c #C4B5AB",
"d. c #C6B9AE",
"f. c #C8B9AE",
"g. c #C3B6B1",
"h. c #C2BBB3",
"j. c #C0BEBA",
"k. c #CABDB2",
"l. c #D7A5A3",
"z. c #D3B3AE",
"x. c #D2B5B0",
"c. c #D2BDB5",
"v. c #E9828A",
"b. c #E98D93",
"n. c #E49C9F",
"m. c #EE929A",
"M. c #F08992",
"N. c #F3939C",
"B. c #E59FA2",
"V. c #F696A1",
"C. c #F39AA3",
"Z. c #F896A1",
"A. c #FA9BA6",
"S. c #FB9DA8",
"D. c #E7A0A4",
"F. c #E8A1A5",
"G. c #FAA1AC",
"H. c #C4C0B6",
"J. c #C4C3BD",
"K. c #CEC0B0",
"L. c #CEC5BD",
"P. c #D3C4BC",
"I. c #C1C4C2",
"U. c #C3CAC4",
"Y. c #C5CBC9",
"T. c #CBC8C1",
"R. c #CECCCA",
"E. c #C7D1CC",
"W. c #C8D2CE",
"Q. c #C6D4D1",
"!. c #C8D5D3",
"~. c #CBD9D7",
"^. c #CCDCDA",
"/. c #D3C6C0",
"(. c #D2CAC3",
"). c #D2CFCC",
"_. c #DDCCC6",
"`. c #D6D1CC",
"'. c #D1DADF",
"]. c #DED9D5",
"[. c #DBDCDC",
"{. c #D1DEE2",
"}. c #CEE0DE",
"|. c #CFE2E1",
" X c #D1E5E4",
".X c #D7E4EA",
"XX c #D4EBEC",
"oX c #DAE6ED",
"OX c #DBE8EF",
"+X c #D6EFF0",
"@X c #DFEBF0",
"#X c #D7F1F2",
"$X c #D9F3F5",
"%X c #DAF5F8",
"&X c #E1DBD6",
"*X c #E2DDD8",
"=X c #E4E1DD",
"-X c #E4E3E2",
";X c #E2E6E8",
":X c #E8E4E0",
">X c #EBE8E6",
",X c #ECEDED",
"<X c #E6EDF0",
"1X c #EDF0F1",
"2X c #F0EEED",
"3X c #F1F0EE",
"4X c #F3F3F3",
"5X c #F7F8F8",
"6X c #F8F8F7",
"7X c #F9F9F9",
/* pixels */
"$X$X$X$X$X$X$X$X$X$X$X$X$X$X$X$X$X$X$X$X$X$X$X$X$X$X$X$X$X$X$X$X$X$X$X$X$X$X$X$X$X$X$X$X$X$X$X$X$X$X$X$X$X$X$X$X$X$X$X$X",
"$X$X$X$X$X$X$X$X$X$X$X$X$X$X$X$X$X$X$X$X$X$X$X$X$X$X$X$X$X$X$X$X$X$X$X$X$X$X$X$X#X$X$X$X$X$X$X$X$X$X$X$X$X$X$X$X$X$X$X$X",
"$X$X$X$X$X$X$X$X$X$X$X$X$X$X$X$X$X$X$X$X$X$X$X$X$X$X$X$X$X$X$X$X$X$X$X$X$X$X$X$X$X$X$X$X$X$X$X$X$X$X$X$X$X$X$X$X$X$X$X$X",
"$X$X$X$X$X$X$X$X$X$X$X$X$X$X$X$X$X$X$X$X$X$X$X$X$X#X$X$X$X$X$X$X$X$X$X$X$X$X$X$X$X$X$X$X$X$X$X$X$X$X$X#X$X$X$X$X$X$X$X$X",
"$X$X$X$X$X$X$X$X$X$X$X$X$X$X$X$X$X$X$X$X$X$X$X$X$X$X$X$X$X$X$X$X$X$X$X$X$X$X$X$X$X$X$X$X$X$X$X$X$X$X$X$X$X$X$X$X$X$X$X$X",
"$X$X$X$X$X$X$X$X$X$X$X$X$X$X$X$X$X$X$X$X$X$X$X$X$X$X$X$X$X$X$X$X$X$X$X$X$X$X$X$X$X$X$X$X$X$X$X$X$X$X$X$X$X$X$X$X$X#X$X$X",
"$X$X$X$X$X$X$X$X$X$X$X$X$X$X$X$X$X$X$X$X$X$X$X$X$X$X$X$X$X$X$X$X$X$X$X$X$X$X$X$X$X$X$X$X$X$X$X$X$X$X$X$X$X$X$X$X$X$X$X$X",
"$X$X$X$X$X$X$X$X$X$X$X$X$X$X$X$X$X#X$X$X$X$X$X$X$X$X$X$X$X$X$X$X$X$X$X$X$X$X$X$X$X$X$X$X$X$X$X$X$X$X$X$X$X$X$X$X$X$X$X$X",
"$X$X$X$X$X$X$X$X$X$X$X$X$X$X$X$X$X$X$X$X$X$X$X$X$X#X$X$X$X$X$X$X$X$X$X$X$X$X$X$X$X$X$X$X$X$X$X$X$X$X$X$X$X$X$X$X$X$X$X$X",
"$X$X$X$X$X$X$X$X$X$X$X$X$X$X$X$X$X$X$X$X$X$X$X$X$X$X$X$X$X$X$X$X$X$X$X$X$X$X$X$X$X$X$X$X$X$X$X$X$X$X$X$X$X$X$X$X$X$X$X$X",
"$X$X$X$X$X$X$X$X$X#X$X$X$X$X$X$X$X$X$X$X$X$X$X$X$X$X$X$X$X$X$X$X$X$X$X$X$X$X$X$X$X$X$X$X$X$X$X$X$X$X$X$X$X$X$X$X$X$X$X$X",
"$X$X$X$X$X$X$X$X$X$X$X$X$X$X$X$X$X$X$X$X$X$X$X$X$X$X$X$X#X$X$X$X$X$X$X$X$X$X$X$X$X$X$X$X$X$X$X$X$X$X$X$X$X$X$X$X$X$X$X$X",
"$X$X$X$X$X$X$X$X$X$X$X$X$X$X$X$X$X$X$X$X$X$X$X$X$X$X$X$X$X$X$X$X$X$X$X$X$X$X$X$X$X$X$X$X$X$X$X$X$X$X$X$X#X$X$X$X$X$X$X$X",
"$X$X$X$X$X$X$X$X$X$X$X$X$X$X$X$X$X$X$X$X$X$X$X$X$X$X$X$X$X$X$X$X$X$X$X$X$X$X$X$X$X$X$X$X$X$X$X$X$X$X$X$X$X$X$X$X$X$X$X$X",
"$X$X$X$X$X$X$X$X$X$X$X$X$X$X$X$X$X$X$X$X$X$X$X$X$X$X$X$X$X$X$X$X$X$X$X$X$X$X$X$X$X$X$X$X$X$X$X$X$X$X$X$X$X$X$X$X$X$X$X$X",
"$X$X$X$X$X$X$X$X$X$X$X$X$X$X$X$X$X$X$X$X$X$X$X$X$X$X$X$X$X$X$X$X$X$X$X$X$X$X$X$X$X$X$X$X$X$X$X$X$X$X$X$X$X$X$X$X$X$X$X$X",
"$X$X$X$X$X$X$X$X$X$X$X$X$X$X$X$X$X$X$X~.^.$X$X$X$X$X$X$X$X$X$X$X$X$X$X$X$X$X$X^.~.#X%X#X$X$X$X$X$X$X$X$X$X$X$X$X$X$X$X$X",
"$X$X$X$X$X$X$X$X$X$X$X$X$X$X$X$X$X$X}.a.h.XX$X$X$X$X$X%X%X$X$X%X$X%X$X$X$X$XXX,.:.}.%X$X$X$X$X$X$X#X$X$X$X$X$X$X$X$X$X$X",
"$X$X$X$X$X$X$X$X$X$X$X$X$X$X$X$X$X$XJ.K.J.#X$X$X$XXX X~.E.E.E.E.~.|.XX$X%X$X$XJ.K.J.$X#X$X$X$X$X$X$X$X$X$X$X$X$X$X$X$X$X",
"$X$X$X$X$X$X$X$X$X$X$X$X$X$X$X$X$X#X,.u.&.XX$X}.U.J.(.`.&X=X*X&X`.T.J.5.^.$XXX&.a.,.#X$X$X$X$X$X$X$X$X$X$X$X$X$X$X$X$X$X",
"$X$X$X$X$X$X$X$X$X$X$X$X$X$X$X$X$X$X,.u.a.-.$.P } j.-X5X7X7X7X7X7X6X3X[.4.3.=.s.u.,.$X$X$X$X$X$X$X$X$X$X$X$X$X$X$X$X$X$X",
"$X$X$X$X$X$X$X$X$X$X$X$X$X$X$X$X$X%XU.@.a.b F Y I H T I.3X6X6X7X6X,X:X3X<XI.n O.O.U.$X$X$X$X$X$X$X$X$X$X$X$X$X$X$X$X$X$X",
"$X$X$X$X$X$X$X$X$X#X$X$X$X$X$X$X$XXX5.| E G U J X.k.( P R.6X6X7X&XP./.d.].@X4.< n 1.XX$X$X$X$X$X$X$X$X$X$X$X$X$X$X$X$X$X",
"$X$X$X$X$X$X$X$X$X$X$X$X$X$X$X$X~.;. .Y < K K :.! =.:.c %.4X7X,Xf.f.! X.s.;X{.J S H | W.$X$X$X$X$X$X$X$X$X$X$X$X$X$X$X$X",
"$X$X$X$X$X$X$X$X$X$X$X$X$X$X$X^.| ) I X : Y K P.= N _ c ) 1X7X>Xd.] * ! &.-XoX)   A D v !.$X$X$X$X$X$X$X$X$X$X$X$X$X$X$X",
"$X$X$X$X$X$X$X$X$X$X$X$X$X$X$X^.G , , c c U K =.V % N < W P._.P.+.b # E &.,XoX4.v o X z ^.$X$X$X$X$X$X$X$X$X$X$X$X#X$X$X",
"$X$X#X$X$X$X$X$X$X$X$X$X$X$X$X$X^.7.!.U.K T U R l.B.D.D.D.F.D.F.B.B.B.e.t.1XoXY.E.Q.7.}.$X$X$X$X$X$X$X$X$X$X$X#X$X$X$X$X",
"$X$X$X$X$X$X$X$X$X$X$X$X$X$X$X$X%X%X%XW.H..Xh.l.G.S.m.g b.S.S.b.k m.S.A.r.P.oXY.Q.%X%X$X$X$X$X$X$X$X$X$X$X$X$X$X$X$X$X$X",
"$X$X$X$X$X$X$X$X$X$X$X$X$X$X$X$X$X$X%X^.`.5Xc.F.A.A.f q i C.C.a q a A.S.v.q..XI.^.%X$X$X$X$X$X$X$X$X$X$X$X$X$X$X$X$X$X$X",
"$X$X$X$X$X$X$X$X$X$X$X$X$X$X$X$X$X$X%X XL.4Xz.C.S.A.d y t N.C.p y t Z.A.v.0.{.4. X%X$X$X$X$X$X$X$X$X$X$X$X$X$X$X$X$X$X$X",
"$X$X$X$X$X$X$X$X$X$X$X$X$X$X$X$X$X$X$X$XU.].x.C.S.S.a w t N.C.p w t A.S.l 9.Y.U.$X$X$X$X$X$X$X$X$X$X$X$X$X$X$X$X$X$X$X$X",
"$X$X$X$X$X$X$X$X$X$X$X$X$X$X$X$X$X$X$X$X XJ.t.m.S.S.d 5 r N.A.a 5 p A.N.j ` 1. X$X$X$X$X$X$X$X$X$X$X$X$X$X$X$X$X$X$X$X$X",
"$X$X$X$X$X$X$X$X$X$X$X$X$X$X$X$X$X$X$X$X%X|.X.e.N.Z.N.k v.Z.A.N.k M.N.l a _ |.%X$X$X$X$X$X$X$X$X$X$X$X#X$X$X$X$X$X$X$X$X",
"$X$X$X$X$X$X$X$X$X$X$X$X$X$X$X$X$X$X$X$X$X$XXXs.0 d d f h h h f d h d s g.XX$X$X$X$X$X$X$X$X$X$X$X$X$X$X$X$X$X$X$X$X$X$X",
"$X$X$X$X$X$X$X$X$X$X$X#X$X$X$X$X$X$X$X$X$X$X%XQ.c { O.B c._._.{ R /.s.*.#X$X$X$X$X$X$X$X$X$X$X$X$X$X$X$X$X$X$X$X$X$X$X$X",
"$X$X$X$X$X$X$X$X$X$X$X$X$X$X$X$X$X$X$X$X$X$XXX1.o.:X=X^ =.5X5X=.$.1X).*.^.$X$X$X$X$X$X$X$X$X$X$X$X$X$X$X$X$X$X$X$X$X$X$X",
"$X$X$X$X$X$X$X$X$X$X$X$X$X$X$X$X$X$X$X$X$X#X-.s.*Xp.w.8 1 [ ^ ! [.-Xg.).U.$X$X$X$X$X$X$X$X$X$X$X$X$X$X$X$X$X$X$X$X$X$X$X",
"#X$X$X$X$X$X$X$X$X$X$X$X$X$X$X$X$X$X$X$XE.| x L <.X.5 7 2 ; ; [ (.*.R.&XY.%X$X$X$X$X$X$X$X$X$X$X$X$X$X$X$X$X$X$X$X$X$X$X",
"$X$X$X$X$X$X$X$X$X$X$X$X$X$X$X$X$X$X$X$X1.$ b L F E 3 V ~ 1 & = - 2 d.j. X$X$X$X$X$X$X$X$X$X$X$X$X$X$X$X$X$X$X$X$X$X$X$X",
"$X$X$X$X$X$X$X$X$X$X$X$X$X$X$X$X$X$X$X$X#X^.XX!.=.X.1 2 h.Z # O + 6 B 3.$X$X$X$X$X$X$X$X$X$X$X$X$X$X$X$X$X$X$X$X$X$X$X$X",
"$X$X$X$X$X$X$X$X$X$X$X$X$X$X$X$X$X$X$X$X$X$X%X3.*.c.s.g.(.f.+.B ` p.X.Q XX$X$X$X$X$X$X$X$X$X$X$X$X$X$X$X$X$X$X$X$X$X$X$X",
"$X$X$X$X$X$X$X$X$X$X$X$X$X$X$X$X$X$X$X$X$X$X$X3.>.3.2.g.2.2.s.>.;.X.U (  X$X$X$X$X$X$X$X$X$X$X$X$X$X$X$X$X$X$X$X$X$X$X$X",
"$X$X$X$X$X$X$X$X$X$X$X#X$X$X$X$X$X$X$X$X$X$X%X!.%.3.4.3.3.3.3.,.%.) U 1.$X$X$X$X$X$X$X$X$X$X$X$X$X$X$X$X$X$X$X$X$X$X$X$X",
"$X#X$X$X$X$X$X$X$X$X$X$X$X$X$X$X$X$X$X$X$X$X$X$X^.Y.I.U.U.U.7.7.7.5.!.XX$X$X$X$X$X$X$X$X$X$X$X$X$X$X$X$X$X$X$X$X$X$X$X$X",
"$X$X$X$X$X$X$X$X$X$X$X$X$X$X$X$X$X$X$X$X$X$X$X$X%X$X%X$X$X$X%X$X$X%X$X$X$X$X$X$X$X$X$X$X$X$X$X$X$X#X$X$X$X$X$X$X$X$X$X$X",
"$X$X$X$X$X$X$X$X$X$X$X$X$X$X$X$X$X$X$X$X$X$X$X$X$X$X$X$X$X$X$X$X$X$X$X$X$X$X$X$X$X$X$X$X$X$X$X$X$X$X$X$X$X$X$X$X$X$X$X$X",
"$X$X$X$X$X$X$X$X$X$X$X$X$X$X$X$X$X$X$X$X$X$X$X$X$X$X$X$X$X$X$X$X$X$X$X$X$X$X$X$X$X$X$X$X$X$X$X$X$X$X$X$X$X$X$X$X$X$X$X$X",
"$X$X$X$X$X$X$X$X$X$X$X$X$X$X$X$X$X$X$X$X$X$X$X$X$X$X$X$X$X$X$X$X$X$X$X$X$X$X$X$X$X$X$X$X$X$X$X$X$X$X$X$X$X$X$X$X$X$X$X$X",
"$X$X$X$X$X$X$X$X$X$X$X$X$X$X$X$X$X$X$X$X$X$X$X$X$X$X$X$X$X$X$X$X$X$X$X$X$X$X$X$X$X$X$X$X$X$X$X$X$X$X$X#X$X$X$X$X$X$X$X$X",
"$X$X$X$X$X$X$X$X$X$X$X$X$X#X$X$X$X$X$X$X$X$X$X$X$X$X$X$X$X$X$X$X$X$X$X$X$X$X$X$X$X$X$X$X$X$X$X$X$X$X$X$X$X$X$X$X$X$X$X$X",
"$X$X$X$X$X$X$X$X$X$X$X$X$X$X$X$X$X$X$X$X$X$X$X$X$X$X$X$X$X$X#X$X$X$X$X$X$X$X$X$X$X$X$X$X$X$X$X$X$X$X$X$X$X$X$X$X$X$X$X$X",
"$X$X$X$X$X$X$X$X$X$X$X$X$X$X$X$X$X$X$X$X$X$X$X$X$X$X$X$X$X$X$X$X$X$X$X$X$X$X$X$X$X$X$X$X$X$X$X$X$X$X$X$X$X$X$X$X$X$X$X$X",
"$X$X$X$X$X$X$X$X$X$X$X$X$X$X$X$X$X$X$X$X$X$X$X$X$X$X$X$X$X$X$X$X$X$X$X$X$X$X$X$X$X$X$X$X$X$X$X$X$X$X$X$X$X$X$X$X$X$X$X$X",
"#X$X$X$X$X$X$X$X$X$X$X$X$X$X$X$X$X$X$X$X$X$X$X$X$X$X$X$X$X$X$X$X$X$X$X$X$X$X$X$X$X$X$X$X$X$X$X$X$X$X$X$X$X$X$X$X$X$X$X$X",
"$X$X$X$X$X$X$X$X$X$X$X$X$X$X$X$X$X$X$X$X$X$X$X$X$X$X$X$X$X$X$X$X$X$X$X$X$X$X$X$X$X$X$X$X$X$X$X$X$X$X$X$X$X$X$X$X$X$X$X$X",
"$X$X$X$X$X$X$X$X$X$X$X$X$X$X$X$X#X$X$X$X$X$X$X$X$X$X$X$X$X$X$X$X$X$X$X$X$X$X$X$X$X$X$X$X$X$X$X$X$X$X$X$X$X$X$X$X$X$X#X$X",
"$X$X$X$X$X$X$X$X$X$X$X$X$X$X$X$X$X$X$X$X$X$X$X$X$X$X$X$X$X#X$X$X$X$X$X$X$X$X$X$X$X$X$X$X$X$X$X$X$X$X$X$X$X$X$X$X$X$X$X$X",
"$X$X#X$X$X$X$X$X$X$X$X$X$X$X$X$X$X$X$X$X$X$X$X$X$X$X$X$X$X$X$X$X$X$X$X$X#X$X$X$X$X$X$X$X$X$X$X$X$X$X$X$X$X$X$X$X$X$X$X$X",
"$X$X$X$X$X$X$X$X$X$X$X$X$X$X$X$X$X$X$X$X$X$X$X$X$X$X$X$X$X$X$X$X$X$X$X$X$X$X$X$X$X$X$X$X$X$X$X$X$X$X$X$X$X$X$X$X$X$X$X$X",
"$X$X$X$X$X$X$X$X$X$X$X$X$X$X$X$X$X$X$X$X$X$X$X$X$X$X$X$X$X$X$X$X$X$X$X$X$X$X$X$X$X$X$X$X$X$X$X$X$X$X$X$X$X$X$X$X$X$X$X$X"
};
